<?xml version="1.0" encoding="utf-8"?>
<!-- Generator: Adobe Illustrator 26.5.0, SVG Export Plug-In . SVG Version: 6.00 Build 0)  -->
<svg version="1.1" id="Capa_1" xmlns="http://www.w3.org/2000/svg" xmlns:xlink="http://www.w3.org/1999/xlink" x="0px" y="0px"
	 viewBox="0 0 6000 1000" style="enable-background:new 0 0 6000 1000;" xml:space="preserve">
<g id="Brands">
	<path d="M1199.2,989.1V8.5h225.2c44.4,0,82.9,4.8,115.6,14.5c32.7,9.7,59.9,24.6,81.7,44.8s37.9,45.8,48.4,76.9
		s15.7,67.6,15.7,109.6c0,40.4-5.1,75.3-15.1,104.7c-10.1,29.5-25.4,52.7-46,69.6c-20.6,17-47,27.8-79.3,32.7
		c39.6,8.9,71.4,24,95.6,45.4c24.2,21.4,42.2,48.8,53.9,82.3c11.7,33.5,17.6,73.7,17.6,120.5c0,42-4.8,80.3-14.5,115
		c-9.7,34.7-24.8,64.2-45.4,88.4c-20.6,24.2-46.8,43-78.7,56.3c-31.9,13.3-69.6,20-113.2,20H1199.2z M1336,417.7h81.1
		c38.7,0,69-5.4,90.8-16.3s37.1-28.4,46-52.7c8.9-24.2,13.3-55.7,13.3-94.4c0-45.2-6.9-77.9-20.6-98.1s-35.1-32.9-64.2-38.1
		c-29.1-5.2-67-7.9-113.8-7.9H1336V417.7z M1336,891.1h92c61.3,0,102.3-14.3,122.9-43c20.6-28.7,30.9-74.9,30.9-138.6
		c0-41.2-5.5-75.7-16.3-103.5c-10.9-27.8-28.3-48.8-52.1-63c-23.8-14.1-55.9-21.2-96.2-21.2H1336V891.1z"/>
	<path d="M1833.5,989.1V8.5h197.3c65.4,0,119.5,8.7,162.2,26c42.8,17.4,74.5,45.2,95,83.5c20.6,38.3,30.9,88.6,30.9,150.7
		c0,38-4,72.5-12.1,103.5c-8.1,31.1-21,57.3-38.7,78.7c-17.7,21.4-41.2,36.9-70.2,46.6l139.2,491.5h-132l-128.3-460.1h-106.5v460.1
		H1833.5z M1970.3,431h52.1c38.7,0,70.2-4.8,94.4-14.5s42-26.2,53.3-49.6c11.3-23.4,16.9-56.1,16.9-98.1
		c0-57.3-10.5-98.7-31.5-124.1s-62.5-38.1-124.7-38.1h-60.5V431z"/>
	<path d="M2408.6,989.1L2616.8,8.5h132l209.5,980.6h-129.5l-44.8-247h-199.8l-47.2,247H2408.6z M2602.3,644.1h163.4l-82.3-441.9
		L2602.3,644.1z"/>
	<path d="M3057.5,989.1V8.5h93.2l278.5,651.3V8.5H3543v980.6h-87.2l-282.1-669.5v669.5H3057.5z"/>
	<path d="M3696.7,989.1V8.5h213.1c72.6,0,130.1,11.1,172.5,33.3c42.4,22.2,72.6,55.5,90.8,99.9c18.2,44.4,27.2,99.7,27.2,165.9
		v360.8c0,69.4-9.1,127.9-27.2,175.5c-18.2,47.6-47.6,83.7-88.4,108.3c-40.8,24.6-95.4,36.9-164,36.9H3696.7z M3833.5,891.1h77.5
		c50,0,85.5-9.7,106.5-29.1c21-19.4,33.7-47.6,38.1-84.7s6.7-81.9,6.7-134.4V324.5c0-50.9-3.2-92-9.7-123.5
		c-6.5-31.5-20.6-54.5-42.4-69c-21.8-14.5-56.1-21.8-102.9-21.8h-73.9V891.1z"/>
	<path d="M4566,1000c-56.5,0-103.5-12.1-141-36.3c-37.5-24.2-66-57.7-85.4-100.5c-19.4-42.8-30.7-92.4-33.9-148.9l121.1-32.7
		c2.4,34.7,7.9,68.2,16.3,100.5c8.5,32.3,22.4,58.7,41.8,79.3s46.4,30.9,81.1,30.9c35.5,0,62.3-9.9,80.5-29.7
		c18.2-19.8,27.3-48.2,27.3-85.3c0-44.4-10.1-80.1-30.3-107.1c-20.2-27-45.6-54.3-76.3-81.7l-164.7-145.3
		c-32.3-28.2-56.1-59.1-71.4-92.6c-15.3-33.5-23-74.8-23-124.1c0-71.8,20.6-127.5,61.7-167.1C4411,19.8,4467.1,0,4538.1,0
		c38.7,0,72.8,5.1,102.3,15.1s54.1,25.6,73.9,46.6s35.5,47.4,47.2,79.3c11.7,31.9,19.6,69.2,23.6,112l-116.2,31.5
		c-2.4-32.3-7.3-61.9-14.5-89s-20-48.8-38.1-65.4c-18.2-16.6-44.2-24.8-78.1-24.8c-33.9,0-60.3,9.1-79.3,27.2
		c-19,18.2-28.4,45-28.4,80.5c0,29.9,5,54.5,15.1,73.9c10.1,19.4,26.4,39.1,49,59.3l165.9,145.3c37.1,32.3,69.8,70.8,98.1,115.6
		c28.2,44.8,42.4,97.9,42.4,159.2c0,48.4-10.1,90.2-30.3,125.3c-20.2,35.1-47.8,61.9-82.9,80.5C4652.5,990.7,4612,1000,4566,1000z"
		/>
</g>
</svg>
