<?xml version="1.0" encoding="utf-8"?>
<!-- Generator: Adobe Illustrator 26.5.0, SVG Export Plug-In . SVG Version: 6.00 Build 0)  -->
<svg version="1.1" id="Capa_1" xmlns="http://www.w3.org/2000/svg" xmlns:xlink="http://www.w3.org/1999/xlink" x="0px" y="0px"
	 viewBox="0 0 6000 1000" style="enable-background:new 0 0 6000 1000;" xml:space="preserve">
<g id="Clothing">
	<path d="M1069.5,998.8c-69.3,0-123.1-14.5-161.4-43.5c-38.3-29-64.9-68.1-79.8-117.3c-14.9-49.2-22.4-104-22.4-164.4V327.7
		c0-66.1,7.4-123.7,22.4-172.9c14.9-49.2,41.5-87.3,79.8-114.3c38.3-27,92.1-40.5,161.4-40.5c61.3,0,109.8,11.3,145.7,33.9
		c35.9,22.6,61.7,54.8,77.4,96.7c15.7,41.9,23.6,92.3,23.6,151.2v77.4h-129.4v-68.9c0-36.3-1.8-68.3-5.5-96.1
		c-3.6-27.8-13.5-49.4-29.6-64.7c-16.1-15.3-43.1-23-81-23c-38.7,0-66.9,8.3-84.6,24.8c-17.7,16.5-29.2,39.9-34.5,70.1
		c-5.2,30.2-7.9,65.5-7.9,105.8v388.2c0,49.2,4,88.1,12.1,116.7c8.1,28.6,21.4,49,39.9,61.1c18.5,12.1,43.5,18.1,75,18.1
		c37.1,0,63.7-8.3,79.8-24.8c16.1-16.5,26.2-39.3,30.2-68.3c4-29,6.1-62.9,6.1-101.6v-72.5h129.4v72.5c0,59.7-7.3,112.3-21.8,157.8
		c-14.5,45.5-39.5,81-75,106.4C1184,986.1,1134,998.8,1069.5,998.8z"/>
	<path d="M1446.8,987.9V8.5h136.6V890h250.3v97.9H1446.8z"/>
	<path d="M2169.9,998.8c-66.1,0-118.9-12.9-158.4-38.7c-39.5-25.8-67.7-62.7-84.6-110.6c-16.9-48-25.4-104.2-25.4-168.7V309.5
		c0-64.5,8.7-119.9,26-166.3s45.5-81.8,84.6-106.4C2051.2,12.3,2103.8,0,2169.9,0c66.1,0,118.5,12.5,157.2,37.5s66.7,60.5,84,106.4
		c17.3,46,26,101.2,26,165.7V682c0,63.7-8.7,119.3-26,166.9c-17.3,47.6-45.4,84.4-84,110.6S2236,998.8,2169.9,998.8z M2169.9,891.2
		c36.3,0,63.7-7.4,82.2-22.4c18.5-14.9,31-35.9,37.5-62.9c6.4-27,9.7-58.6,9.7-94.9V281.7c0-36.3-3.2-67.5-9.7-93.7
		c-6.4-26.2-18.9-46.3-37.5-60.5c-18.5-14.1-46-21.2-82.2-21.2c-36.3,0-63.9,7.1-82.8,21.2c-19,14.1-31.6,34.3-38.1,60.5
		c-6.4,26.2-9.7,57.4-9.7,93.7V711c0,36.3,3.2,67.9,9.7,94.9c6.4,27,19.1,48,38.1,62.9C2106,883.7,2133.6,891.2,2169.9,891.2z"/>
	<path d="M2679,987.9V110h-165.7V8.5h463.1V110h-160.8v877.9H2679z"/>
	<path d="M3070.7,987.9V8.5h136.6v423.2h251.5V8.5h136.6v979.5h-136.6V529.6h-251.5v458.3H3070.7z"/>
	<path d="M3756.3,987.9V8.5h134.2v979.5H3756.3z"/>
	<path d="M4048.9,987.9V8.5h93.1L4420.2,659V8.5h113.7v979.5h-87.1L4165,319.2v668.7H4048.9z"/>
	<path d="M4920.8,1000c-61.3,0-110.2-13.1-146.9-39.3c-36.7-26.2-63.3-64.3-79.8-114.3c-16.5-50-24.8-110-24.8-180.2V338.6
		c0-71.7,7.4-132.8,22.4-183.2c14.9-50.4,41.5-88.9,79.8-115.5C4809.7,13.3,4863.1,0,4931.7,0c61.3,0,110.6,10.3,148.1,30.8
		c37.5,20.6,64.7,52,81.6,94.3s25.4,95.7,25.4,160.2v36.3h-128.2v-30.2c0-42.7-2.8-77.6-8.5-104.6c-5.6-27-17.1-47.2-34.5-60.5
		s-44.5-20-81.6-20c-40.3,0-69.5,9.3-87.7,27.8s-29.4,43.7-33.9,75.6c-4.4,31.8-6.6,67.9-6.6,108.2v362.8
		c0,46.8,3.4,85.9,10.3,117.3c6.9,31.4,19.9,54.8,39.3,70.1c19.3,15.3,46.8,23,82.2,23c35.5,0,62.9-8.5,82.2-25.4
		c19.3-16.9,32.6-41.9,39.9-75c7.3-33,10.9-74.2,10.9-123.3v-67.7h-124.6V503h247.9v484.9h-85.9l-13.3-112.5
		c-12.9,36.3-33.1,66.1-60.5,89.5C5007,988.3,4969.1,1000,4920.8,1000z"/>
</g>
</svg>
