<?xml version="1.0" encoding="utf-8"?>
<!-- Generator: Adobe Illustrator 26.5.0, SVG Export Plug-In . SVG Version: 6.00 Build 0)  -->
<svg version="1.1" id="Capa_1" xmlns="http://www.w3.org/2000/svg" xmlns:xlink="http://www.w3.org/1999/xlink" x="0px" y="0px"
	 viewBox="0 0 6245.7 1000" style="enable-background:new 0 0 6245.7 1000;" xml:space="preserve">
<g>
	<path d="M263.9,1000c-69.4,0-123.3-14.5-161.6-43.6c-38.3-29-65-68.2-79.9-117.4C7.5,789.8,0,734.9,0,674.3V328.1
		C0,261.9,7.5,204.2,22.4,155S64,67.6,102.3,40.6C140.6,13.5,194.5,0,263.9,0c61.3,0,110,11.3,145.9,33.9
		c35.9,22.6,61.7,54.9,77.5,96.8c15.7,42,23.6,92.4,23.6,151.3v77.5H381.4v-69c0-36.3-1.8-68.4-5.5-96.2
		c-3.6-27.8-13.5-49.4-29.7-64.8c-16.1-15.3-43.2-23-81.1-23c-38.7,0-67,8.3-84.7,24.8c-17.8,16.6-29.3,39.9-34.5,70.2
		c-5.3,30.3-7.9,65.6-7.9,105.9v388.6c0,49.2,4,88.2,12.1,116.8s21.4,49,39.9,61.1c18.6,12.1,43.6,18.2,75.1,18.2
		c37.1,0,63.8-8.3,79.9-24.8c16.1-16.5,26.2-39.3,30.3-68.4c4-29,6.1-63,6.1-101.7v-72.6h129.5v72.6c0,59.7-7.3,112.4-21.8,158
		c-14.5,45.6-39.6,81.1-75.1,106.5S328.5,1000,263.9,1000z"/>
	<path d="M892.3,1000c-66.2,0-119.1-12.9-158.6-38.7c-39.6-25.8-67.8-62.7-84.7-110.8c-17-48-25.4-104.3-25.4-168.9V309.9
		c0-64.6,8.7-120,26-166.5c17.4-46.4,45.6-81.9,84.7-106.5C773.4,12.3,826.1,0,892.3,0c66.2,0,118.6,12.5,157.4,37.5
		c38.7,25,66.8,60.5,84.1,106.5s26,101.3,26,165.9v372.9c0,63.8-8.7,119.5-26,167.1s-45.4,84.5-84.1,110.8
		C1010.9,986.9,958.4,1000,892.3,1000z M892.3,892.3c36.3,0,63.8-7.5,82.3-22.4c18.6-14.9,31.1-35.9,37.5-63c6.5-27,9.7-58.7,9.7-95
		V282.1c0-36.3-3.2-67.6-9.7-93.8c-6.5-26.2-19-46.4-37.5-60.5s-46-21.2-82.3-21.2c-36.3,0-64,7.1-82.9,21.2
		c-19,14.1-31.7,34.3-38.1,60.5c-6.5,26.2-9.7,57.5-9.7,93.8v429.8c0,36.3,3.2,68,9.7,95c6.5,27,19.2,48,38.1,63
		C828.3,884.8,855.9,892.3,892.3,892.3z"/>
	<path d="M1294.2,989.1V8.5H1431v882.6h250.6v98.1H1294.2z"/>
	<path d="M1774.8,989.1V8.5h136.8v882.6h250.6v98.1H1774.8z"/>
	<path d="M2255.4,989.1V8.5h380.2v101.7h-243.3v324.5h197.3v96.8h-197.3v359.6H2638v98.1H2255.4z"/>
	<path d="M2993.9,1000c-69.4,0-123.3-14.5-161.6-43.6c-38.3-29-65-68.2-79.9-117.4c-14.9-49.2-22.4-104.1-22.4-164.6V328.1
		c0-66.2,7.5-123.9,22.4-173.1s41.6-87.4,79.9-114.4c38.3-27,92.2-40.6,161.6-40.6c61.3,0,110,11.3,145.9,33.9
		c35.9,22.6,61.7,54.9,77.5,96.8c15.7,42,23.6,92.4,23.6,151.3v77.5h-129.5v-69c0-36.3-1.8-68.4-5.5-96.2s-13.5-49.4-29.7-64.8
		c-16.1-15.3-43.2-23-81.1-23c-38.7,0-67,8.3-84.7,24.8c-17.8,16.6-29.3,39.9-34.5,70.2c-5.3,30.3-7.9,65.6-7.9,105.9v388.6
		c0,49.2,4,88.2,12.1,116.8s21.4,49,39.9,61.1c18.6,12.1,43.6,18.2,75.1,18.2c37.1,0,63.8-8.3,79.9-24.8
		c16.1-16.5,26.2-39.3,30.3-68.4c4-29,6.1-63,6.1-101.7v-72.6h129.5v72.6c0,59.7-7.3,112.4-21.8,158
		c-14.5,45.6-39.6,81.1-75.1,106.5S3058.5,1000,2993.9,1000z"/>
	<path d="M3479.4,989.1V110.2h-165.9V8.5h463.7v101.7h-161v878.9H3479.4z"/>
	<path d="M3878.9,989.1V8.5h134.4v980.6H3878.9z"/>
	<path d="M4171.9,989.1V8.5h225.2c44.4,0,82.9,4.8,115.6,14.5c32.7,9.7,59.9,24.6,81.7,44.8c21.8,20.2,37.9,45.8,48.4,76.9
		s15.7,67.6,15.7,109.6c0,40.4-5.1,75.3-15.1,104.7c-10.1,29.5-25.4,52.7-46,69.6c-20.6,17-47,27.8-79.3,32.7
		c39.6,8.9,71.4,24,95.6,45.4c24.2,21.4,42.2,48.8,53.9,82.3c11.7,33.5,17.6,73.7,17.6,120.5c0,42-4.8,80.3-14.5,115
		c-9.7,34.7-24.8,64.2-45.4,88.4s-46.8,43-78.7,56.3c-31.9,13.3-69.6,20-113.2,20H4171.9z M4308.7,417.7h81.1
		c38.7,0,69-5.4,90.8-16.3c21.8-10.9,37.1-28.4,46-52.7c8.9-24.2,13.3-55.7,13.3-94.4c0-45.2-6.9-77.9-20.6-98.1
		c-13.7-20.2-35.1-32.9-64.2-38.1c-29.1-5.2-67-7.9-113.8-7.9h-32.7V417.7z M4308.7,891.1h92c61.3,0,102.3-14.3,122.9-43
		c20.6-28.7,30.9-74.9,30.9-138.6c0-41.2-5.5-75.7-16.3-103.5c-10.9-27.8-28.3-48.8-52.1-63c-23.8-14.1-55.9-21.2-96.2-21.2h-81.1
		V891.1z"/>
	<path d="M4806.3,989.1V8.5h136.8v882.6h250.6v98.1H4806.3z"/>
	<path d="M5286.9,989.1V8.5H5667v101.7h-243.3v324.5H5621v96.8h-197.3v359.6h245.8v98.1H5286.9z"/>
	<path d="M6010.9,1000c-56.5,0-103.5-12.1-141-36.3c-37.5-24.2-66-57.7-85.4-100.5c-19.4-42.8-30.7-92.4-33.9-148.9l121.1-32.7
		c2.4,34.7,7.9,68.2,16.3,100.5c8.5,32.3,22.4,58.7,41.8,79.3s46.4,30.9,81.1,30.9c35.5,0,62.3-9.9,80.5-29.7
		c18.2-19.8,27.3-48.2,27.3-85.3c0-44.4-10.1-80.1-30.3-107.1s-45.6-54.3-76.3-81.7l-164.7-145.3c-32.3-28.2-56.1-59.1-71.4-92.6
		c-15.3-33.5-23-74.8-23-124.1c0-71.8,20.6-127.5,61.7-167.1C5855.9,19.8,5912,0,5983,0c38.7,0,72.8,5.1,102.3,15.1
		c29.5,10.1,54.1,25.6,73.9,46.6s35.5,47.4,47.2,79.3s19.6,69.2,23.6,112l-116.2,31.5c-2.4-32.3-7.3-61.9-14.5-89
		c-7.3-27-20-48.8-38.1-65.4s-44.2-24.8-78.1-24.8c-33.9,0-60.3,9.1-79.3,27.2c-19,18.2-28.4,45-28.4,80.5c0,29.9,5,54.5,15.1,73.9
		c10.1,19.4,26.4,39.1,49,59.3l165.9,145.3c37.1,32.3,69.8,70.8,98.1,115.6c28.2,44.8,42.4,97.9,42.4,159.2
		c0,48.4-10.1,90.2-30.3,125.3c-20.2,35.1-47.8,61.9-82.9,80.5C6097.4,990.7,6056.9,1000,6010.9,1000z"/>
</g>
</svg>
