<?xml version="1.0" encoding="utf-8"?>
<!-- Generator: Adobe Illustrator 26.5.0, SVG Export Plug-In . SVG Version: 6.00 Build 0)  -->
<svg version="1.1" id="Capa_2" xmlns="http://www.w3.org/2000/svg" xmlns:xlink="http://www.w3.org/1999/xlink" x="0px" y="0px"
	viewBox="0 0 2000 2000" style="enable-background:new 0 0 2000 2000;" xml:space="preserve">
<style type="text/css">
	.st0{fill:#FFFFFF;}
</style>
<g>
	<path class="st0" d="M1000,541.7c-253.1,0-458.3,205.2-458.3,458.3s205.2,458.3,458.3,458.3s458.3-205.2,458.3-458.3
		C1458,747,1253,542,1000,541.7z M1000,1375c-207.1,0-375-167.9-375-375s167.9-375,375-375s375,167.9,375,375
		C1374.8,1207,1207,1374.8,1000,1375z M1458.3,0H541.7C242.7,0.3,0.3,242.7,0,541.7v916.7c0.3,299,242.7,541.3,541.7,541.7h916.7
		c299-0.3,541.3-242.7,541.7-541.7V541.7C1999.7,242.7,1757.3,0.3,1458.3,0z M1916.7,1458.3c-0.3,253-205.3,458-458.3,458.3H541.7
		c-253-0.3-458-205.3-458.3-458.3V541.7c0.3-253,205.3-458,458.3-458.3h916.7c253,0.3,458,205.3,458.3,458.3V1458.3z M1625,458.3
		c0,46-37.3,83.3-83.3,83.3s-83.3-37.3-83.3-83.3s37.3-83.3,83.3-83.3C1587.7,375.1,1624.9,412.3,1625,458.3z"/>
</g>
</svg>
