<?xml version="1.0" encoding="utf-8"?>
<!-- Generator: Adobe Illustrator 26.5.0, SVG Export Plug-In . SVG Version: 6.00 Build 0)  -->
<svg version="1.1" id="Capa_1" xmlns="http://www.w3.org/2000/svg" xmlns:xlink="http://www.w3.org/1999/xlink" x="0px" y="0px"
	 viewBox="0 0 6000 1000" style="enable-background:new 0 0 6000 1000;" xml:space="preserve">
<g id="Legit">
	<path d="M1838,987.9V8.5h136.6V890h250.3v97.9H1838z"/>
	<path d="M2318,987.9V8.5h379.7V110h-243.1v324.1h197.1v96.7h-197.1V890h245.5v97.9H2318z"/>
	<path d="M3043.5,1000c-61.3,0-110.2-13.1-146.9-39.3c-36.7-26.2-63.3-64.3-79.8-114.3c-16.5-50-24.8-110-24.8-180.2V338.6
		c0-71.7,7.4-132.8,22.4-183.2s41.5-88.9,79.8-115.5C2932.5,13.3,2985.9,0,3054.4,0c61.3,0,110.6,10.3,148.1,30.8
		c37.5,20.6,64.7,52,81.6,94.3c16.9,42.3,25.4,95.7,25.4,160.2v36.3h-128.2v-30.2c0-42.7-2.8-77.6-8.5-104.6
		c-5.6-27-17.1-47.2-34.5-60.5c-17.3-13.3-44.5-20-81.6-20c-40.3,0-69.5,9.3-87.7,27.8s-29.4,43.7-33.9,75.6s-6.6,67.9-6.6,108.2
		v362.8c0,46.8,3.4,85.9,10.3,117.3c6.9,31.4,19.9,54.8,39.3,70.1c19.3,15.3,46.8,23,82.2,23c35.5,0,62.9-8.5,82.2-25.4
		c19.3-16.9,32.6-41.9,39.9-75c7.3-33,10.9-74.2,10.9-123.3v-67.7h-124.6V503h247.9v484.9H3231l-13.3-112.5
		c-12.9,36.3-33.1,66.1-60.5,89.5C3129.8,988.3,3091.9,1000,3043.5,1000z"/>
	<path d="M3464.3,987.9V8.5h134.2v979.5H3464.3z"/>
	<path d="M3864.5,987.9V110h-165.7V8.5H4162V110h-160.8v877.9H3864.5z"/>
</g>
</svg>
