<?xml version="1.0" encoding="utf-8"?>
<!-- Generator: Adobe Illustrator 26.5.0, SVG Export Plug-In . SVG Version: 6.00 Build 0)  -->
<svg version="1.1" id="Capa_1" xmlns="http://www.w3.org/2000/svg" xmlns:xlink="http://www.w3.org/1999/xlink" x="0px" y="0px"
	viewBox="0 0 2000 712.8" style="enable-background:new 0 0 2000 712.8;" xml:space="preserve">
<style type="text/css">
	.st0{fill:#FFFFFF;}
</style>
<g id="UNIQLO_00000038385875023183941380000018294327846223136182_">
	<g id="layer1_00000170239581538257522360000011376532946670977955_" transform="translate(-364.0975,-319.35808)">
		<path id="path2995_00000046305774581690677460000017393669875401496194_" d="M1006.8,1032.1h714.6V319.4h-714.6L1006.8,1032.1
			L1006.8,1032.1z"/>
		<path id="path2997_00000095328172985458701670000012793735504564428684_" class="st0" d="M1532.9,416.6h45.8v225.2h-45.8V416.6z"
			/>
		
			<g id="g3007_00000017498908427104879130000005371866715036584320_" transform="matrix(8.0050071,0,0,-8.0050071,432.54511,389.92446)">
			<path id="path3009_00000018203600042799488810000011862861723354210495_" class="st0" d="M101.7-22.1c0-5.3-4-9.3-9.3-9.3
				c-5.3,0-9.4,4.1-9.4,9.3v18.8h5.6v-18.8c0-2.1,1.7-3.9,3.8-3.9c2.1,0,3.8,1.7,3.8,3.9v18.8h5.5V-22.1z"/>
		</g>
		
			<g id="g3011_00000048476875079257947380000007813185476723407744_" transform="matrix(8.0050071,0,0,-8.0050071,492.80124,494.84192)">
			<path id="path3013_00000039107591808644197580000012232878000692960948_" class="st0" d="M120.6-55h-18.8v28.1h5.7v-22.4h13.1
				V-55z"/>
		</g>
		
			<g id="g3015_00000003080666600718040930000000338946421201875607_" transform="matrix(8.0050071,0,0,-8.0050071,492.80124,411.24275)">
			<path id="path3017_00000150819721594343191840000015782521443048603813_" class="st0" d="M120.6-28.8h-5.7l-7.4,16.1v-16.1h-5.7
				v28.1h5.7l7.4-16.1v16.1h5.7V-28.8z"/>
		</g>
		
			<g id="g3019_00000028290604098577199320000013475447339829187986_" transform="matrix(8.0050071,0,0,-8.0050071,411.34382,430.69236)">
			<path id="path3021_00000065059453345328926530000009743899434816458903_" class="st0" d="M95.1-34.9c-5.2,0-9.4-4.2-9.4-9.3v-9.5
				c0-5,4.1-9.3,9.4-9.3c0.6,0,1.3,0.1,1.8,0.2l2-5.9h5.5l-2.6,8.4c1.5,1.7,2.6,4.1,2.6,6.5v9.5C104.4-39.1,100.4-34.9,95.1-34.9
				M98.9-53.7c0-1.8-1.7-3.6-3.8-3.6c-2.1,0-3.8,1.7-3.8,3.6v9.5c0,2.1,1.7,3.8,3.8,3.8c2.1,0,3.8-1.7,3.8-3.8V-53.7z"/>
		</g>
		
			<g id="g3023_00000174571656872810550360000002744226363925698991_" transform="matrix(8.0050071,0,0,-8.0050071,520.54499,430.69236)">
			<path id="path3025_00000160896056172587815690000015204212098990450360_" class="st0" d="M129.3-34.9c-5.3,0-9.3-4.2-9.3-9.3
				v-9.5c0-5,4-9.3,9.3-9.3c5.2,0,9.3,4.3,9.3,9.3v9.5C138.6-39.1,134.6-34.9,129.3-34.9 M133.1-53.7c0-1.8-1.7-3.6-3.8-3.6
				c-2.1,0-3.8,1.7-3.8,3.6v9.5c0,2.1,1.7,3.8,3.8,3.8c2.1,0,3.8-1.7,3.8-3.8V-53.7z"/>
		</g>
	</g>
</g>
</svg>