<?xml version="1.0" encoding="utf-8"?>
<!-- Generator: Adobe Illustrator 26.5.0, SVG Export Plug-In . SVG Version: 6.00 Build 0)  -->
<svg version="1.1" id="Capa_1" xmlns="http://www.w3.org/2000/svg" xmlns:xlink="http://www.w3.org/1999/xlink" x="0px" y="0px"
	viewBox="0 0 2000 712.8" style="enable-background:new 0 0 2000 712.8;" xml:space="preserve">
<g id="Kaws">
	<g transform="translate(0.000000,600.000000) scale(0.100000,-0.100000)">
		<path d="M6342.9,4188.8c-41.6-63.9-53.5-44.6,371.3-601.4c447-586.6,797.5-1044,813.8-1063.3c8.9-11.9-191.6-233.1-607.4-674.2
			c-341.6-360.9-641.5-687.6-666.8-724.7c-26.7-38.6-54.9-99.5-65.3-135.1c-47.5-178.2,80.2-343,267.3-343
			c90.6,0,154.4,25.2,227.2,89.1c29.7,25.2,292.5,357.9,582.1,736.6c291.1,378.7,533.1,689,539.1,687.6
			c5.9,0,218.3-271.8,470.8-602.9c638.6-837.5,619.3-813.8,709.8-865.8c194.5-111.4,420.3-7.4,438.1,200.5
			c13.4,157.4-11.9,188.6-717.3,935.6c-347.5,366.8-631.1,672.7-631.1,680.1c0,7.4,256.9,349,570.2,758.8
			c601.4,787.1,632.6,830.1,632.6,879.1c0,38.6-44.6,80.2-84.6,80.2c-44.6,0-93.6-49-770.7-772.2
			c-332.6-354.9-610.3-647.5-616.3-650.4c-4.5-1.5-304.4,310.4-666.8,695c-360.9,384.6-669.7,705.4-684.6,712.8
			C6409.8,4236.3,6368.2,4227.4,6342.9,4188.8z"/>
		<path d="M10759.4,4209.6c-31.2-17.8-35.6-87.6-8.9-136.6c8.9-17.8,231.7-313.3,494.5-656.4s525.7-686.1,583.6-763.3
			c59.4-77.2,105.4-145.5,104-151.5c-3-4.5-289.6-311.9-638.6-680.1c-457.4-484.1-644.5-692-671.2-747
			c-44.6-87.6-52-210.9-17.8-276.2c28.2-53.5,96.5-115.8,147-135.1c63.9-25.2,173.7-19.3,240.6,11.9
			c86.1,40.1,160.4,124.7,507.9,580.6c549.5,720.2,689,898.4,702.4,898.4c7.4,0,240.6-297,519.8-660.8
			c279.2-363.8,534.6-689,568.8-724.7c83.2-86.1,155.9-121.8,246.5-121.8c90.6,0,144,19.3,199,71.3c62.4,59.4,84.6,111.4,84.6,200.5
			c0,133.7-44.6,196-389.1,561.3c-172.3,182.7-460.4,488.6-640,678.7c-243.5,258.4-323.7,351.9-313.3,368.3
			c7.4,10.4,261.4,341.6,562.8,735.1c302.9,395,567.3,744,589.6,776.7c65.3,96.5,46,187.1-38.6,187.1
			c-40.1,0-148.5-109.9-892.5-902.9c-268.8-288.1-493-522.7-497.5-522.7c-4.5,0-277.7,286.6-605.9,637.1
			C10815.8,4269,10833.6,4252.6,10759.4,4209.6z"/>
	</g>
</g>
</svg>
