<?xml version="1.0" encoding="utf-8"?>
<!-- Generator: Adobe Illustrator 26.5.0, SVG Export Plug-In . SVG Version: 6.00 Build 0)  -->
<svg version="1.1" id="Capa_1" xmlns="http://www.w3.org/2000/svg" xmlns:xlink="http://www.w3.org/1999/xlink" x="0px" y="0px"
	viewBox="0 0 2000 712.8" style="enable-background:new 0 0 2000 712.8;" xml:space="preserve">
<style type="text/css">
	.st0{fill-rule:evenodd;clip-rule:evenodd;}
</style>
<g id="Stussy">
	<g>
		<path class="st0" d="M991.5,116.2l-4.3,1.5l-4.7,2.8l-3.4,3.1l-1.8,3.9l-1.1,5l-0.4,4.4l0.4,4.3l1.1,5l1.8,3.9l2.7,2.4l3.7,2.1
			l3.4,1.3l4.5,0.7l5.3,0l4.4-0.7l4.1-2l4.4-3.1l3.1-3.2l1.6-4.2l0.9-5.3l0-4.6l-0.9-4.2l-1.7-4.8l-2.3-3.4l-5.4-2.7l-7.2-1.5
			L991.5,116.2z M828.6,171.9l-4.7,0.1l-5.2,0.1l-5.6,0.1l-6,0.1l-6.3,0.1l-6.4,0.1l-6.5,0.1l-6.5,0.1l-6.4,0.1l-6.3,0.1l-6,0.2
			l-5.6,0.1l-5.2,0.1l-4.7,0.1l-4.9,0.2l-5.6,0.3l-6.1,0.4l-6.5,0.5l-6.7,0.5l-6.9,0.5l-6.9,0.4l-6.7,0.3l-6.5,0.1l-6.1-0.1
			l-5.5-0.3L674,176l-4.8-1.4l-5.5-2.3l-4.7-2.1l-2.9-1.4l-3.4-1.8l-2.7-1.8l-1.8-1.8l-2.1-2.3l-2-1.7l-4.7-2.2l-5.9-1.8l-5.1-0.2
			l-6.7,3.7l-6.7,6.4l-4.1,6.5l-0.2,7.7l2.2,9.1l3.1,7.3l3.9,4.8l5.7,4.9l5.4,3.5l4.5,1.7l5.6,1.3l4.9,0.4l6.6-1.6l7.6-2.9l6.5-2.1
			l5.1-1l6-0.9l6.6-0.9l6.8-0.8l6.6-0.7l6.1-0.5l5.2-0.4l4.5-0.3l5-0.2l5.4-0.2l5.7-0.2l6-0.1l6.2-0.1l6.3-0.1l6.4-0.1l6.4-0.1
			l6.3-0.1l6.2,0l6,0l5.7,0l5.4,0l5,0l4.5,0l7.7-0.1l8.9,0l7.6,0l-0.6,4.6l-0.8,5l-0.9,5.3l-1.1,5.6l-1.2,5.8l-1.3,6l-1.4,6.1
			l-1.5,6.2l-1.5,6.2l-1.5,6.1l-1.5,6l-1.5,5.9l-1.4,5.6l-1.3,5.4l-1.2,5.1l-1.1,4.7l-1,4.3l-0.7,3.5l-0.8,3.9l-0.9,4.3l-1,4.7
			l-1.1,5.1l-1.2,5.4l-1.2,5.7l-1.3,5.9l-1.3,6.2l-1.4,6.4l-1.4,6.6l-1.5,6.8l-1.5,6.9l-1.5,7l-1.5,7.1l-9.1,0.6l-8.6,0.5l-8,0.5
			l-7.5,0.4l-7,0.3l-6.5,0.3l-6.1,0.2l-5.6,0.2l-5.2,0.2l-4.7,0.1l-4.3,0.1l-3.9,0l-3.5,0l-3.2,0l-2.8,0l-4.4,0.2l-5.1,0.1l-3.9-1.1
			l-0.4-0.7l-0.3-1l-0.1-0.9l0.7-1.5l1.3-1.6l1.3-1.1l4.6-2.5l5.7-2.2l6.4-2l6.8-1.8l6.9-1.6l6.7-1.5l6.1-1.3l5.1-1.2l5.7-1.3
			l6.8-1.3l5.8-0.8l2.9,0.1l3.4,0.1l2.9-0.2l5.5-1.7l6.2-2.8l4.9-3l3.2-3l3.2-4l1.9-3.8l0.1-3.4l-0.7-4l-1-3.4l-1.6-3.7l-2.4-4.1
			l-2.6-3l-3.2-1.6l-4.1-1.2l-3.5-0.4l-6.1,1.6l-7,3.2l-6,2.7l-5,1.6l-5.9,1.7l-6.5,1.8l-6.7,1.9l-6.5,1.9l-5.9,1.8l-5,1.7l-4.4,1.6
			l-5,1.8l-5.4,2l-5.7,2.2l-6,2.3l-6.1,2.5l-6.1,2.5l-6,2.6l-5.8,2.6l-5.5,2.6l-5.1,2.6l-4.6,2.6l-4,2.5l-5.8,4.3l-6.2,5.7l-3.7,5.8
			l-0.1,4.5l1.4,5.3l2.1,4.2l4.1,3.6l5.7,3.3l5.2,2.3l5.7,1.7l7,1.4l7.5,1.2l7.1,0.9l5.9,0.6l4.8,0.3l5.5,0.2l6,0.1l6.4,0l6.6-0.1
			l6.7-0.1l6.6-0.2l6.4-0.2l6-0.3l5.5-0.3l4.8-0.3l5.5-0.3l6.7-0.3l7.4-0.2l7.4-0.1l6.7,0l1.4,0.7l0.6,1.4l0.1,1.3l-0.2,2.9
			l-0.4,3.4l-0.6,3.8l-0.8,4.2l-1,4.6l-1.2,5l-1.3,5.3l-1.4,5.6l-1.6,5.9l-1.7,6.2l-1.7,6.4l-1.8,6.5l-1.8,6.7l-1.9,6.8l-1.9,6.8
			l-1.9,6.9l-1.9,6.9l-3.3,7.1l-4.3,8.1l-2.4,7.2l0.4,7.5l2.1,8.6l3.3,6.4l4.7,3.6l6.6,3.1l7,2.3l5.9,1l7.3-0.6l8.5-2.2l6.7-3
			l4.2-3.9l4.2-5.4l3.3-4.8l1.3-2.4l1.4-2.9l1.5-2.2l1.6-1.2l3.7-2.2l6.9-4.2l11.3-7.2l-0.5,6.4l-0.9,6.6l-0.5,4.1l-0.3,1.9
			l-0.6,2.2l-0.7,1.8l-2.4,3.4l-3.1,3.9l-2,3.6l-0.4,3.8l0.4,4.6l0.7,3.9l1,4.4l1.7,5.1l2.2,3.8l4,2.6l5.4,2.1l4.7,1.1l5.9,0.3
			l7-0.7l5.4-2l2.8-3.7l2.3-5.1l1.6-4.5l1.7-5.7l1.4-6.8l0.2-5.8l-1.1-2.7l-1.8-3l-1.3-2.6l-1.4-6.2l-0.9-7.4l-0.2-6.4l0.7-4.2
			l1.3-4.9l1.3-4.1l1.1-3.7l1.5-4.4l1.6-3.5l1.2-1.5l1.6-1.6l1.4-1.2l3.8-2l4.7-2l4-1.7l3.9-2.3l4.6-2.6l4.1-1l0.9,0.6l0.9,1l0.6,1
			l0.7,4.6l-0.3,5.6l-0.3,4.8l-0.2,2.7l-0.1,3.1l0.3,2.5l0.9,1.5l1.3,1.6l1.2,1.1l4.2,1.5l5.3,0.8l4.6,0.2l4.3-0.6l5-1.2l4.1-1.5
			l2.9-1.8l3.1-2.4l2.3-2.5l0.9-2.2l0.5-2.8l0.2-2.4l0.1-7l-0.5-8.4l-0.7-8.4l-0.5-7l-0.2-3.7l-0.1-4.3l0.3-3.6l1-3.5l1.5-4l1.6-3.3
			l2.3-3.1l3.1-3.4l2.9-2.6l2.3-1.4l2.8-1.5l2.3-1.3l2.2-1.4l2.6-1.8l1.9-1.8l2.7-5.1l2.2-6.5l1.1-5.7l-0.2-2.7l-0.7-3.1l-0.8-2.6
			l-0.4-1l-0.6-1.3l-0.6-1l-1.3-1l-1.7-1.1l-1.1-1.2l0-2.3l0.8-2.8l0.7-2.4l0.6-3.2l0.7-3.8l1.2-2.9l1.3-1.5l1.9-1.4l1.8-0.5
			l1.7,1.2l1.5,2.4l0.9,2.1l1.3,4.7l1,5.4l0.7,6l0.4,6.4l0.2,6.7l0.1,6.8l0,6.7l0,6.5l0,6.1l0.1,5.6l0.3,4.9l0.5,4.9l0.7,5.6
			l0.9,6.2l0.9,6.5l1,6.7l0.9,6.7l0.8,6.5l0.6,6.2l0.3,5.6l0,4.9l-0.7,6.6l-1.5,7.9l-1.6,7.9l-1.1,6.6l-0.7,5.2l-0.5,6.2l0.4,5.2
			l2,4.9l3.3,5.4l3.7,3.7l4.8,1.5l6,0.5l5-0.3l4.2-1.2l4.8-2.1l5.1-2.6l3.6-1.6l3.8-2.9l2.6-3.1l1.2-5l0.2-6.3l-0.6-5.3l-2-5.5
			l-3.2-6.2l-3.1-5l-1.8-1.8l-2.3-2l-1.8-1.9l-0.9-2l-0.9-2.5l-0.6-2.2l-1.1-4.5l-1.1-5.1l-1.1-5.5l-1.1-5.9l-1-6.2l-1-6.4l-1-6.5
			l-0.9-6.5l-0.9-6.4l-0.8-6.2l-0.7-6l-0.7-5.6l-0.6-5.2l-0.5-4.6l-1.4-7.7l-1.3-9.1l1.1-7.2l0.8-0.7l1.3-0.6l1.2-0.4l5.3-0.9
			l6.4-0.6l6.9-0.3l6.9-0.1l6.4,0.1l5.3,0.2l5.9,0.3l7.1,0.6l7.7,0.8l7.6,1.2l6.9,1.6l5.5,2.1l1.6,1l1.6,1.5l1,1.6l0,1l-0.4,1.2
			l-0.4,1l-2,5l-2.6,5.8l-2.9,6.3l-3.1,6.5l-3,6.3l-2.7,5.8l-2.1,5l-2.2,5.2l-2.6,6.3l-2.6,6.7l-2.2,6.4l-1.3,5.4l-0.4,5.2l0.2,6.2
			l1.1,5.1l2.7,4.5l4,4.6l4.2,2.5l5.9-0.9l6.8-3.3l5.6-3.2l1.4-0.8l2.1-1.1l2.8-1.4l3.4-1.8l4-2.1l4.6-2.4l5.2-2.8l5.7-3.1l6.3-3.4
			l6.8-3.7l7.3-4l7.8-4.4l8.3-4.7l4.6-3.5l5.4-4.5l5.5-5l4.9-5l3.7-4.5l3.1-5.7l2.8-7.2l1.5-6.3l0.1-3.8l-0.5-4.4l-1.2-3.5l-5-4.7
			l-7.1-4.3l-6.2-3.4l-5.1-2.6l-5.9-2.8l-6.5-2.9l-7-2.9l-7.2-3l0.7-1.6l0.9-1.8l0.9-1.5l0.7-1.2l0.9-1.3l1-0.9l5.5-1.3l6.9,0
			l5.9,0.5l7.5,1.3l7.6,1.4l7.6,1.4l7.4,1.5l7,1.5l6.4,1.5l5.5,1.5l4.6,1.4l3.4,1.3l2,1.2l0.5,1l0.3,1.3l0.1,1.1l-1.1,6l-2.4,7.1
			l-3,7.4l-3,6.9l-2.3,5.8l-1.8,5l-2.3,6l-2.4,6.4l-2.4,6.4l-2.1,6l-1.5,5.1l-1.3,5.6l-1.3,6.8l-1.2,7.3l-0.8,6.9l-0.4,5.8v5
			l0.4,5.9l1.2,4.8l2.4,3.6l3.4,3.7l3.4,2.5l3.5,1.1l4.4,0.5l3.8,0.1l4.8-0.8l5.6-1.6l4.6-1.7l6.7-4.1l7.6-5.4l6.4-4.7l4.9-4
			l5.7-5.2l6.1-5.2l6-4l5.6-1.6l0.9,0.3l1,0.6l0.7,0.7l0.4,1.3l0.3,1.5l0.1,1.3l-1.2,5.8l-2.2,6.7l-1.6,5.8l-0.6,3.9l-0.5,4.6
			l0.2,3.8l1.2,3.1l1.9,3.4l1.9,2.7l2.3,2.2l3.1,2.2l2.9,1.4l4.1,0.7l5,0l4.2-0.7l4.2-1.5l4.7-2.4l3.5-2.6l1.8-3.2l1.5-4.1l0.8-3.5
			l-0.3-2.9l-0.8-3.4l-0.5-2.9l-0.4-6l-0.2-7.3l-0.1-7.3l-0.2-6l-0.3-2.9l-0.4-3.4l-0.1-2.9l1.7-5.7l2.9-6.5l3.1-6.5l2.3-5.5
			l1.7-5.6l1.8-6.9l1.8-7.3l1.6-6.9l1.4-5.7l1.1-4.9l1.1-5.9l1.1-6.5l1.2-6.7l1.4-6.6l1.8-6.2l2.1-5.4l2.6-4.2l1-0.9l1.3-0.7
			l1.1-0.2l1.2,1.3l0.9,2l0.5,1.8l0.9,4.9l0.6,5.7l0.4,6.2l0.2,6.7l0,6.9l-0.1,7l-0.2,6.9l-0.3,6.7l-0.3,6.3l-0.2,5.7l-0.1,5
			l-0.1,4.6l-0.1,5l-0.1,5.4l-0.2,5.7l-0.2,6l-0.2,6.2l-0.3,6.3l-0.3,6.4l-0.3,6.5l-0.3,6.5l-0.3,6.4l-0.3,6.3l-0.3,6.2l-0.3,5.9
			l-0.3,5.7l-0.2,5.4l-0.2,5l-0.2,4.6l-0.1,4.5l0,4.8l0.1,5.2l0.1,5.5l0.1,5.7l0.2,5.9l0.2,6.1l0.2,6.3l0.2,6.3l0.1,6.4l0.1,6.4
			l0,6.4l0,6.3l-0.1,6.2l-0.2,6l-0.3,5.8l-0.5,5.6l-0.6,5.3l-0.8,5l-0.9,4.7l-1.1,4.3l-1.4,2.7l-2.1,2.9l-1.4,2.6l-1,7.1l-0.1,8.5
			l1.1,7l2.7,5.6l4.3,6l4.6,4.1l5,1.3l6.3,0.1l5.4-0.6l5.4-1.7l6.1-2.9l4.3-3.6l1.7-5.7l0.2-7.3l-0.3-6.1l-0.6-7.5l-1.3-8.7
			l-2.3-7.1l-4.9-6.2l-1.6-3.6l-0.2-1.8l0-4.5l0-5l0-5.4l0-5.7l0-6l0-6.2l0-6.4l0-6.5l0-6.6l0-6.6l0-6.5l0-6.4l0-6.2l0-6l0-5.6
			l0-5.3l0-4.9l0-4.4l0-3.9l-0.1-3.9l-0.1-4.4l-0.1-4.8l-0.1-5.2l-0.1-5.5l-0.1-5.8l-0.1-6l-0.1-6.2l-0.1-6.4l-0.1-6.5l-0.1-6.5
			l-0.1-6.6l-0.1-6.6l-0.1-6.5l0-6.4l0-6.3l0-6.1l0-5.8V431l0-5.3l0-4.9l0-4.5l0.1-5.5l0.3-6.5l0.3-7.1l0.3-7.1l0.3-6.5l0.2-5.5
			l0.2-4.6l0.2-4.9l0.2-5.2l0.2-5.5l0.2-5.7l0.2-5.9l0.2-6.1l0.2-6.3l0.2-6.4l0.3-6.5l0.3-6.6l0.3-6.7l0.3-6.7l0.3-6.7l3.1-4.4
			l3.1-5.6l2.1-4.9l1.9-6.9l1.4-8.4l0.1-7.1l-1.5-7.5l-3.1-8.5l-4.5-5.7l-5.6-1.5l-7.3,0.3l-7.3,1.5l-5.6,2.2l-5,4.3l-4.7,6.3
			l-2.7,5.9l0.1,6l1.6,7.1l1.5,6.1l0.7,2.9l0.7,3.4l0.3,2.9l-0.2,1.1l-0.4,1.2l-0.3,1l-1.1,4.6l-1.2,5.1l-1.3,5.5l-1.3,5.9l-1.4,6.2
			l-1.4,6.3l-1.5,6.4l-1.5,6.4l-1.5,6.3l-1.5,6.1l-1.4,5.9l-1.4,5.5l-1.4,5l-1.3,4.5l-1.6,5.5l-2,6.7l-2.3,6.9l-2.7,6.2l-3.1,4.7
			l-0.4,0.3l-0.6,0.3l-0.5,0.1l-2.2-0.9l-2.4-1.8l-2.1-1.5l-1.9-1l-2.2-1.1l-1.6-1.2l-0.4-0.5l-0.3-0.6l-0.2-0.6l-1-5.4l-0.7-6.3
			l-0.4-7l-0.2-7.3l0-7.4l0.1-7.1l0.2-6.4l0.3-5.5l0.6-5.2l1.1-6.1l1.4-6.7l1.5-7l1.3-7l0.9-6.6l0.3-6l-0.6-5.1l-1.9-4.2l-3.1-4.4
			l-3.3-3l-5.6-1.8l-7-0.7l-5.8,0.7l-4.4,2.8l-4.5,4.4l-2.8,4.4l-0.1,5.9l1.4,7.1l0.5,6l-2.3,6.2l-3.7,7l-3.3,6l-2.6,5.3l-3.2,6.3
			l-3.5,6.8l-3.6,6.7l-3.3,6.2l-2.9,5.2l-1.5,3.4l-1.9,3.9l-2.3,2.7l-0.5,0.1l-0.7,0l-0.5-0.1l-2.3-0.6l-2.8-0.9l-3.4-1.3l-3.9-1.5
			l-4.6-1.7l-5.2-1.8l-5.9-1.8l-6.6-1.8l-7.4-1.7l-8.2-1.5l-9.1-1.3l-10-0.9l5.3-9.5l4.4-7.6l3.3-5.2l2.2-2.5l2.8-2.8l2.5-2.2
			l6.4-4.4l7.8-4.8l6.6-4.1l3.2-1.9l3.8-2.4l2.9-2.4l4.1-5.5l4.1-7.1l2.6-6.4l1.2-6.8l0.4-8.1l-0.8-6.8l-1.7-3.6l-2.7-3.8l-3-2.4
			l-6.2-1l-7.6,0.8l-6.2,1.8l-5.8,3.9l-6.1,5.7l-4.7,5.3l-3.6,5.1l-3.9,6.5l-3.9,7l-3.7,6.6l-3.2,5.4l-3,4.4l-3.6,5.1l-4,5.6
			l-4.1,5.7l-3.9,5.5l-3.5,5.1l-2.9,4.4l-2.4,4.1l-2.5,5l-2.6,5.6l-2.8,5.9l-2.9,5.9l-3.1,5.6l-3.2,5l-3.4,4.1l-3.6,2.8l-0.5,0.1
			l-0.7,0l-0.5,0l-6.8-0.8l-8-1.3l-6.8-1.2l-6.9-0.6l-8.1-0.9l-5.7-2.7l-0.2-0.5v-0.6l0.2-0.5l3.3-4.1l5.1-4l5.9-3.8l5.8-3.4
			l4.7-2.8l3.6-2.4l4.3-2.6l3.8-1.7l2.6-0.4l3.1-0.1l2.5-0.5l5.5-3.4l5.8-5l4.4-4.8l3.9-5.4l3.9-6.8l2.2-6.2l0-3.6l-0.9-4.1
			l-1.6-3.1l-5.1-2.8l-7-1.6l-6.2-0.5l-4.8,0.7l-5.6,1.6l-4.6,1.9l-4,2.7l-4.3,3.7l-3.3,3.5l-1.6,3.4l-1.6,4.2l-1.8,3.2l-3.8,3.2
			l-5,3.1l-5.8,3l-6.1,2.9l-6,2.8l-5.4,2.6l-4.4,2.4l-4.8,3.3l-5.7,4.3l-6,4.5l-5.8,4.1l-5,2.9l-4.4,2l-5.3,1.8l-4.5,0.3l-1-0.6
			l-0.9-1l-0.6-1l-0.7-3l-0.1-3.7l0-3.1v-4.9l0.1-5.6l0.3-6.1l0.3-6.4l0.4-6.6l0.5-6.6l0.5-6.4l0.5-6.1l0.4-5.5l0.4-4.8l0.3-6.4
			l0.4-7.4l0.9-6.3l3-6.8l4.3-7.8l2.7-6.9l0.6-6.5l-0.4-7.6l-1.9-5.9l-5.1-4.1l-7.4-3.1l-6.6-1l-7.3,2.3l-7.9,4.8l-5.5,5.4l-1.3,4.3
			l-0.4,5.4l-0.1,4.5l0.3,7.1l0.6,8.3l-0.1,7.1l-0.8,4.6l-1.2,5.1l-1.5,5.5l-1.8,5.8l-2,6l-2.2,6.2l-2.2,6.2l-2.2,6.2l-2.2,6
			l-2.1,5.8l-1.9,5.4l-1.7,5l-1.4,4.5l-1.4,5l-1.5,5.7l-1.5,6.2l-1.6,6.6l-1.6,6.9l-1.6,7l-2.2,1.1l-2.8,0.9l-2.4,0.4l-3.4-0.2
			l-3.8-0.8l-2.8-1.4l-0.4-0.7l-0.3-1l-0.1-0.8l-0.5-4.9l-0.2-5.6l0-6.2l0.2-6.5l0.3-6.7l0.4-6.7l0.4-6.5l0.4-6.2l0.4-5.6l0.3-4.9
			l0.2-5.6l0.1-6.8l0.1-7.3l0.3-7.3l0.7-6.7l1.2-5.5l2.4-4.3l3.5-4.7l2.4-4.3l0.6-3.9l0-4.7l-0.6-3.9l-2.1-6.9l-3.5-7.8l-4.4-5.2
			l-6.3-1.5l-7.9,0.5l-6.5,1.8l-4.9,3.5l-4.8,5.4l-2.8,5.2l0.6,5.5l2.3,6.4l1.3,5.6l-0.4,4.9l-0.9,5.5l-1.3,6l-1.7,6.3l-1.9,6.5
			l-2,6.5l-2,6.3l-1.9,6l-1.7,5.4l-1.3,4.8l-1.2,4.8l-1.3,5.2l-1.5,5.6l-1.5,6l-1.6,6.3l-1.7,6.5l-1.7,6.7l-1.7,6.8l-1.7,6.8
			l-0.7,0.9l-1,1l-0.9,0.7l-1.5,0.3l-1.8-0.1l-1.5-0.2l-2.5,0l-3.3-0.1l-3.4-0.6l-0.2-5l-0.2-5.5l-0.2-6l-0.2-6.3l-0.2-6.5l-0.2-6.5
			l-0.2-6.5l-0.1-6.3l-0.1-6.1l0-5.7l0-5.1l0.1-4.5l0.1-4.3l0-4.8l0-5.1l0-5.5l0-5.8l0-6l0-6.2l0.1-6.4l0.1-6.4l0.2-6.5l0.2-6.5
			l0.3-6.4l0.4-6.3l0.5-6.2l0.6-6l0.7-5.7l0.8-5.4l0.9-5.1l1.1-4.7l1.2-4.2l1.4-3.7l1.4,0l1.5,0l1.6,0l1.7,0l1.8,0.1l1.9,0.1l2,0.1
			l2.1,0.1l2.2,0.1l2.4,0.1l2.5,0.1l2.6,0.1l2.7,0.1l2.8,0.1l3,0.1l3.1,0.1l3.2,0.1l3.4,0.1l3.5,0.1l3.7,0.2l3.8,0.2l3.9,0.2
			l4.1,0.2l4.2,0.2l4.4,0.2l4.6,0.2l4.7,0.2l4.9,0.2l5.1,0.2l5.2,0.2l5.4,0.2l5.6,0.2l5.8,0.2l5.9,0.2l6.1,0.2l6.3,0.2l6.5,0.2
			l6.7,0.2l6.9,0.2l7.1,0.2l7.3,0.2l7.5,0.2l7.7,0.2l7.9,0.2l8.1,0.3l8.3,0.3l8.6,0.3l8.8,0.3l9,0.3l9.2,0.3l9.5,0.3l9.7,0.3
			l9.9,0.3l10.2,0.3l10.4,0.3l10.6,0.3l10.9,0.3l10.6,3.3l6.3,3.3l3.5,2.3l5.8,2.3l7.3,1l6-0.8l5.7-4.3l5.3-6.7l3.2-6.5l0.8-6
			l-0.4-7.5l-1.4-7.4l-2.3-5.7l-0.8-1.1l-1.3-1.5l-1.8-1.8l-2.3-1.9l-2.9-1.8l-3.4-1.7l-3.9-1.3l-4.5-0.8l-5.1-0.2l-5.7,0.6
			l-6.2,1.5l-6.8,2.6l-7.4,3.8l-8,5.2l-2.8,0.1l-3.2,0.1l-3.5,0.1l-3.9,0.1l-4.2,0.1l-4.5,0.1l-4.7,0.1l-5,0.1l-5.2,0.1l-5.4,0.1
			l-5.6,0.1l-5.8,0.1l-6,0.1l-6.1,0.1l-6.2,0.1l-6.3,0.1l-6.4,0.1l-6.5,0.1l-6.5,0.1l-6.6,0.1l-6.6,0.1l-6.6,0.1l-6.5,0l-6.5,0
			l-6.4,0l-6.4,0l-6.3,0h-6.1l-6,0l-5.8,0l-5.7,0l-5.5,0l-5.3,0l-5-0.1l-4.8-0.1l-4.7-0.1l-5.1-0.1l-5.5-0.2l-5.9-0.2l-6.1-0.2
			l-6.4-0.2l-6.5-0.2l-6.6-0.3l-6.6-0.3l-6.6-0.3l-6.5-0.3l-6.4-0.3l-6.2-0.3l-5.9-0.3l-5.6-0.2l-5.2-0.2l-4.7-0.2l-4.2-0.2l0.9-4.9
			l0.8-5.3l0.7-5.7l0.6-6l0.6-6.2l0.5-6.4l0.5-6.5l0.5-6.5l0.5-6.5l0.5-6.4l0.6-6.2l0.6-6l0.7-5.7l0.8-5.3l0.8-4.9l1-4.4l1.7-5.1
			l2.5-5.9l2.8-6.4l2.8-6.4l2.3-5.9l1.3-5.1l0.6-6.9l-0.2-8.1l-1.1-6.7l-2.2-5.7l-3.3-6.7l-4.1-5.9L872.6,0L866,0.6l-7.6,3.5
			l-5.7,4.2l-4,5.7l-3.3,7.5l-1.9,6.7l0.2,7.6l1.4,9l0.9,7.6l-0.1,4.8l-0.3,5.4l-0.4,5.9l-0.5,6.2l-0.6,6.5l-0.7,6.6l-0.8,6.7
			l-0.8,6.6l-0.9,6.5l-0.9,6.2l-0.9,5.8l-0.8,5.3l-0.8,4.7l-0.8,4.9l-1,5.4l-1.2,5.9l-1.4,6.2l-1.5,6.5l-1.6,6.7L828.6,171.9
			L828.6,171.9z M812.8,379.6l1.1-9.9l1.2-8.9l1.2-7.9l1.3-7l1.3-6.1l1.3-5.3l1.2-4.5l1.2-3.8l1.1-3.1l0.4-1.2l0.5-1.3l0.7-0.9
			l1.3-0.4l1.8,0.1l0.9,1.6l0.4,13.1l0.4,10.9l0.4,8.9l0.3,7.2l0.3,5.7l0.3,4.4l0.2,3.3l0.2,2.5l0.2,1.9l-3.4,0l-3.1,0l-2.7,0.1
			l-3.1,0.2l-3.7,0.3L812.8,379.6L812.8,379.6z M808.2,405.4l11.8-0.1l6.6-0.3l3.7,0.4l1.2,0.3l1.2,0.6l0.9,1.6l-0.2,10l-0.1,9.2
			l-0.1,8.5l0,7.8l0,7.1l0,6.4v5.8l0,5.2l-0.1,4.6l-0.1,4.1l-0.2,3.6l-0.3,3.1l-0.4,2.7l-0.5,1.3l-0.7,1.6l-0.6,1.2l-0.4,0.8l-0.6,1
			l-0.6,0.7l-5.6,3.9l-7.2,3.8l-6.3,3l-6.4,3.1l-7.7,3.3l-6.8,1.9l-1.4,0l-1.6-0.3l-1.2-0.5l-0.7-0.9l-0.6-1.3l-0.3-1.2l1.4-7.3
			l1.3-7.4l1.2-7.3l1.2-7.3l1.1-7.2l1.1-7l1.1-6.8l1.1-6.6l1.1-6.3l1.1-6l1.1-5.7l1.1-5.2l1.2-4.8l1.2-4.3l1.3-3.8l1.4-3.2l1.4-2.6
			l1.5-1.9l1.6-1.2L808.2,405.4L808.2,405.4z M854.5,403.8l7.7-0.1l3.8,0.2l0.8,1.1l-0.5,1.9l-0.6,2.3l-0.5,2.1l-3,11.2l-1.7,6.9
			l-1.9,2.6l-0.3-0.1l-0.3-0.8l-0.2-1.5l-1-9.4l-1-9L854.5,403.8L854.5,403.8z M891.7,378.8l1-2.9l1.2-3.4l1.1-2.8l1.5-5.3l2-6
			l3.1-2.9l0.4,0.3l0.3,0.7l0.2,0.6l0.5,3.6l0.2,4.3l0.1,3.6l0.3,3.4l0.3,4l0.3,4.4l-2.6,0.2h-3.1l-2.6-0.2l-1.2-0.4l-1.4-0.6
			L891.7,378.8L891.7,378.8z M890.1,404.6l14.4,0.3l-0.1,13.5l-0.3,9.7l-0.4,6.7l-0.3,4.4l-0.2,2.7l0,1.8l-4.2,1.9l-4,1.8l-3.4,1.3
			l-3.4,0.9l-4,1l-3.5,0.7l1.6-7.4l1.4-6.8l1.1-5.8l1.2-6l1.4-7.3l1.4-7.3L890.1,404.6L890.1,404.6z M1112.7,414.6l1.8-1.4l1.7-1.2
			l1.5-0.8l1.3-0.4l1.6-0.3l1.3-0.1l4.9,1.5l5.5,2.6l4.6,2.4l5.5,2.8l6.3,3.5l4.9,3.7l1.1,1.5l1,1.9l0.4,1.6l-0.3,0.9l-0.7,0.9
			l-0.7,0.7l-4.2,3.6l-5.5,3.9l-6.1,3.8l-5.8,3.4l-4.9,2.8l-5.5,2.9l-6.8,3.2l-6.9,3.1l-5.8,2.4l-2.4,1.1l-2.8,1.2l-2.4,0.3
			l-0.7-0.6l-0.6-1l-0.4-0.9l0.2-2.6l0.8-3.1l0.7-2.6l2.1-7.5l2.7-8.7l2.7-7.2l2.8-5.6l3.7-6.5L1112.7,414.6L1112.7,414.6z
			M1273.9,344l3.2-2.5l2.4,0.5l1.5,4.7l-1.1,12.5l-0.7,8.8l-0.5,5.9l-0.6,3.6l-0.8,2l-0.6,0.4l-1.4,0.1l-2.8-0.5l-6.3-2.1l-4.1-1.2
			l-2.3-0.7l-1.1-0.4l-1.3-0.5l-0.9-0.7l0.2-1.6l0.8-1.9l0.8-1.6l2.2-3.5l2.9-3.9l2.4-3.4l2.7-4.3l3.1-5.2L1273.9,344L1273.9,344z
			M1243.2,402.1l2-1.3l2.5-0.3l2.2,0l5.2,0.5l6.2,1.4l5.1,1.4l3.3,1l3.8,1.4l2.9,1.7l1.6,2.1l1.5,2.8l1,2.5l0.7,4.4l0.2,5.3
			l-0.1,4.5l-0.2,4.4l-0.5,5.3l-0.9,4.4l-1.3,2.7l-1.9,3.1l-1.9,2.5l-5.4,5.6l-6.9,6l-6,4.9l-6,4.9l-7.3,5.4l-6.6,3.9l-3.6,1.4
			l-4.4,1.2l-3.7-0.1l-2.1-1.6l-1.8-2.6l-1-2.4l0.1-6l1.6-7.1l1.6-6l1.4-6.9l1.9-8.2l2.1-8.2l2.1-6.6l2.4-6.4l3.3-7.6l3.5-7.5
			L1243.2,402.1L1243.2,402.1z M933.3,99.7l-5.1,1.3l-5.7,2.8l-4.2,3.3l-2.3,4.1l-1.8,5.3l-0.8,4.7l0.7,5.9l1.9,6.8l2.4,5.4l3.1,4.3
			l4.3,4.5l4.2,3l4.1,0.8l5.1,0l4.2-0.7l4.2-2.5l4.4-3.8l3-3.8l2-5.3l1.2-6.6l0.2-5.6l-1-5.5l-2.1-6.2l-2.7-4.8l-3.3-2.7l-4.4-2.4
			l-4-1.6l-2.1-0.4l-2.6-0.2L933.3,99.7L933.3,99.7z"/>
	</g>
</g>
</svg>