<?xml version="1.0" encoding="utf-8"?>
<!-- Generator: Adobe Illustrator 26.5.0, SVG Export Plug-In . SVG Version: 6.00 Build 0)  -->
<svg version="1.1" id="Capa_1" xmlns="http://www.w3.org/2000/svg" xmlns:xlink="http://www.w3.org/1999/xlink" x="0px" y="0px"
	viewBox="0 0 2000 712.8" style="enable-background:new 0 0 2000 712.8;" xml:space="preserve">
<g id="Vlone">
	<path d="M1029.1,550.6c0.3-2.6-0.1-5.2-0.4-7.9c-1.3-10.6-2.7-21.2-5.6-31.5c-1.5-5.3-2.1-10.8-3.3-16.1c-2.5-11.1-5.5-22-7.8-33.1
		c-1.8-8.7-2.5-17.6-4.1-26.3c-0.4-2.1-1.9-5.1-3.7-5.8c-3.4-1.3-7.3-1.4-11-1.8c-7.9-0.8-10.9-6.1-7.7-13.3c3.6-8,7.4-16,10.6-24.1
		c1-2.5,1-5.6,0.7-8.4c-0.4-3.6-1.8-7.2-2.6-10.8c-2.4-10.7-5.1-21.3-6.9-32.1c-1.8-10.8-2.8-21.8-4.2-32.8c-0.2-1.7-0.7-3.4-1.1-5
		c-0.5-1.6-1.5-3.1-1.8-4.7c-1.5-9.8-0.9-19.8-5.1-29.3c-2.5-5.7-2.8-12.4-3.9-18.6c-3.1-18.2-6.1-36.5-9.3-54.8
		c-0.5-3.2-1-7.2-3-9.2c-3.6-3.5-5.4-6.9-4.6-11.8c0.2-1.2,0.2-2.6-0.2-3.7c-0.3-0.9-1.2-1.9-2.1-2.2c-2.2-0.8-4.6-1-6.8-1.7
		c-8.1-2.8-9.8-8.2-5.2-15.5c0.5-0.8,0.3-2.4,0-3.4c-2.3-6.7-2.5-13.5-1-20.3c0.3-1.3,1.5-3.5,2.1-3.4c1.5,0.2,2.9,1.2,4.2,2.2
		c1.5,1.2,2.8,2.7,4.2,4.1c0.3-0.3,0.7-0.5,1-0.8c-0.4-1.6-1.5-3.4-1.1-4.9c1.2-6.1-0.4-11.8-1.8-17.6c-1.4-5.8-2-11.8-2.3-17.8
		c-0.4-8.2,0.2-16.5,5.5-23.3c2.6-3.3,6.1-6.4,9.9-7.9c4.2-1.6,9.2-1.3,13.8-1.8c1-0.1,2.1,0,2.9-0.5c5.6-3.2,10.6-7.4,12.1-13.8
		c2.5-10,2.9-20.1-2.1-29.9c-3.7-7.2-9.3-10.3-17-10.3c-71.3,0-142.7,0-214,0c-4.2,0-8.2-0.1-12.3,2.1c-7.7,4.2-13.7,9.4-15.9,18.4
		c-1.2,5.2,0,10,1.3,14.9c2.3,9.5,6.6,17.1,15.5,21.6c1.8,0.9,3.9,1.8,5.4,3.1c2.2,2.1,3.6,5.1,6,6.9c5.4,4.1,4.7,10.7,7.1,16
		c1,2,0.7,4.6,1.2,6.9c1.1,5.2,2.3,10.5,3.6,15.7c2.4,10.3,4.9,20.5,7.2,30.8c0.7,2.9,2.3,4,5.1,3.7c4.7-0.5,5.9,2,6.7,5.6
		c0.8,3.1,1.7,6.6,3.8,8.9c3.5,3.9,4.4,8.2,4.2,13.1c-0.1,3-0.4,6.1,0,9c0.6,4.4-0.8,8.2-3.2,11.7c-3.1,4.5-2.5,9.6-1.6,14.2
		c1.7,8.2,6.4,15.1,12.2,21.2c1.3,1.4,2.5,3.6,2.3,5.3c-0.5,7.9,2.1,16.1-1.9,23.7c-0.3,0.6-0.2,1.5,0,2.2
		c1.6,7.2,3.1,14.4,4.8,21.5c2,8.7,3.9,17.5,6.3,26.1c3.4,12.5,4.4,25.7,10.5,37.5c1.5,2.9,3.1,4.6,6.5,5.2c3,0.5,6.7,1.7,8.5,3.9
		c3.8,4.5,6.3,9.8,5,16.3c-1.5,7.6-2.8,15.4-3.3,23.1c-0.8,13.3-2.6,26.7,1.9,39.9c2.3,6.6,2.9,13.8,4.4,20.6
		c2.3,10.6,4.8,21.1,7.1,31.8c1,4.6,2,5.2,5.9,2.5c3.4-2.4,5.6-1.5,6.3,2.5c0.2,0.8,0.3,1.8,0.7,2.4c3.4,4.6,6.8,9.2,10.5,13.5
		c2.7,3.1,4.1,6.3,2,10.1c-1.8,3.4-4.2,6.4-6.2,9.7c-2.7,4.1-5.8,8.1-4.7,13.6c0.7,3.1,1.4,6.2,2.1,9.3c1.8,7.9,3.5,15.8,5.3,23.7
		c2.6,11.3,5.4,22.6,8.2,33.9c1.9,7.7,3.9,15.3,5.7,22.9c1.3,5.5,2.3,11,3.4,16.5c2.1,9.8,4.3,19.5,6.1,29.3c0.5,2.4,1.3,3.4,3.6,3
		c4.3-0.7,6.5,2,9,4.8c3.4,3.8,3.3,8.5,2,12.4c-2.4,7.3-1.8,14,1,20.8l0,0c4.5,0,9,0,13.6-0.1c3.7-0.3,7.4-1,11.1-1
		c14.8-0.2,29.6-0.2,44.4-0.3c5.3,0,10.8,0.7,15.7-0.5c5.6-1.5,10.8-4.8,16.1-7.3c0.6-0.3,1-1.1,1.2-1.8c2.5-9.3,6-18.3,4.8-28.2
		c-0.3-2.4-0.2-4.8,0-7.2c0.2-4.4-0.9-8.4-3.7-11.9c-3.4-4.3-3.5-8.1-0.8-13.2c2.9-5.4,7.2-8.8,11.9-11.8c3.1-2,3.4-4.1,2.2-7.1
		c-2.3-5.6-1.4-10.8,1.3-16.2c1.9-3.7,3.3-7.9,3.8-12c1-7.6-1.1-14.8-4-21.9C1031.3,565.4,1028.4,558.4,1029.1,550.6z M848.7,48.2
		c0,5.2-4.9,12.6-9.9,14.3c-1.2,0.3-3.2-0.1-4.1-0.9c-5-4.7-11.4-8.3-12.9-15.9c-1.1-5.8-0.6-11.3,2.4-16.4c0.7-1.3,1-2.8,1.8-4
		c0.9-1.3,2.1-2.4,3.4-3.1c0.4-0.2,1.8,1.3,2.6,2.1c3.7,3.9,7.5,7.8,11.1,11.8C846.1,39.4,848.9,43,848.7,48.2z M952.6,487
		c0.1,2.7-1.6,3.9-4.2,3.6c-2.1-0.2-4.4,0.4-6.6,0.5c-1.2,0-2.7-0.2-3.7-0.8c-5.9-4-7.8-10.1-8.5-16.7c-0.1-0.7,0-1.5,0-2.7l0,0
		c-1-4.3,1.7-7.9,4.3-11.1c2.6-3.2,3-6.6,3.4-10.3c0.2-1.8,1.4-3.4,2.1-5.1c1.9,1.1,4.5,1.7,5.7,3.4c3.6,4.9,2.5,10.4,0.6,15.7
		c-1,2.8-2.4,4.6,1.3,7.2c4.2,3,7.2,7.7,5.4,13.7C952.2,485.2,952.6,486.1,952.6,487z"/>
	<path d="M1269.3,24.6c0-0.2-0.6-0.5-0.9-0.5c-5-0.4-6.1-4.2-7.2-8.2c-1-3.4-2.2-6.9-4-10c-1-1.7-3.1-3.6-4.9-3.8
		c-8.1-0.9-16.2-1.6-24.3-1.6c-22.1-0.2-44.2,0-66.2-0.1c-5.5,0-11-0.2-16.4-0.3c-2.1-0.1-3.4,0.5-3.5,2.9c-0.1,2.1-0.5,4.3-0.8,6.4
		c-0.5,3.4-5,8.2-8,8.6c-2.8,0.3-8.1-4-9-7.4c-0.8-3.2-0.6-7.9-2.6-9.3c-2.4-1.7-6.7-0.6-10.2-0.7c-0.8,0-1.5-0.2-2.3-0.2
		c-9.2,0.4-18.5,0.4-27.6,1.4c-6.9,0.7-13,3.9-16.1,10.7c-1.5,3.3-2.1,7.1-2.9,10.7c-2,9.1-0.7,17.9,3.1,26.4c1.6,3.4,4,6.6,8,7.2
		c11,1.7,20.2,7.2,28.7,13.8c5,3.9,9,9,13.1,13.9c5.6,6.8,9.8,14.7,10,23.6c0.2,11.5,1.5,22.9-1.9,34.4c-3.4,11.6-4.4,23.9-9.4,35.1
		c-1.3,3.1-2,6.4-2.8,9.7c-2,8.4-3.8,16.7-5.8,25.1c-2,8.2-4.4,16.4-6.4,24.6c-1.8,7.4-3.3,14.9-5.2,22.3c-2,7.1-4.6,14-6.6,21.1
		c-2.1,7.4-3.9,14.7-5.5,22.2c-1.3,6.1-4.3,12.2-0.3,18.5c0.8,1.2,0.3,3.2,0.3,4.8c0.2,3.8-1.5,5.6-5.4,6.1
		c-1.4,0.2-3.6,1.9-3.7,3.2c-0.7,5.2-0.5,10.4-1,15.6c-0.2,2.6-0.6,5.2-1.5,7.5c-1,2.4-2.9,4.3-4,6.6c-2.8,5.9-5.3,11.8-7.9,17.7
		c-2.1,4.8-3.3,9.7-1.9,14.9c1.8,6.6,3.4,13.3,5,20c0.6,2.6,1.1,5.2,1.5,7.9c1,6.5,1.7,13.1,2.9,19.6c2.4,12.8,5,25.5,7.6,38.3
		c1.2,5.8,2.6,11.5,4,17.3l0,0c0.5,0,1,0,1.3,0c2.5-8.4,5.2-16.7,7.6-25.1c2.2-7.7,3.9-15.4,6.1-23.1c3.9-13.3,8.2-26.5,12.1-39.7
		c3.1-10.4,5.7-21,8.9-31.3c2.9-9.4,4.6-18.9,4.8-28.7c0-2.7,0.9-5.4,1.8-8c0.8-2.6,2.3-4.9,3.1-7.5c4.8-13.8,7-28.1,7.9-42.7
		c0.1-1.6,1.9-3.8,3.4-4.6c2.1-1.1,2.6-2.3,2.4-4.3c-0.4-4.3-0.2-8.4,3.4-11.7c0.9-0.8,1.1-2.8,1.1-4.2c0.3-8.5,0.3-17,0.7-25.5
		c0.1-1.8,0.9-4.3,2.2-5.2c5.1-3.6,7.4-8.5,8.7-14.3c1.5-6.6,3.7-12.9,5.5-19.5c1.7-6.4,3.1-12.8,4.9-19.2
		c2.3-8.2,5.2-16.2,7.1-24.4c3-12.7,8-24.5,13.7-36.2c2.6-5.3,6-10.4,5.7-16.8c-0.1-2.6,0.4-5.3,1.3-7.7c2.2-6.1,3.6-12.6,10-16.1
		c3-1.6,6.1-3.1,8.8-5.1c3.9-2.9,8.8-5.2,9.8-10.9c0.9-4.6,1.6-9.3,3-13.8c0.8-2.6,2.6-5.8,4.8-6.9c3.3-1.5,5.6,1.4,7.4,4.2
		c0.6,0.9,1.3,2,2.3,2.5c2.9,1.8,4.6,5.1,9,5.3c8.2,0.4,13.5-4.3,17.9-9.6c3.3-4,4.5-9.5,6.9-14.2
		C1273.3,31.7,1269.6,28.5,1269.3,24.6z"/>
</g>
</svg>