<?xml version="1.0" encoding="utf-8"?>
<!-- Generator: Adobe Illustrator 26.5.0, SVG Export Plug-In . SVG Version: 6.00 Build 0)  -->
<svg version="1.1" id="Capa_1" xmlns="http://www.w3.org/2000/svg" xmlns:xlink="http://www.w3.org/1999/xlink" x="0px" y="0px"
	viewBox="0 0 2000 712.8" style="enable-background:new 0 0 2000 712.8;" xml:space="preserve">
<g id="Cactus_Jack">
	<g id="Cactus_Jack_00000141455263205519682890000004131596290752247957_">
		<g transform="translate(0.000000,800.000000) scale(0.100000,-0.100000)">
			<path d="M9721.8,7976c-11.8-14.8-20.7-33.5-20.7-42.3s17.7-88.6,39.4-178.2c21.7-89.6,39.4-170.4,39.4-180.2
				c0-31.5,29.5-75.8,54.2-81.7c31.5-7.9,73.9,18.7,73.9,47.3c0,10.8-9.8,35.5-21.7,55.1c-13.8,22.6-20.7,49.2-19.7,79.8
				c1,55.1-31.5,219.6-53.2,267.9c-8.9,19.7-26.6,41.4-39.4,47.3C9742.5,8004.5,9745.5,8005.5,9721.8,7976z"/>
			<path d="M10915.4,7888.3c-11.8-7.9-23.6-29.5-27.6-47.3c-11.8-55.1-48.2-106.3-200.9-277.7c-148.7-168.4-165.5-196-132.9-222.5
				c26.6-22.6,68.9,12.8,279.7,230.4c174.3,181.2,197,207.8,197,237.3c0,32.5-22.7,61.1-66,83.7
				C10938,7906,10941,7906,10915.4,7888.3z"/>
			<path d="M8585.4,7718.9c-3.9-3-6.9-22.6-6.9-43.3c0-35.5,6.9-43.3,116.2-142.8c134.9-122.1,297.4-247.2,332.8-256
				c37.4-9.9,72.9,9.9,72.9,40.4c0,19.7-27.6,46.3-144.8,139.8c-80.7,63-182.2,149.7-225.5,192c-63,60.1-86.7,76.8-109.3,76.8
				C8605.1,7725.8,8588.4,7722.9,8585.4,7718.9z"/>
			<path d="M9961.1,6940c-130-84.7-231.4-230.4-265.9-382.1c-21.7-99.5-15.8-255.1,12.8-319.1c51.2-116.2,181.2-148.7,396.8-98.5
				c99.5,22.6,134.9,42.3,108.3,59.1c-29.5,18.7-94.5,21.7-196,9.9c-58.1-6.9-122.1-9.9-142.8-5.9
				c-81.7,15.8-121.1,93.5-111.3,222.5c14.8,190.1,114.2,352.5,271.8,443.1c61.1,35.5,69.9,51.2,50.2,89.6
				C10068.5,6988.2,10026.1,6981.3,9961.1,6940z"/>
			<path d="M9818.4,5849.9c-36.4-19.7-38.4-31.5-26.6-130c8.9-70.9,6.9-135.9-10.8-361.4l-21.7-274.7l24.6-25.6l25.6-24.6l20.7,19.7
				c20.7,21.7,22.7,33.5,48.2,348.6c12.8,162.5,29.5,284.6,41.4,308.2c4.9,8.9,14.8,16.7,21.7,16.7c22.7,0,71.9-88.6,103.4-183.2
				c36.4-111.3,40.4-137.9,20.7-132.9c-33.5,9.9-96.5,4.9-111.3-7.9c-21.7-17.7-20.7-53.2,2-73.9c9.8-8.9,56.1-23.6,103.4-32.5
				l85.7-16.7l44.3,23.6c54.2,29.5,61.1,39.4,39.4,51.2c-61.1,34.5-82.7,67-120.1,183.2c-45.3,142.8-90.6,234.4-139.8,286.6
				c-33.5,35.4-43.3,40.4-81.7,40.4C9863.7,5863.6,9832.1,5857.7,9818.4,5849.9z"/>
			<path d="M8442.6,4844.4c-38.4-17.7-30.5-106.3,13.8-140.8c24.6-18.7,24.6-18.7,92.6,4.9c37.4,12.8,88.6,23.6,112.3,23.6h43.3
				l29.5-70.9c16.7-39.4,57.1-127,89.6-195c33.5-68,60.1-135.9,60.1-150.7c0-37.4-45.3-82.7-92.6-90.6c-28.5-5.9-47.3-1-91.6,19.7
				c-53.2,26.6-56.1,26.6-68.9,9.9c-6.9-10.8-12.8-32.5-12.8-50.2c0-25.6,7.9-38.4,36.4-60.1c30.5-23.6,45.3-27.6,95.5-26.6
				c109.3,1,232.4,83.7,232.4,155.6c0,37.4-27.6,122.1-97.5,292.5c-27.6,67.9-50.2,128-50.2,133.9s16.7,6.9,47.3,2
				c25.6-3.9,69.9-7.9,97.5-7.9c45.3-1,54.2,2,68,24.6c15.8,23.6,15.8,25.6-2,43.3c-21.7,20.7-195,52.2-378.1,68.9
				c-62,4.9-134.9,11.8-162.5,14.8C8478.1,4847.4,8449.5,4847.4,8442.6,4844.4z"/>
			<path d="M10794.3,4809c-24.6-40.4-24.6-54.2,1-124.1c51.2-139.8,77.8-288.5,77.8-436.2c0-61.1,3.9-79.8,20.7-101.4
				c25.6-32.5,52.2-32.5,83.7-1l24.6,24.6l-20.7,34.5l-21.7,34.5h25.6c12.8,0,80.8-11.8,150.7-25.6
				c241.3-49.2,436.2-80.7,442.2-70.9c6.9,11.8,21.7,3-133.9,75.8c-87.7,41.4-172.3,71.9-251.1,92.6c-65,15.8-125.1,35.5-132.9,42.3
				c-25.6,24.6,17.7,61.1,172.3,147.7c155.6,86.6,182.2,108.3,182.2,149.7c0,24.6-43.3,80.7-62,80.7c-5.9,0-30.5-21.7-55.1-49.2
				c-47.3-51.2-334.8-232.4-345.6-218.6c-3.9,3.9-20.7,73.9-38.4,154.6c-35.4,162.5-44.3,188.1-76.8,208.8
				C10815.9,4841.5,10813.9,4840.5,10794.3,4809z"/>
			<path d="M9376.2,4743c-14.8-28.5-11.8-91.6,5.9-134.9c25.6-61.1,22.7-124.1-8.9-164.4c-43.3-57.1-49.2-81.7-35.4-154.6
				c14.8-80.8,39.4-147.7,56.1-147.7c5.9,0,28.5,17.7,50.2,39.4c20.7,21.7,42.3,39.4,46.3,39.4c4.9,0,19.7-8.9,33.5-19.7
				c53.2-41.4,88.6-14.8,88.6,65c0,46.3,11.8,67,54.2,91.6c46.3,27.6,43.3,47.3-9.8,69.9c-46.3,19.7-73.9,61.1-73.9,109.3
				c0,26.6-37.4,92.6-95.5,169.4c-35.5,45.3-49.2,56.1-71.9,56.1C9396.9,4761.7,9383.1,4754.8,9376.2,4743z"/>
			<path d="M9873.5,4710.5c-24.6-28.5-59.1-80.7-76.8-116.2c-28.5-57.1-31.5-73.9-34.5-168.4c-3-90.6-1-111.3,17.7-155.6
				c30.5-68.9,82.7-114.2,151.7-130c50.2-10.8,63-9.9,150.7,13.8c53.2,13.8,115.2,27.6,137.9,31.5c21.7,3.9,47.3,11.8,56.1,17.7
				c14.8,10.8,14.8,13.8,1,34.5c-19.7,27.6-50.2,27.6-185.1,2c-80.8-15.8-109.3-17.7-131-8.9c-90.6,33.5-145.7,170.4-111.3,275.7
				c15.8,48.2,41.4,68,82.7,61.1c18.7-3,45.3-2,60.1,1c24.6,6.9,25.6,9.9,20.7,48.2c-11.8,81.7-26.6,114.2-56.1,130
				c-15.8,7.9-30.5,14.8-33.5,14.8C9921.8,4761.7,9899.1,4738,9873.5,4710.5z"/>
			<path d="M9889.3,3920.7c-11.8-17.7-20.7-39.4-20.7-47.3c0-8.9,14.8-62,33.5-118.2c18.7-57.1,39.4-131,46.3-164.4
				c12.8-58.1,11.8-63-5.9-75.8c-10.8-7.9-42.3-13.8-75.8-13.8c-48.2,0-62-3.9-81.7-24.6c-31.5-30.5-30.5-38.4,3-64
				c23.6-19.7,34.5-21.7,94.5-16.7c99.5,8.9,101.4,6.9,109.3-118.2c6.9-99.5,26.6-180.2,44.3-180.2c3.9,0,15.8,11.8,24.6,26.6
				c14.8,22.6,16.7,41.4,11.8,132.9c-4.9,100.4-3.9,108.3,15.8,130c11.8,12.8,40.4,27.6,63,34.5c52.2,14.8,90.6,44.3,75.8,60.1
				c-5.9,5.9-42.3,13.8-81.7,16.7c-38.4,3-76.8,10.8-84.7,16.7c-9.8,6.9-19.7,50.2-30.5,129c-18.7,149.7-39.4,249.1-54.2,267.9
				c-6.9,7.9-24.6,20.7-39.4,28.5C9909.9,3953.2,9909,3953.2,9889.3,3920.7z"/>
			<path d="M10137.4,2731.1c-4.9-6.9-14.8-57.1-20.7-111.3c-16.7-133.9-49.2-290.5-67-317.1c-7.9-12.8-25.6-29.6-39.4-39.4
				c-23.6-14.8-28.5-14.8-51.2-2c-14.8,7.9-36.4,29.6-48.2,47.3c-18.7,28.6-21.7,41.4-16.7,81.7c8.9,66-10.8,134.9-43.3,146.7
				c-33.5,12.8-47.3,5.9-67-32.5c-12.8-25.6-15.8-48.2-10.8-117.2c3-46.3,11.8-99.5,19.7-118.2c35.5-84.7,111.3-135.9,198.9-136.9
				c64,0,107.3,28.5,151.7,102.4c51.2,84.7,70.9,168.4,76.8,321c4.9,126,3.9,133.9-16.7,160.5
				C10180.8,2744.9,10153.2,2750.8,10137.4,2731.1z"/>
			<path d="M10081.3,1940.3c-48.2-16.7-130-95.5-154.6-147.7c-23.6-50.2-23.6-126,0-177.3c10.8-24.6,51.2-70.9,104.4-118.2
				c153.6-139.8,289.5-273.8,317.1-312.2c31.5-47.3,34.5-92.6,4.9-116.2c-11.8-9.8-79.8-36.4-151.7-59.1
				c-150.7-48.2-241.3-59.1-344.7-39.4c-60.1,11.8-69.9,10.8-82.7-2c-21.7-21.7-9.8-52.2,31.5-77.8c31.5-18.7,44.3-20.7,149.7-16.7
				c94.5,3.9,142.8,11.8,267.9,45.3c231.4,62,275.7,88.6,275.7,161.5c0,45.3-57.1,159.5-109.3,221.6
				c-23.6,27.6-89.6,90.6-146.7,138.9c-114.2,96.5-191,175.3-207.8,212.7c-5.9,12.8-8.9,36.4-4.9,50.2c5.9,22.7,10.8,25.6,28.5,19.7
				c11.8-3.9,38.4-8.9,59.1-11.8c34.5-4.9,37.4-3,52.2,31.5c34.5,82.7,26.6,179.2-16.7,201.9
				C10131.5,1957.1,10128.6,1957.1,10081.3,1940.3z"/>
		</g>
	</g>
</g>
</svg>
