<?xml version="1.0" encoding="utf-8"?>
<!-- Generator: Adobe Illustrator 26.5.0, SVG Export Plug-In . SVG Version: 6.00 Build 0)  -->
<svg version="1.1" id="Capa_1" xmlns="http://www.w3.org/2000/svg" xmlns:xlink="http://www.w3.org/1999/xlink" x="0px" y="0px"
	viewBox="0 0 2000 712.8" style="enable-background:new 0 0 2000 712.8;" xml:space="preserve">
<style type="text/css">
	.st0{fill-rule:evenodd;clip-rule:evenodd;}
</style>
<g id="Gucci">
	<g id="layer1_00000161601561364044141660000011795080024464333491_" transform="translate(0 -169.848)">
		<path id="path855_00000096762220746280986650000000344724411796990902_" class="st0" d="M1514.4,526.2
			c0,196.8-159.6,356.4-356.4,356.4c-56.7,0-110.1-13-158.3-37.1C952.1,869,898,882.6,842,882.6c-196.8,0-356.4-159.6-356.4-356.4
			S645.2,169.8,842,169.8c56.7,0,110.1,13,157.7,36.5c47.6-23.5,101.6-36.5,158.3-36.5C1354.8,169.8,1514.4,329.5,1514.4,526.2z
			M1444,526.2c0-157.7-128.4-286-286-286c-30,0-59.3,4.6-86,13c54.7,45.6,94.5,106.8,114,177.2h-73.6
			c-20.7-58.7-60-109.1-112.1-143.3c-51.5,33.9-90.6,84.1-111.4,143.3h-73.6c19.3-69.4,59-131.4,114-177.9
			c-28.1-8.7-57.3-13-86.7-13c-157.7,0-286,128.4-286,286s128.4,286,286,286c30,0,58.6-4.6,85.4-13C857,739.3,810.7,652,803.6,554.3
			H973V624l-82.8,1.3c21.5,57.3,59.9,105.6,110.1,138.8c50.2-33.2,88.6-81.4,110.1-138.8l-82.8-1.3v-69.7h169.4
			c-7.8,97.7-54.7,184.4-125.8,243.7c27.4,8.5,56.7,13.7,86.7,13.7C1316.3,812.3,1444,684.6,1444,526.2z"/>
	</g>
</g>
</svg>
