<?xml version="1.0" encoding="utf-8"?>
<!-- Generator: Adobe Illustrator 26.5.0, SVG Export Plug-In . SVG Version: 6.00 Build 0)  -->
<svg version="1.1" id="Capa_1" xmlns="http://www.w3.org/2000/svg" xmlns:xlink="http://www.w3.org/1999/xlink" x="0px" y="0px"
	viewBox="0 0 2000 712.8" style="enable-background:new 0 0 2000 712.8;" xml:space="preserve">
<style type="text/css">
	.st0{fill-rule:evenodd;clip-rule:evenodd;}
</style>
<g id="The_North_Face">
	
		<g id="Symbols_00000044898602408930477470000017458705883458503809_" transform="matrix(5.5461919,0,0,5.5461919,46.768482,130.12173)">
		<g id="TNF-Logo-No-R_Regular-2018_BLACK_00000031177468861904471520000000999594492096522382_">
			<g id="Group-5_00000028313612587495660990000014405245007063287974_" transform="translate(16.095929)">
				<polyline id="Fill-1_00000042694729166325981880000015429152670780198274_" class="st0" points="117,16.3 108.8,16.3 
					108.8,-16.4 96.9,-16.4 96.9,-23.5 128.9,-23.5 128.9,-16.4 117,-16.4 117,16.3 				"/>
				<polyline id="Fill-3_00000109713005277628678780000007191990565632310409_" class="st0" points="140,-1.6 140,16.3 131.8,16.3 
					131.8,-23.5 140,-23.5 140,-8.4 155.3,-8.4 155.3,-23.5 163.5,-23.5 163.5,16.3 155.3,16.3 155.3,-1.6 140,-1.6 				"/>
				<polyline id="Fill-4_00000007429143684408918660000004767066300934740125_" class="st0" points="195.3,-16.4 174.7,-16.4 
					174.7,-8.1 192.8,-8.1 192.8,-1.1 174.7,-1.1 174.7,9.3 195.3,9.3 195.3,16.3 167,16.3 167,-23.5 195.3,-23.5 195.3,-16.4 				
					"/>
			</g>
			<polyline id="Fill-6_00000117651561119691269810000009011919950115399358_" class="st0" points="57.8,20.3 65.5,20.3 65.5,60.1 
				57.3,60.1 41.2,31.7 41.1,31.7 41.1,60.1 33.5,60.1 33.5,20.3 42.1,20.3 57.7,48 57.8,48 57.8,20.3 			"/>
			<path id="Fill-7_00000060744968730681205090000015269835253817308595_" class="st0" d="M88.1,54.1c4.4,0,10.7-2.8,10.7-13.9
				c0-11.1-6.2-13.9-10.7-13.9c-4.4,0-10.7,2.8-10.7,13.9C77.4,51.3,83.7,54.1,88.1,54.1 M88.1,19.3c5.2,0,18.9,2.3,18.9,20.9
				c0,18.6-13.7,20.9-18.9,20.9c-5.2,0-18.9-2.3-18.9-20.9C69.2,21.6,82.9,19.3,88.1,19.3"/>
			<polyline id="Fill-8_00000176755084885233477570000002221299440387142809_" class="st0" points="164.8,60.1 156.6,60.1 
				156.6,27.4 144.8,27.4 144.8,20.3 176.7,20.3 176.7,27.4 164.8,27.4 164.8,60.1 			"/>
			<polyline id="Fill-9_00000104692025288431807800000009504583026547658368_" class="st0" points="187.9,42.3 187.9,60.1 
				179.7,60.1 179.7,20.3 187.9,20.3 187.9,35.4 203.2,35.4 203.2,20.3 211.4,20.3 211.4,60.1 203.2,60.1 203.2,42.3 187.9,42.3 			
				"/>
			<path id="Fill-10_00000029766096713467617120000009152174353459695547_" class="st0" d="M128,37.8c4.3,0,6.3-1.5,6.3-5.4
				c0-2.1-0.9-5.2-5.7-5.2h-10.2v10.6H128z M110.4,20.3h19.9c10.4,0,12.4,7.8,12.4,11.2c0,4.4-2.2,8.1-6.1,9.5c3.2,1.4,5,2.6,5,10.1
				c0,5.8,0,7.3,1.7,7.9v1h-9.1c-0.5-1.9-0.9-3.9-0.9-8c0-5.4-0.3-7.5-6.4-7.5h-8.5v15.5h-8L110.4,20.3z"/>
			<polyline id="Fill-11_00000023969793530485829870000008903986088580845742_" class="st0" points="94.3,103.9 86.1,103.9 
				86.1,64.1 114.1,64.1 114.1,71.2 94.3,71.2 94.3,80.1 111.6,80.1 111.6,87.2 94.3,87.2 94.3,103.9 			"/>
			<path id="Fill-12_00000183211067266235628160000004404239163184420490_" class="st0" d="M122.7,88.8h10l-4.9-15.7h-0.1
				L122.7,88.8z M117.8,103.9h-8.6l14-39.7h9.5l13.8,39.7h-8.9l-2.5-8.2h-14.5L117.8,103.9z"/>
			<path id="Fill-13_00000013914135106428535600000012071983669198501006_" class="st0" d="M171.6,77.3c-0.6-2.4-1.9-6.9-8.7-6.9
				c-3.9,0-9.8,2.7-9.8,13.9c0,7.1,2.8,13.6,9.8,13.6c4.5,0,7.7-2.6,8.7-7.5h8.2c-1.6,8.6-7.2,14.7-17.1,14.7
				c-10.5,0-17.9-7.1-17.9-20.8c0-13.9,7.9-21,18.1-21c11.7,0,16.5,8.2,16.9,14H171.6"/>
			<g id="Group-17_00000132081543631418556000000000628545726319277458_" transform="translate(30.273562)">
				<polyline id="Fill-14_00000036222052002724088640000010852348075207466880_" class="st0" points="181.1,71.2 160.5,71.2 
					160.5,79.5 178.7,79.5 178.7,86.6 160.5,86.6 160.5,96.9 181.1,96.9 181.1,103.9 152.8,103.9 152.8,64.1 181.1,64.1 181.1,71.2 
									"/>
				<path id="Fill-16_00000061461887745800211780000012823437658708384676_" class="st0" d="M280,68.6c0-50.9-40.7-92.1-91-92.1
					h-1.8v39.7h1.8c29.3,0,53,23.8,53.4,53.3h0v34.3H280V68.6"/>
			</g>
			<path id="Fill-18_00000112629164212067121090000006883948668285539464_" class="st0" d="M219.2,64.1h-1.8v39.7h18.8V81.4
				C236.3,71.9,228.7,64.1,219.2,64.1"/>
			<path id="Fill-19_00000120559020466856128810000007197778517559962282_" class="st0" d="M268.6,70c-0.1-27.5-22.1-49.6-49.3-49.7
				h-1.8v39.7h1.8c11.6,0,21.1,9.5,21.1,21.3v22.5h28.3V70"/>
		</g>
	</g>
</g>
</svg>