<?xml version="1.0" encoding="utf-8"?>
<!-- Generator: Adobe Illustrator 26.5.0, SVG Export Plug-In . SVG Version: 6.00 Build 0)  -->
<svg version="1.1" id="Capa_1" xmlns="http://www.w3.org/2000/svg" xmlns:xlink="http://www.w3.org/1999/xlink" x="0px" y="0px"
	viewBox="0 0 2000 712.8" style="enable-background:new 0 0 2000 712.8;" xml:space="preserve">
<style type="text/css">
	.st0{fill-rule:evenodd;clip-rule:evenodd;}
</style>
<g>
	<g id="layer1_00000111149567866790620040000014377782038214090382_" transform="translate(-291.84746,-593.15508)">
		
			<g id="g12167_00000018223532571706734380000017711576773608072080_" transform="matrix(3.0314991,0,0,-3.0314991,125.02367,2886.5171)">
			<g>
				<g id="g12169_00000042015088228642471890000011403143358255061661_">
					<g id="g12175_00000151516803473624832280000001156169237149872800_" transform="translate(55.36,702.6114)">
						<path id="path12177_00000115496918968795485280000002695733200008070055_" d="M115-179.9h9.6v19.1c0,3.4,0,7.6,1.7,10.1
							c1.7,2.7,4.8,3.5,6.6,3.5c8.1,0,8.1-9.6,8.1-12.9v-19.8h9.6v21.7c0,3.1,0,9.8-3.7,14.2c-3.3,4.1-8.6,5.6-12.1,5.6
							c-6.1,0-9.4-3.3-11-4.9v3.5H115V-179.9"/>
					</g>
					<g id="g12179_00000073706987588746985160000009518594568211278774_" transform="translate(73.5474,706.2231)">
						<path id="path12181_00000083067504368035208330000007656779870316760204_" class="st0" d="M176.2-167.8c0.3,1.3,0.6,3,0.6,4.8
							c0,10.1-8,21.1-20.8,21.1c-12.4,0-21.1-10.4-21.1-21.8c0-11.7,9.3-21.3,21.2-21.3c9.4,0,17.1,6.7,19.4,14h-10.1
							c-1.8-3.3-5-5.1-9.2-5.1c-6.9,0-10.6,5.6-11.1,8.2H176.2z M144.7-160c1.8,7.5,7.8,9.4,11.4,9.4c4.8,0,9.8-3,10.8-9.4H144.7"/>
					</g>
					<g id="g12183_00000130643086359658897730000011733173801647421593_" transform="translate(76.5066,702.6114)">
						<path id="path12185_00000142164657379342066980000005506992921297459130_" d="M186.2-179.9h5.9l7.6,26h0.1l7.5-26h5.9
							l14.7,40.1h-10.3l-7.4-24.5h-0.1l-6.5,24.5H196l-6.6-24.5h-0.1l-7.3,24.5h-10.3L186.2-179.9z"/>
					</g>
					<g id="g12187_00000145030276023479982800000008458120972918734743_" transform="translate(90.3468,702.6114)">
						<path id="path12189_00000142896494741918850740000011619062805529055621_" class="st0" d="M232.7-179.9h8.8v4.8
							c2.4-2.7,5.8-6.1,13.5-6.1c14.7,0,20,13.5,20,21.6c0,10.6-8,21.3-20.2,21.3c-4.5,0-9.2-1.7-12.5-5v17l-9.6,0V-179.9z
							M241.8-159.3c0,5.9,4.6,12.1,11.9,12.1c6.1,0,11.7-4.7,11.7-12.5c0-7.8-5.3-12.7-11.6-12.7
							C248.2-172.4,241.8-168.2,241.8-159.3"/>
					</g>
					<g id="g12191_00000047779641722244389570000010131940079048086415_" transform="translate(110.3256,711.808)">
						<path id="path12193_00000102532286673782783130000009498712711248488865_" class="st0" d="M300-149h-8.8v-5.1H291
							c-0.3,0.6-5.1,6.5-13.3,6.5c-11.1,0-20.1-8.9-20.1-21.2c0-13.4,9.2-21.6,19.5-21.6c5.1,0,11,2.7,14,6.3v-5h8.8V-149z
							M290.8-168.9c0-7.4-5.1-12.6-11.7-12.6c-6.9,0-11.9,5.6-11.9,12.4c0,6,4.1,12.8,11.9,12.8
							C284.8-156.4,290.8-160.6,290.8-168.9"/>
					</g>
					<path id="path12195_00000121975340137729667280000014449441999743676601_" d="M425,576.2h-9.6v-53.5h9.6V576.2z"/>
					<g id="g12197_00000111872340627591402930000004123710498270461854_" transform="translate(124.0712,711.808)">
						<path id="path12199_00000019643447268618877380000005958003198933930168_" class="st0" d="M346.2-149h-8.8v-5.1h-0.1
							c-0.3,0.6-5.1,6.5-13.3,6.5c-11.1,0-20.1-8.9-20.1-21.2c0-13.4,9.2-21.6,19.5-21.6c5.1,0,11,2.7,14,6.3v-5h8.8L346.2-149z
							M337.1-168.9c0-7.4-5.1-12.6-11.7-12.6c-6.9,0-11.9,5.6-11.9,12.4c0,6,4.1,12.8,11.9,12.8
							C331.1-156.4,337.1-160.6,337.1-168.9"/>
					</g>
					<g id="g12201_00000083770975038621149430000009680231745311591072_" transform="translate(125.2441,702.6114)">
						<path id="path12203_00000148626704371846948440000007678132010759196073_" d="M350.2-179.9h9.6v19.1c0,3.4,0,7.6,1.7,10.1
							c1.7,2.7,4.9,3.5,6.6,3.5c8.1,0,8.1-9.6,8.1-12.9v-19.8h9.6v21.7c0,3.1,0,9.8-3.7,14.2c-3.3,4.1-8.6,5.6-12.1,5.6
							c-6.1,0-9.4-3.3-11-4.9v3.5h-8.9V-179.9"/>
					</g>
					<g id="g12205_00000039855438850508279450000009364940394471837106_" transform="translate(141.2422,705.6097)">
						<path id="path12207_00000082363361732648401890000004974282616048918170_" d="M404-169.8c-2.5-4.1-5.7-5.6-8.9-5.6
							c-7.2,0-12.1,5.7-12.1,12.6c0,8.2,5.8,12.6,11.6,12.6c5.9,0,8.2-3.8,9.3-5.9h10.9c-4.1,12.4-15.1,14.7-20.2,14.7
							c-11.1,0-21.3-9-21.3-21.3c0-13.3,11.1-21.6,21.3-21.6c9.4,0,16.8,5.4,20.1,14.4H404"/>
					</g>
					<g id="g12209_00000023974468773094410600000005474629800640274871_" transform="translate(153.5302,706.2231)">
						<path id="path12211_00000156547390977631525400000004589497102908590500_" class="st0" d="M445.3-167.8c0.3,1.3,0.6,3,0.6,4.8
							c0,10.1-8,21.1-20.7,21.1c-12.4,0-21.1-10.4-21.1-21.8c0-11.7,9.3-21.3,21.2-21.3c9.4,0,17.1,6.7,19.4,14h-10.1
							c-1.8-3.3-5-5.1-9.3-5.1c-6.9,0-10.6,5.6-11.1,8.2H445.3z M413.9-160c1.8,7.5,7.8,9.4,11.4,9.4c4.8,0,9.8-3,10.8-9.4H413.9"/>
					</g>
					<g id="g12213_00000046309031860764914700000000792680617437300154_" transform="translate(92.8631,733.0946)">
						<path id="path12215_00000173124218684082072400000001147176628447538570_" class="st0" d="M241.2-77.4l-12.9-22.2l-71.1,4
							l7.1,12.4L241.2-77.4z M292.6-6.6l6.4-24.5l-101,6.6l7.1,12.4L292.6-6.6z M225.7,23.4l59.1,0l4.5-16.8l-70.7,4.4
							C218.6,11.1,225.7,23.4,225.7,23.4z M220.5-113.4L210.2-131l-73.5-0.1l7.1,12.4C143.9-118.7,220.5-113.4,220.5-113.4z
							M349.6-65.8l-17.8-30.8h16.9c7.9,0,21.9,3.9,26.3,15.1c4,10.4-3.4,15.8-8.5,15.8C366.5-65.7,349.6-65.8,349.6-65.8z
							M366.5-36.3l14.8,0.1c9.8,0.1,20.1,4.6,23.9,13.7c3.5,8.5-1.2,15.7-7.4,15.7l-14.3,0C383.5-6.8,366.5-36.3,366.5-36.3z
							M299.6-31.1l14.9,25.9L365.1-2l1.8,3.1l-46.7,3.3l10.9,19l86.7,0c26.7,0,46.4-9.5,38.7-37.5c-2.3-8.5-13.1-29.9-44.9-38.8
							c6.7-0.8,23.5-8.2,20.6-27.5c-5.1-34.2-49.4-50.5-74.1-50.5l-102.3,0l-5,19.8l53.6,3.8l1.8,3.1l-58.1,3.5l-6.3,23.5l82.7,4.8
							l1.8,3.1L177.7-60l7.1,12.4l159.9,10.4l1.8,3.1L299.6-31.1"/>
					</g>
				</g>
			</g>
		</g>
	</g>
</g>
</svg>
