<?xml version="1.0" encoding="utf-8"?>
<!-- Generator: Adobe Illustrator 26.5.0, SVG Export Plug-In . SVG Version: 6.00 Build 0)  -->
<svg version="1.1" id="Capa_1" xmlns="http://www.w3.org/2000/svg" xmlns:xlink="http://www.w3.org/1999/xlink" x="0px" y="0px"
	viewBox="0 0 2000 712.8" style="enable-background:new 0 0 2000 712.8;" xml:space="preserve">
<g id="Champion">
	<path d="M601.4,148.2c-7,46.6-20.8,159.8,8.9,271.9c6,14.9,20.8,10.9,26.8,4c2-3,21.8-21.8,21.8-21.8c7-9.9,13.9-7,18.9,0
		c5,7,18.9,28.8,39.7,29.8c20.8,1,53.6-23.8,66.5-33.8c8.9,16.9,19.8,32.8,37.7,31.8c17.9-1,34.7-13.9,49.6-29.8
		c10.9,12.9,22.8,26.8,36.7,25.8c13.9-1,39.7-15.9,64.5-38.7c9.9-10.9,20.8-6,27.8,5c6.9,10.9,16.9,28.8,29.8,28.8
		c12.9,0,31.8-17.9,37.7-22.8s11.9-8.9,18.9-1l14.9,13.9c8.9,8.9,27.8,7,41.7-6c13.9-12.9,16.9-16.9,22.8-16.9
		c6,0,8.9,7.9,14.9,13.9s51.6,45.7,112.2-15.9c1,30.8-6,203.4-6,228.3c0,11.9,13.9,15.9,33.8,11.9c19.8-4,29.8-9.9,28.8-38.7
		c-1-28.8-5-170.7-5-170.7c3-22.8,22.8-60.5,43.7-61.5c20.8-1,10.9,24.8,1,24.8s-20.8,5-20.8,13.9c0,8.9,3,34.7,61.5,34.7
		c58.6,0,65.5-18.9,81.4-25.8c9.9,18.9,39.7,48.6,122.1-4c16.9,19.8,48.6,44.7,83.4,19.8c10.9-8.9,21.8-29.8,17.9-47.6
		c-3-6.9-1-9.9,4-9.9h32.8c6.9,0,18.9,5,22.8,24.8c4,19.9,17.9,36.7,28.8,35.7c10.9-1,31.8-17.9,43.7-29.8
		c9.9,13.9,52.6,78.4,131-29.8c6.9-9.9-4-14.9-9.9-7.9c-5.9,7-23.8,17.9-38.7,18.9c-14.9,1-32.8-13.9-46.6-32.8
		c-13.9-18.9-29.8-11.9-39.7,3c-6.9,7.9-10.9,15.9-18.9,24.8c-5-8.9-10.9-27.8-20.8-34.7c-9.9-7-17.9-7.9-41.7-2
		c-23.8,6-50.6,8.9-77.4,9.9c-14.9-1-10.9,6-9.9,11.9c1,6,11.9,30.8-7.9,31.8c-19.8,1-17.9-28.8-4-44.7c6.9-7-3-21.8-13.9-15.9
		s-17.9,8.9-26.8,22.8s-27.8,34.7-58.6,35.7c-30.8,1-21.8-34.7-20.8-50.6c0-8.9-5.9-16.9-21.8-12.9c-15.9,4-36.7,2-34.7,45.7
		c-10.9,15.9-35.7,25.8-55.6,22.8c-5.9-1-7.9-4-5.9-10.9c2-7,6.9-45.7-22.8-55.6c-29.8-9.9-52.6,4-67.5,16.9c-7.9,4-9.9,0-9.9-7
		l1-36.7c0-16.9-33.7-20.8-38.7-1s-10.9,58.6-40.7,72.5c-29.8,13.9-39.7-4-55.6-23.8s-31.8-18.9-49.6-1l-17.9,16.9
		c-7,6-10.9,4-16.9-5c-6-8.9-9.9-20.8-20.8-21.8c-10.9-1-12.9,3-20.8,8.9l-22.8,17.9c-8.9,6.9-10.9,6.9-19.8-5
		c0,0-14.9-24.8-29.8-24.8c-14.9,0-19.8,8.9-28.8,15.9c0,0-22.8,15.9-30.8,22.8c-7.9,7-30.8,20.8-52.6-11.9
		c-7.9-11.9-21.8-20.8-31.8-4c-9.9,16.9-25.8,42.7-37.7,34.7c-11.9-7.9,7.9-30.8,22.8-32.8c14.9-2,6-20.8-8.9-21.8
		s-38.7,8.9-49.6,21.8c-10.9,12.9-28.8,27.8-46.6,26.8c-17.9-1-21.8-14.9-30.8-33.7c-8.9-18.9-24.8-16.9-36.7-7
		c-11.9,9.9-14.9,12.9-23.8,23.8c-8.9,10.9-8.9,5-9.9-2c-1-7-7-135,3-217.3C653,123.4,610.3,116.5,601.4,148.2L601.4,148.2z"/>
	<path d="M1540.3,301.2c17.1,0,30.9-13.8,30.9-30.9s-13.8-30.9-30.9-30.9c-17.1,0-30.9,13.8-30.9,30.9S1523.2,301.2,1540.3,301.2z
		M551.8,332.8c-4,3-116.1,40.7-177.6,44.7V147.2c35.7,1,103.2,15.9,145.9,31.8c9.9,5,30.8-1,8.9-22.8
		c-50.6-40.7-130-71.5-235.2-71.5S0,143.3,0,262.4S150.9,441,294.8,441c101.2,0,195.5-36.7,264-102.2
		C569.7,327.9,555.8,329.8,551.8,332.8z M211.4,377.3c-85.7-17.6-146.4-62-146.4-114c0-51.9,60.8-96.3,146.4-113.9V377.3
		L211.4,377.3z M1953.5,303c-8,0-14.5,6.3-14.5,14c0,7.9,6.5,14.1,14.5,14.1c8,0,14.4-6.3,14.4-14.1
		C1968,309.3,1961.5,303,1953.5,303z M1953.5,328.4c-6.5,0-11.8-5-11.8-11.4c0-6.2,5.2-11.2,11.8-11.2c6.4,0,11.7,5,11.7,11.2
		C1965.2,323.4,1960,328.4,1953.5,328.4z"/>
	<path d="M1961,313.3c0-1.3-0.6-2.7-1.8-3.4c-1.2-0.7-2.6-0.8-3.9-0.8h-7.1v15.7h2.4v-7.2h2.8l4.6,7.2h2.8l-4.9-7.2
		C1958.7,317.6,1961,316.4,1961,313.3L1961,313.3z M1953.2,315.7h-2.6V311h4.2c2,0,3.8,0.3,3.8,2.3
		C1958.6,316.1,1955.5,315.7,1953.2,315.7L1953.2,315.7z"/>
</g>
</svg>
