<?xml version="1.0" encoding="utf-8"?>
<!-- Generator: Adobe Illustrator 26.5.0, SVG Export Plug-In . SVG Version: 6.00 Build 0)  -->
<svg version="1.1" id="Capa_1" xmlns="http://www.w3.org/2000/svg" xmlns:xlink="http://www.w3.org/1999/xlink" x="0px" y="0px"
	viewBox="0 0 2000 712.8" style="enable-background:new 0 0 2000 712.8;" xml:space="preserve">
<g id="Supreme">
	<path d="M257.4,170.3c-12.3-21.3-30.3-34.7-57.8-34.7c-26.3,0-55,20.2-59.4,47.7c-11.2,71.2,161.5,41.5,139,183.3
		c-13.5,84.7-75.7,144.7-162,144.7c-58.3,0-95.9-33.7-117.2-82.4l61.7-52.1c6.2,32.5,30.8,61.7,66.1,61.7
		c33.7,0,59.4-28.6,64.5-61.1c6.7-43.7-31.4-56.1-62.8-69c-50.4-22.4-86.3-49.9-75.7-115.5C65,122.6,126.1,66,197.3,66
		c37.5,0,86.3,18.5,107.6,47.1L257.4,170.3 M398.5,224.7l-23.6,149.1c-5,31.4-6.2,69,33.7,69c39.8,0,51-37.5,56.1-69l23.5-149.1
		h78.5l-25.8,162c-12.9,80.2-61.1,122.3-142.9,122.3s-116.6-42.1-103.7-122.2l25.8-162H398.5 M774.1,362c5.6-37-12.4-76.8-52.7-76.8
		c-40.4,0-71.8,39.8-77.4,76.8c-5.6,37,12.3,77.4,52.7,77.4C737.1,439.3,768.5,399,774.1,362L774.1,362L774.1,362z M669.8,249.9
		c21.3-21.3,52.2-34.2,81.3-34.2c78,0,114.4,72.9,102.6,145.2c-11.8,75.1-69.5,148-150.8,148c-28,0-55.5-12.3-67.9-34.8h-1.1
		L607,646.8h-78.5l66.7-422.1h78.5L669.8,249.9 M967.9,253.2h1.1c19.6-24.1,44.9-37.6,74-37.6c11.2,0,22.4,2.8,31.4,6.8l-20.7,72.9
		c-8.8-6.8-19.7-10.4-30.9-10.1c-54.4,0-67.8,48.2-74.6,90.8l-19.6,123.9h-78.5l43.7-275.3h78.5L967.9,253.2 M1238.1,326.1
		c0.6-28-12.9-55.5-43.2-55.5c-31.4,0-53.3,26.9-61.7,55.5L1238.1,326.1z M1123.2,374.9c-5.1,34.8,1.7,74,42.6,74
		c25.8,0,44.8-15.7,58.9-37.6l70.6,11.8c-28,55-81.3,85.8-139,85.8c-85.2,0-127.3-60.5-114.4-144.1c13.4-83.5,67.8-149.1,157-149.1
		c90.3,0,120,66.7,107.1,149.7l-1.7,9.6L1123.2,374.9 M1417.5,249.3h1.1c18.2-21,44.6-33.2,72.4-33.7c34.2,0,58.9,14,72.3,43.2
		c21.3-26.9,54.9-43.2,86.9-43.2c70.1,0,79.1,52.7,69.5,112.7l-26.9,171.6h-78.5l23-144.7c3.9-26.9,14-76.8-24.7-76.8
		c-42.6,0-51.6,57.7-56.1,86.3l-21.3,135.1h-78.5l21.9-139.6c4.5-26.9,16.8-81.9-24.1-81.9c-43.7,0-51,57.2-55.5,86.3l-21.3,135.1
		h-78.5l43.7-275.3h78.5L1417.5,249.3 M1929.3,326.1c0.6-28-12.9-55.5-43.2-55.5c-31.4,0-53.3,26.9-61.6,55.5L1929.3,326.1z
		M1814.4,374.9c-5,34.8,1.7,74,42.6,74c25.8,0,44.8-15.7,58.9-37.6l70.6,11.8c-28,55-81.3,85.8-139,85.8
		c-85.2,0-127.3-60.5-114.4-144.1c13.4-83.5,67.9-149.1,157-149.1c90.3,0,120,66.7,107.1,149.7l-1.7,9.6L1814.4,374.9"/>
</g>
</svg>
