<?xml version="1.0" encoding="utf-8"?>
<!-- Generator: Adobe Illustrator 26.5.0, SVG Export Plug-In . SVG Version: 6.00 Build 0)  -->
<svg version="1.1" id="Capa_1" xmlns="http://www.w3.org/2000/svg" xmlns:xlink="http://www.w3.org/1999/xlink" x="0px" y="0px"
	viewBox="0 0 2000 712.8" style="enable-background:new 0 0 2000 712.8;" xml:space="preserve">
<g id="Fear_Of_God">
	<g id="Fear_Of_God_00000143590859870439526220000005385998268553359243_">
		<g transform="translate(0.000000,430.000000) scale(0.100000,-0.100000)">
			<path d="M4372,2002.2l-258-1.8l-118.3-623.8c-65.6-342.5-152.6-800.9-194.2-1018.4c-66.8-346.8-152.6-798.4-164.2-865.2
				l-4.3-23.3h190c126.8,0,191.2,2.5,193.6,6.7c3.1,4.9,107.2,532.5,107.2,542.9c0,1.2,121.9,1.8,271.4,1.8h271.4l55.1-270.8
				l55.1-271.4l203.4-1.8l203.4-1.2l-3.1,13.5c-1.8,8-117.6,573.5-257.4,1258c-139.7,684.4-255.5,1247.5-257.4,1251.8
				c-1.2,3.7-10.4,6.7-19.6,6.1C4637.3,2004,4513.5,2002.8,4372,2002.2z M4499.4,931.1c55.1-296.6,99.3-541.1,98-543.5
				c-1.2-3.1-93.1-4.9-204.6-4.9c-191.8,0-201.6,0.6-201.6,11c0,13.5,188.7,1066.2,193.6,1079.1c1.8,5.5,4.9,6.7,8.6,3.1
				C4396.5,1472.8,4444.3,1227.7,4499.4,931.1z"/>
			<path d="M1826,738.1V-524.1h576h576v177.7v177.7h-376.8h-376.8V156v324.8l274.5,1.2l273.9,1.8l1.8,194.9l1.2,194.2h-280.6h-281.2
				l2.4,378.7c1.8,207.7,3.7,381.7,4.9,386c2.4,5.5,83.3,7.4,379.9,7.4H2978l-1.2,176.5l-1.8,175.9l-574.2,1.8l-574.7,1.2
				L1826,738.1L1826,738.1z"/>
			<path d="M5840.7,736.9l1.8-1264.1l194.9-1.8l194.2-1.2v511v511.7l26.4,3.7c14.1,1.8,66.8,3.1,117,1.8l91.3-1.8l4.9-15.3
				c1.8-8.6,77.8-239.6,168.5-513.5L6804-530.2h210.2c115.8,0,210.2,0.6,210.2,1.8c0,0.6-85.2,259.2-189.3,574.2l-188.7,572.9
				l40.4,21.4c90.1,47.8,156.9,107.8,207.7,185.1c61.3,94.4,86.4,177.7,102.9,343.8c9.2,95.6,9.2,110.3,0,223.7
				c-12.2,138.5-22.1,193.6-47.2,258.6c-28.2,74.2-59.4,121.3-118.9,180.8c-61.3,61.3-120.1,98.7-199.1,126.2
				c-109.1,38.6-98,38-565.6,40.4l-427.1,2.4L5840.7,736.9z M6568,1666.4c124.4-28.2,186.9-72.3,216.3-153.2
				c11.6-32.5,13.5-53.3,15.9-180.8c1.8-91.9,0-160.6-4.3-189.3c-14.7-92.5-60.7-153.2-148.9-196.1
				c-72.3-34.9-120.7-43.5-272.7-47.8l-130.5-3.7v394V1683l139.7-3.1C6481,1677.5,6536.2,1673.8,6568,1666.4z"/>
			<path d="M9837.6,1993.6c-210.8-28.8-393.4-156.9-486.5-340.7c-25.1-50.9-46.6-117.6-55.1-173.4
				c-12.2-77.2-18.4-618.3-12.2-1061.3c6.1-456.5,7.4-471.8,48.4-570.5c39.2-95,121.9-199.2,205.9-259.2
				c117-83.9,294.7-126.8,480.4-116.4c190,10.4,330.9,69.2,444.2,183.8c98,99.3,150.7,215.1,168.5,368.3
				c20.2,182.6,23.9,1303.9,4.3,1418.5c-52.1,307-225.5,491.4-510.4,542.3C10058.8,1997.3,9896.5,2002.2,9837.6,1993.6z
				M10018.4,1638.2c80.9-12.9,157.5-63.7,192.4-127.5c39.2-72.9,36.8-23.9,38.6-752.5c2.5-722.4,3.1-712.6-31.9-784.3
				c-32.5-65.6-92.5-115.2-164.8-134.2c-39.8-11-138.5-11-178.3,0c-74.2,19.6-134.8,66.2-166,127.5c-36.2,70.5-34.3,44.1-37.4,675.9
				c-3.1,639.7,0.6,775.7,22.7,830.3C9742.7,1596.6,9870.7,1662.1,10018.4,1638.2z"/>
			<path d="M11454.1,1996.1l-142.8-1.8V735.7v-1258l65.6-3.7c35.5-2.5,125-4.3,199.2-4.3h133.6v508.6v508.6h281.9h281.9v193v193
				h-281.9h-281.9v386v386h383h383v177.7v177.7l-439.3-1.2C11794.1,1997.9,11531.9,1996.7,11454.1,1996.1z"/>
			<path d="M15117.7,1994.2c-161.2-22.7-334.6-114.6-423.4-223.7c-72.9-89.5-123.8-232.2-148.3-413.6c-9.8-76-14.7-927.1-6.1-1065
				c11.7-182.6,45.3-365.2,84.6-460.8c60-146.4,177.1-258.6,324.8-312.5c71.7-25.7,155-41.1,261.7-49
				c283.1-19.6,535.5,58.2,688.7,213.2l38,38.6v563.7v563.1l-350.5-1.2l-351.1-1.8V686.1V526.8l166-1.8l166-1.2l3.7-74.8
				c2.5-41.1,4.3-192.4,4.3-336.4v-262.2l-39.2-22.1c-165.4-92.5-374.4-80.9-482.2,27c-38.6,39.2-55.8,71.1-72.3,136.7
				c-25.7,99.3-40.4,457.7-40.4,982.2c0,436.9-0.6,430.8,38,509.2c22.7,46,82.1,101.1,128.7,118.9c44.7,17.2,139.1,23.3,186.3,12.2
				c114.6-27,183.2-110.9,207.7-254.9c6.1-36.8,14.7-103.6,19-147.7l8-81.5h204h204v20.2c0,25.1-33.7,254.3-46.6,319.9
				c-50.8,251.2-181.4,405.6-405.6,480.4C15367,1990,15215.7,2008.3,15117.7,1994.2z"/>
			<path d="M17175.2,1994.2c-169.1-21.4-308.8-86.4-406.9-190c-49.6-52.7-72.3-86.4-101.7-148.9c-28.2-59.4-46.6-128.1-55.1-203.4
				c-9.8-82.7-14.7-1035.5-6.7-1259.2c6.7-190.6,12.9-241.4,38-318.6c59.4-178.9,197.3-307.6,393.4-364
				c93.1-27,177.7-36.2,301.5-32.5c130.5,3.7,202.8,19,296.6,63.1c201,94.4,310.7,265.9,338.8,530c11.7,107.8,11.7,1068,0,1215.7
				c-15.9,201.6-33.7,294.1-75.4,381.7c-68,145.8-188.1,249.4-342.5,295.3C17457.1,1992.4,17278.8,2007.1,17175.2,1994.2z
				M17381.7,1630.3c80.9-21.4,136.7-65.6,171.6-136.7l22.7-45.3l4.3-123.8c6.1-160.6,6.1-1041.1,0-1183.8
				c-4.3-107.8-4.9-111.5-25.1-155c-45.3-98.7-140.3-154.4-263.5-154.4c-84,0-152,23.9-202.8,71.7c-36.8,34.3-57,63.7-75.4,111.5
				c-12.9,34.3-12.9,35.6-14.7,703.4c-1.2,580.3,0,674.6,8,709.6c22.7,98.7,82.1,166.1,174,197.3
				C17229.2,1641.3,17330.3,1643.7,17381.7,1630.3z"/>
			<path d="M18678.3,1996.1l-38.6-2.4V735.1V-524.1h348c365.8,0,455.9,4.3,539.8,25.1c245.7,61.3,407.5,239.6,450.4,496.3
				c17.2,106.6,22.1,257.4,22.1,719.4c0,702.2-8.6,799-82.7,949.8c-65.6,133-167.3,226.1-305.8,279.4
				c-78.4,30.6-148.3,42.9-273.3,48.4C19231,1999.8,18761,2000.4,18678.3,1996.1z M19275.7,1632.1c112.1-12.2,172.8-36.2,224.9-88.8
				c42.3-41.7,74.2-106.6,85.2-171c11-64.9,17.8-688.7,11-1004.9c-4.9-228.6-5.5-233.5-21.4-277.6c-8.6-25.1-25.1-60.1-36.2-79
				c-28.2-47.2-99.3-112.8-146.4-136c-66.8-31.9-99.3-37.4-233.5-37.4H19038v904.4v904.4l90.7-3.7
				C19178.3,1640.1,19244.5,1635.2,19275.7,1632.1z"/>
			<path d="M0,735.1V-524.1h196.1h196.1v502.5v502.5l283.7,1.2l283.1,1.8l1.8,194.9l1.2,194.2H680.2H398.3v383v383l384.8,1.2
				l384.2,1.8l1.8,176.5l1.2,175.9H585.2H0L0,735.1L0,735.1z"/>
		</g>
	</g>
</g>
</svg>
