<?xml version="1.0" encoding="utf-8"?>
<!-- Generator: Adobe Illustrator 26.5.0, SVG Export Plug-In . SVG Version: 6.00 Build 0)  -->
<svg version="1.1" id="Capa_1" xmlns="http://www.w3.org/2000/svg" xmlns:xlink="http://www.w3.org/1999/xlink" x="0px" y="0px"
	viewBox="0 0 2000 712.8" style="enable-background:new 0 0 2000 712.8;" xml:space="preserve">
<g>
	<g id="g10_00000088099551903189311030000011553553302096324754_" transform="matrix(1.3333333,0,0,-1.3333333,10,110)">
		<g id="g12_00000102542788013403097380000009147027225808080275_" transform="scale(0.1)">
			<path id="path16_00000021104697313205522610000005874564999469172888_" d="M636.6-1404.3c-12.9,98.6-107.2,175.8-218.6,175.8
				c-197.2,0-270.1-167.2-270.1-343c0-167.2,72.9-334.4,270.1-334.4c132.9,0,210.1,94.3,227.2,222.9h214.3
				c-21.4-248.6-192.9-407.3-441.6-407.3c-308.7,0-493,231.5-493,518.7c0,295.8,180.1,527.3,493,527.3c218.6,0,403-128.6,433-360.1
				H636.6L636.6-1404.3"/>
			<path id="path18_00000046313687029596389640000013734980127111169951_" d="M1395.4-1905.8c192.9,0,265.8,167.2,265.8,334.4
				c0,175.8-72.9,343-265.8,343s-265.8-167.2-265.8-343C1125.3-1738.6,1198.2-1905.8,1395.4-1905.8z M1395.4-1044.1
				c304.4,0,480.1-231.5,480.1-527.3c0-287.2-180.1-518.7-480.1-518.7c-304.4,0-480.1,231.5-480.1,518.7
				C911-1275.6,1091-1044.1,1395.4-1044.1"/>
			<path id="path20_00000047777883150993002420000002478543172797523845_" d="M1948.4-1099.9h291.5l222.9-664.5h4.3l210.1,664.5
				h291.5v-964.6h-192.9v685.9h-4.3L2540-2064.4h-158.6l-231.5,677.3h-4.3v-677.3h-192.9v964.6H1948.4"/>
			<path id="path22_00000162337881549629043500000004667834686517201037_" d="M3050.2-1099.9h291.5l222.9-664.5h4.3l210.1,664.5
				h291.5v-964.6h-192.9v685.9h-4.3l-231.5-685.9h-158.6l-231.5,677.3h-4.3v-677.3h-192.9v964.6H3050.2"/>
			<path id="path24_00000169557862456829810310000001603918653832695732_" d="M4220.5-1099.9h720.2v-180.1h-510.1v-205.8h467.3
				v-162.9h-467.3v-235.8h518.7v-180.1h-733.1v964.6H4220.5"/>
			<path id="path26_00000083072979603503063670000008010972134682642573_" d="M9021.9-1965.8c-77.2-98.6-175.8-137.2-270.1-137.2
				c-304.4,0-480.1,231.5-480.1,518.7c0,295.8,180.1,527.3,480.1,527.3c201.5,0,390.1-124.3,411.5-351.5h-205.8
				c-25.7,111.5-107.2,167.2-205.8,167.2c-192.9,0-265.8-167.2-265.8-343c0-167.2,72.9-334.4,265.8-334.4
				c141.5,0,222.9,77.2,231.5,214.3h-218.6v162.9h411.5v-540.2H9039L9021.9-1965.8"/>
			<path id="path28_00000036229089161062616310000010646193110323651235_" d="M9592-1691.5h244.4l-120,368.7h-4.3L9592-1691.5z
				M9613.5-1078.4h214.3l355.8-998.9H9965l-72.9,222.9h-355.8l-72.9-222.9h-210.1L9613.5-1078.4"/>
			<path id="path30_00000029033424251265279810000015051435338659278240_" d="M10462.3-1528.6h231.5c94.3,0,145.8,42.9,145.8,141.5
				s-51.4,137.2-145.8,137.2h-231.5V-1528.6z M10252.2-1078.4h518.7c171.5,0,282.9-124.3,282.9-274.4c0-115.7-47.2-205.8-150-248.6
				v-4.3c102.9-30,132.9-132.9,141.5-235.8c4.3-64.3,4.3-180.1,38.6-235.8h-210.1c-25.7,64.3-21.4,158.6-34.3,240.1
				c-12.9,107.2-55.7,150-158.6,150h-210.1v-390.1h-210.1v998.9H10252.2"/>
			<path id="path32_00000039129679863044548880000006837537137520670899_" d="M11821.3-1412.8c-12.9,98.6-107.2,175.8-214.3,175.8
				c-192.9,0-265.8-167.2-265.8-343c0-167.2,72.9-334.4,265.8-334.4c132.9,0,205.8,94.3,222.9,222.9h210.1
				c-21.4-248.6-188.6-407.3-428.7-407.3c-304.4,0-480.1,231.5-480.1,518.7c0,295.8,180.1,527.3,480.1,527.3
				c214.3,0,394.4-128.6,424.4-360.1H11821.3L11821.3-1412.8"/>
			<path id="path34_00000153689118134695255900000016099108859098160315_" d="M12605.8-1918.7c192.9,0,261.5,167.2,261.5,334.4
				c0,175.8-72.9,343-261.5,343c-192.9,0-261.5-167.2-261.5-343C12344.3-1747.2,12412.9-1918.7,12605.8-1918.7z M12605.8-1052.7
				c300.1,0,475.8-231.5,475.8-527.3c0-287.2-175.8-518.7-475.8-518.7c-300.1,0-475.9,231.5-475.9,518.7
				C12129.9-1284.2,12305.7-1052.7,12605.8-1052.7"/>
			<path id="path36_00000074434714318706153180000001912111567228079282_" d="M13193.1-1078.4h210.1l403-668.8h4.3v668.8h201.5
				v-998.9h-214.3l-403,668.8h-4.3v-668.8h-201.5v998.9H13193.1"/>
			<path id="path38_00000142864541898223421660000009933616892324617857_" d="M14312-1747.2c0-132.9,102.9-184.3,218.6-184.3
				c77.2,0,188.6,21.4,188.6,124.3c0,107.2-145.8,124.3-291.5,167.2c-145.8,38.6-291.5,98.6-291.5,282.9
				c0,205.8,188.6,304.4,364.4,304.4c205.8,0,394.4-90,394.4-321.5h-210.1c-8.6,120-90,150-192.9,150c-68.6,0-150-30-150-111.5
				c0-77.2,47.2-85.7,291.5-150c72.9-17.1,291.5-64.3,291.5-291.5c0-184.3-141.5-321.5-407.3-321.5
				c-218.6,0-420.1,107.2-415.8,355.8h210.1V-1747.2"/>
			<path id="path40_00000063632464504860499290000015269725800790727588_" d="M11654.1-2360.2l158.6,60l38.6-102.9l-158.6-51.4
				l98.6-132.9l-90-64.3l-98.6,137.2l-94.3-137.2l-90,64.3l98.6,132.9l-158.6,51.4l38.6,102.9l154.3-60v167.2h107.2v-167.2H11654.1"
				/>
			<path id="path42_00000182491413541430652970000015157543000479122598_" d="M5871-1472.8c-124.3,0-167.2-107.2-167.2-222.9
				c0-107.2,51.4-222.9,167.2-222.9c128.6,0,162.9,111.5,162.9,227.2C6033.9-1580,5995.3-1472.8,5871-1472.8z M6038.2-1957.3
				L6038.2-1957.3c-47.2-77.2-124.3-107.2-214.3-107.2c-210.1,0-312.9,180.1-312.9,373c0,188.6,102.9,364.4,308.7,364.4
				c81.5,0,162.9-34.3,210.1-102.9l0,0h4.3v351.5h192.9V-2043h-184.3v85.7H6038.2"/>
			<path id="path44_00000065044673838281464780000004092753670394106777_" d="M6801.3-1622.9c-17.1,98.6-60,150-154.3,150
				c-120,0-158.6-94.3-158.6-150H6801.3z M6488.3-1742.9c4.3-120,64.3-175.8,171.5-175.8c77.2,0,137.2,47.2,150,90H6977
				c-55.7-162.9-167.2-235.8-325.8-235.8c-218.6,0-355.8,150-355.8,368.7c0,210.1,145.8,368.7,355.8,368.7
				c235.8,0,351.5-201.5,338.7-415.8H6488.3"/>
			<path id="path46_00000082369140808005387590000009227741647787400863_" d="M7247.1-1820.1c0-85.7,72.9-115.7,145.8-115.7
				c55.7,0,124.3,21.4,124.3,90c0,60-81.5,77.2-218.6,107.2c-111.5,25.7-222.9,64.3-222.9,184.3c0,180.1,154.3,222.9,304.4,222.9
				c154.3,0,291.5-51.4,308.7-222.9h-175.8c-4.3,72.9-60,94.3-132.9,94.3c-42.9,0-107.2-8.6-107.2-64.3
				c0-68.6,107.2-77.2,218.6-102.9c111.5-25.7,222.9-64.3,222.9-197.2c0-184.3-158.6-244.4-317.2-244.4
				c-162.9,0-321.5,60-330.1,244.4h180.1V-1820.1"/>
		</g>
	</g>
</g>
</svg>
