<?xml version="1.0" encoding="utf-8"?>
<!-- Generator: Adobe Illustrator 26.5.0, SVG Export Plug-In . SVG Version: 6.00 Build 0)  -->
<svg version="1.1" id="Capa_1" xmlns="http://www.w3.org/2000/svg" xmlns:xlink="http://www.w3.org/1999/xlink" x="0px" y="0px"
	viewBox="0 0 2000 712.8" style="enable-background:new 0 0 2000 712.8;" xml:space="preserve">
<g id="Converse">
	<path d="M1100.6,256.1L869.7,512.3h198l230.9-256.1L1067.7,0h-198L1100.6,256.1z"/>
	<path d="M799.8,201.3l-104.2-34.4l65.4,90.7l-64.3,90.1l103.2-34.4l62.7,90.7V292l105.3-34.4l-105.3-35V111.2L799.8,201.3z
		M540.1,619.6c9.1,0,18.1,4.4,24.1,11.9l2.2,2.7l28.2-19.5l-2.5-3.2c-12.4-15.7-31.5-24.7-52-24.7c-36.1,0-65.5,28.3-65.5,62.9
		c0,34.6,29.5,62.9,65.5,62.9c20.3,0,39.2-8.9,51.7-24.2l2.5-3.2L566.1,666l-2.2,2.7c-6.1,7.4-14.8,11.7-23.9,11.7
		c-16.7,0-30.9-13.9-30.9-30.4C509.2,633.6,523.4,619.6,540.1,619.6L540.1,619.6z M842.9,656.9l-50.7-67H760v118.6h31.3V642
		l47.2,66.4h35.7V589.8h-31.3V656.9z M963.8,674.3c0,0.9-1.3,1.1-1.9,1.1c-0.5,0-1.4-0.2-1.9-1.3l-26.2-84.3h-36.3l38.6,118.6h51.5
		l38.6-118.6h-36.3L963.8,674.3z M1256.5,659.9c12.6-7.3,19.9-20.5,18.8-35.1c-1.4-19.8-18.6-34.9-39.2-34.9h-60.5v118.6h31.6v-42.7
		h14.2c1.4,0,2.7,0.2,3.6,1.4l20.4,41.3h35.5L1256.5,659.9z M1234.5,635.2h-28.1V622h28.1c3.8,0,7,2.6,7,6.6
		C1241.5,632.6,1238.3,635.2,1234.5,635.2z M1431.8,708.4h93.7v-31.6H1463v-14.2h56.2v-28.5H1463v-12.6h62.4v-31.6h-93.7V708.4z
		M1359.6,634.9c-16.8-3.8-21.7-6.3-21.7-11.8v-0.3c0-4.4,3.3-7.9,11.5-7.9c10.8,0,19.6,3.5,31.4,10.5l18.8-22.3
		c-13.2-10.5-29-16.2-49.6-16.2c-29.2,0-46.6,16.4-46.6,39v0.3c0,25,20.6,32.4,46.5,38.2c16.5,3.8,21,6.6,21,11.6v0.3
		c0,5.2-5.8,8.3-14.9,8.3c-14.1,0-27.9-5-39.9-14.6l-19,22.5c14.9,13.4,36.6,20.1,58.1,20.1c29.5,0,50.2-14.8,50.2-39.6v-0.3
		C1405.4,650,1387.5,641,1359.6,634.9z M671.4,586.9c-35.1,0-63.7,28.3-63.7,62.9c0,34.8,28.5,62.9,63.7,62.9
		c35.1,0,63.7-28.3,63.7-62.9C735.1,615.1,706.5,586.9,671.4,586.9z M671.4,680.6c-16.6,0-30-13.4-30-30c0-16.6,13.4-30,30-30
		c16.6,0,30,13.4,30,30C701.4,667.2,688,680.6,671.4,680.6z M1049.8,708.4h93.7v-31.6H1081v-14.2h56.2v-28.5H1081v-12.6h62.4v-31.6
		h-93.7V708.4z"/>
</g>
</svg>
