<?xml version="1.0" encoding="utf-8"?>
<!-- Generator: Adobe Illustrator 26.5.0, SVG Export Plug-In . SVG Version: 6.00 Build 0)  -->
<svg version="1.1" id="Capa_1" xmlns="http://www.w3.org/2000/svg" xmlns:xlink="http://www.w3.org/1999/xlink" x="0px" y="0px"
	viewBox="0 0 2000 712.8" style="enable-background:new 0 0 2000 712.8;" xml:space="preserve">
<style type="text/css">
	.st0{fill-rule:evenodd;clip-rule:evenodd;}
</style>
<g id="ASSC">
	<g id="ASSC_00000062172250621693358220000017615284617445086640_">
		<g id="g10_00000142881203512210206020000014109146070376840607_" transform="matrix(1.3333333,0,0,-1.3333333,0,592)">
			<g id="g12_00000152260174430663642750000001090016396491944380_" transform="scale(0.1)">
				<path id="path14_00000040557451993243372330000005550034771535244699_" class="st0" d="M6696.5,2807.4
					c-148.7-24.1-251.9-37.7-370.5-104.7c-219.7-124.1-346.3-377.7-209.1-620.4c52.8-93.4,147.6-172.8,293.4-183.8
					c292.6-22,502.2,173.2,585.8,364.3c72.6,166,81.7,415.7-105,508.6c-34,16.9-88.1,31.9-134.8,36.8c-21.9,2.3-36.4,2.6-57-0.4
					C6698.4,2807.7,6697.5,2807.6,6696.5,2807.4L6696.5,2807.4z M6542,2658.8c-137.3-29.9-220.9-161.8-218.3-330
					c2.3-148.8,89.6-325.4,247.9-289.3c151.5,34.6,221,190.2,220.9,327.5c0,45.5-9,90.5-19.3,130.7
					C6745,2607.9,6650.6,2681.4,6542,2658.8"/>
				<path id="path16_00000132784964534281140630000004274342793760771230_" class="st0" d="M6512.3,1444.4
					c-300.6-35.9-564.8-293.9-465.5-591.2c17.8-53.1,53-108.5,84.6-137c11.9-10.7,14.4-16.5,28.4-27c11.2-8.4,19.4-14.8,31.8-23.6
					c60.7-43,186.4-82.2,255.2-73.6c178.5,22.4,315.4,97,406.3,249.7c27.3,45.9,49.3,99,63.4,158c44,184.1-1.9,394.1-195.9,437.6
					C6661.2,1450.9,6573.7,1451.8,6512.3,1444.4L6512.3,1444.4z M6489.9,1315c-82.4-12.1-125.2-47.9-159.3-99.7
					c-75.7-115.2-81.8-277.5-11.5-400.7c31-54.3,77.3-99.3,167.7-91.4c156.4,13.8,175.8,154.7,208,303c9.1,41.9-21.8,167-39.6,205.3
					C6628.6,1288.5,6575.7,1327.5,6489.9,1315"/>
				<path id="path18_00000088819763621335123280000009458249948474955394_" class="st0" d="M8413.8-832.5
					c88.7-21.7,210.7-34.2,304.3-48.7c98.9-15.4,218.3-47.2,305,0.7c74.1,40.9,123.6,124.7,97.1,239.3
					c-23.3,100.5-83.2,130.9-145.3,182.6l-16.4,12.1c30.9,23.3,51.3,29.1,81.8,72.9c52.5,101-4.9,248.8-98.8,316.3
					c-71.2,51.2-137.9,52.9-238.3,65L8424,37.6c20.3-97.9,33.8-33.7,39.9-205.8c5.8-164.3,4.5-317.6,8.7-477.2
					C8475.1-745.4,8467.3-782.4,8413.8-832.5L8413.8-832.5z M8715.9-543.2l-0.4-85.2l1.3-88.5c0.3-21.7,20.6-43.6,47.2-50.4
					c58-14.8,104.5,27.6,118.1,66.1c14.8,49.3,15.8,99.2-26.4,151.1c-41.5,40-89.2,49.7-139.7,45.4L8715.9-543.2z M8703.8-206.6
					c-1.3-91.5,6.2-151.6,25.8-169c28.5,0.7,62.4,8.2,75.4,36.2c8,17.2,18.4,43.3,27.5,65l-42.3,82.8c-8.1,11-13.9,27.7-26.7,34.5
					c-12.5,6.6-28.7,8.8-48.8,6.2C8707.1-166.4,8702.7-185.4,8703.8-206.6"/>
				<path id="path20_00000096020654824319762470000008185717709085067151_" class="st0" d="M8265.4,672.8l211-13.6
					c-8.4,42-18.2,67.2-24,97.6c-5.3,28.2-5.1,64.8,10.4,137.7c25.2,117.8,14.6,113.6,163.2,103.5c121.1-8.2,87,2.4,130.1-141.3
					c37-123.3,36.6-80-8-215.3l349.4-37.2c-75.4,161.2-53.8,77-106.7,274c-53.1,197.4-108.8,420.5-163.4,612.4l-88.5,300.1
					l-240.5,1.3c-0.5-58.8,9-98.9-4.6-157.4l-97.6-414C8353.6,1039.5,8302.6,853.5,8265.4,672.8L8265.4,672.8z M8514.3,1183.3
					l157.7-9.3c-8.5,30.9-74.5,287.2-79.3,293.8l-15.7-0.2c-0.8,0-7.9-33.9-12.2-53.5L8514.3,1183.3"/>
				<path id="path22_00000057134441181441977770000016736866468304116873_" class="st0" d="M8025.9-710.3l1.1-57.9l270.8-44.7
					c-4.6,32.5-17.6,60.9-20.2,95.1c-4.2,54.5,0,289.9,0.5,353.6c0.2,30.2,2.5,137.2-0.4,224.4c-1.8,56.5-1.9,104.7,5.6,118.4
					c8.7,33.6,22.5,47.3,42.3,72.8l-321,33.2c16.8-84,30.5-20.1,33.9-184.6c1.4-70.9,2.1-142,2.1-213.1
					c0-117.2,25.2-326.9-117.8-320.1c-79.6,5.5-108.6,50.3-114.1,119c-4.8,59.7-1.1,133.6-0.9,205.3c0.3,82.2,4.2,134.3,1.6,179.8
					c-3.6,63.2,1.5,115.3,24.9,231.3L7554.8,127c7.2-53.9,25.2-96.2,25.8-154.6c1-90.8-14.1-474.8-9.5-513.6
					c6.1-52.2,29.7-94.2,55.7-119.2c23.1-22.2,66.6-53.4,106-68.7C7859.9-778.5,7913.9-728.3,8025.9-710.3"/>
				<path id="path24_00000037681130438035822430000014332938554512016310_" class="st0" d="M6328.9,4026.8
					c7.8-32.9,34.4-65.4,31.6-104.3c-2.7-37.6-60.3-303-69.7-341.1c-43.9-177.6-69.9-242.3-139.8-399.2l259.2,39.6
					c-43.7,33.4-53.4,60.9-44.5,106.5c3.6,18.6,12.5,40.5,19.5,69.4c20.7,73.7,67.5,78.1,145.7,93.2c29.5,5.7,72.9,15.8,101.6,17.9
					c45.5,3.3,48.8-24.1,65.7-52.5c47.5-66.4,40.2-126.3-5.4-177.3l371.8,98.1c-8.2,16.1-24.8,35.4-36.7,50.9
					c-83.2,107.7-178.8,276.5-254.6,397.4l-105.9,171c-11.2,18.6-20.1,33-27.5,44.2c-1.9,3-3.4,6-5.4,8.3
					c-11.2,13.3-18.2,21.8-33.2,25.8c-7.8,2.1-19.2-1.1-32.3-3.3c-19.7-3.2-46.3-8.2-83.8-14.9
					C6455.6,4051.2,6355.4,4032.4,6328.9,4026.8L6328.9,4026.8z M6432.8,3592.6l179.2,36l-122.8,199.9L6432.8,3592.6z"/>
				<path id="path26_00000049935757342505223960000014718284985735514002_" class="st0" d="M7627.6,4316.5
					c7.5-17.2,28.1-34.5,53.4-86.4c41.9-85.9,57.6-238.3,74.6-340.8c-28.2,8.1-60,37.2-81,53.3c-109.7,84.1-242.8,197.1-350.4,275.9
					c-18.2,13.3-27,19-56,13.5c-51.5-9.7-115.9-27.8-167.9-41.1c-41-10.5-36.8-6.7-56.1-17.7c107-50.7,122.2-192.3,143.9-338.3
					c21-140.9,29.9-167.5,34.5-199.1c8.2-56.1,9.8-126.6-19.6-222.2c27.5,5.3,202.7,53,208.9,57l7.8,5.8
					c-36.1,43.6-56.7,134.9-65,202.5c-5,40.6-7.7,82.7-11.8,123.6l-19,113.9c28.1-4.2,48.5-30,67.3-44.2
					c20.9-15.8,46.4-37.8,65-54.4c13.5-12.1,37.5-33,65.7-57c72.3-61.4,173.2-143.5,201.8-152.6c61.1-28.5,128-41.8,202.7-35
					c0.4,21.4-2,53.6-7.8,90.7c-14.5,92.8-39.8,225.9-48.9,295.2l-0.9,6.6c-22.9,124.3-43.6,250.7-52,389.5L7627.6,4316.5"/>
				<path id="path28_00000044865259466531787960000014823859253086853789_" class="st0" d="M8333.1,2350.8l210.8,13.4
					c-10.5,41.4-7.2,84.5,2.5,133.4c3.8,19.1,10.5,39,19,62.3c15.3,43,34.2,70.5,62,69.6l117.9,2c13.9,0,25.7-1.5,35.7-1.1
					c17.5,0.8,31.5-2.4,44-13.9c7.9-7.3,11.1-14.7,11.3-25.6c0.2-8.1,11.2-58.7,12.8-68.2c13-85.1-11-118.5-51.3-157.4l324-15
					c-8,39.1-23,77.9-33.5,117c-22.6,83.6-132.9,615.9-136.7,622l-16.3,73.7c-6.9,34.4-26,62.2-46.9,60l-109,2.4l-141.2-0.8
					c10.8-21.1,51.7-46.2,30.3-116c-11.7-38.2-116.6-280.2-137.7-330.9c-30.6-73.7-61.9-145.4-94.5-216.7
					C8405.3,2493.1,8357.7,2416.4,8333.1,2350.8L8333.1,2350.8z M8658.5,2766.1l155.5-0.1c-3.9,23-41.3,175-51.4,210.8
					c-0.5,1.8-11.6,1.4-13.6,2c-5.2-10.7-5.2-10.5-21.3-48.6C8711.5,2891.8,8668.1,2793.3,8658.5,2766.1"/>
				<path id="path30_00000137125954680345447410000004136007280765881993_" class="st0" d="M5286.1,2084.3
					c14.9-56.2,21.2-77,25.8-108.2l4-17.4c11.1-39.9,38.5-57,82.7-66.4c92.5-19.7,158.9-41.4,261.8-37
					c164.1,7,334.9,109.2,316,281.9c-25,227.1-368.1,245.7-412.9,333.4c-10.7,22.9-6.1,43.8,7.1,61.9c15.6,21.4,53.3,29.5,89.6,33.3
					c30.4,3.1,62.1,1.2,87-5.3c26.1-5.3,64.3-20,116.7-37.9c-0.1,35,0.5,61.3-0.1,106.3c-0.1,10.9-5.9,35.1-34.7,39.7
					c-20.7,3.4-53.1,11.1-100.5,18.5c-105.8,15.2-181.3,6.9-260.4-17.9c-131.9-41.4-209.1-133.2-156.2-275.3
					c73.5-199.2,433.9-197.5,410.4-344.8c-6.1-38.4-39-63.6-79.5-69c-61.5-8.1-251.9,49.5-302.9,75.2
					C5322.7,2064,5303.4,2075.5,5286.1,2084.3"/>
				<path id="path32_00000116931331070332609690000010423210013018497160_" class="st0" d="M5245.6,838.8
					c18.7-148,24.5-160,105.8-186.7c145.3-47.7,347.5-63.7,478.3,20.1c128.6,82.4,160.4,266.4,5.5,374.2
					c-52.2,36.3-132.4,67.1-191.5,98.1c-38.4,20.1-65.4,26.3-81.2,63.9c-31.7,76,104.1,102.5,187.8,76.6l110.9-40.6
					c5.3,136.8,35.6,136.2-126.4,165.7c-92.3,16.8-184.3,15.8-270.9-9.9c-79.1-23.6-142.9-66-170.6-127.6
					c-38.1-84.7,7.3-176.8,53.4-216c84.1-71.5,208.4-113.8,285.2-162.3c30.1-19,63.7-43.5,51.4-97.1
					c-21.5-94.1-136.8-59.3-214.2-40.1c-39.5,9.8-79,20.7-117.2,31.7C5304.1,802.8,5283.2,825.8,5245.6,838.8"/>
				<path id="path34_00000173846683694265610150000011270717385944201112_" class="st0" d="M9224.9,585.5l512.7-68.1l16.8,222.6
					c-38.6-9.5-65.7-36.7-144.2-31.5c-45.2,3-111.3,21.7-133.6,46.3c-26.5,29.3-21.3,108.7-23.8,154.8c-3.1,57-6.3,113.2-9.5,170.4
					c-6.1,110.6-12.4,221.9-18.2,332.6c-12.7,188-13,222.2,42.8,303.4l-286.2,38.2c5.2-46.5,15.4-90.3,20.4-137
					c10-92.6,17-342.8,21.1-443.4c3.5-86.3,18.2-366.3,14.6-443.1C9235.5,681.9,9227.7,634.7,9224.9,585.5"/>
				<path id="path36_00000161589756755359760110000002216579262744102551_" class="st0" d="M7697.8,892.3
					c-91-33.8-206.7-118.2-325.1-89.3c-33.4,6.4-60.9,26.2-87.8,50.1c-30,26.6-61,136-62.7,246.4c-1.6,107.4,41.5,220.8,109.4,299.3
					c28.9,36.2,65.1,72.4,126.3,86.7c56.4,13.4,117.4-0.8,180.6-27.7l15,200.8c-40.4-6.7-78.8-9.6-113.8-17
					c-232.4-49.1-393.8-192.5-478.8-364.2c-37.2-73-66.3-166.6-65.8-261.2c1.1-194.2,124.6-324.5,294.2-356.3
					c98.9-18.6,199.6-1.5,290,22.3c45,11.9,56.5,17.2,66.2,40.5c4.1,9.9,7.9,23.1,13.9,41.5C7665.8,793.7,7693.4,865.4,7697.8,892.3
					"/>
				<path id="path38_00000163792763191703981690000014210805907636751499_" class="st0" d="M7768.6,2925.8l-0.6,155.7
					c-53.5-1.2-112.8-13.6-170.3-29.7c-86.7-24.2-166.9-69-217.4-103.6c-167.3-114.7-276.7-304.2-254.4-525.9
					c8.8-87.1,31.2-137.6,73.5-190.6c157.3-190.1,439.2-41.4,538.3,10.9c14.7,7.7,25.9,16.4,27.9,21.9
					c11.8,17.7,28.2,71.5,36.6,95.4c11.3,32.3,22,64.7,21.8,64.9l-8.8,10.2c0.6-0.7-78.7-52.8-181.7-106.6
					c-63.1-29.7-147.6-53.2-205.5-0.3c-52.9,48.3-55.8,118.8-55.2,209.5c0.4,69.9,4,140.5,20.7,203.2
					c19.1,71.3,59.3,131.8,139.2,165.7c33.8,14.9,60.7,20.9,85.2,23.5C7680.3,2936.6,7704.6,2926,7768.6,2925.8"/>
				<path id="path40_00000174584437581903938780000003948760398764169905_" class="st0" d="M6771.7-474.5c-24.4-7-50-15-73.1-20.4
					c-26.5-6.1-50.4-11.4-76.1-17.7c-108.9-28.6-166.9-21.9-217.4-0.5c-96.1,40.7-117.9,153.3-98,300.5c3.4,25.2,8.1,51.5,13.8,78.5
					c11.4,61.1,28.7,97.1,66.9,124.5c37.7,31.3,109.8,37.8,169,27.3c24.8-4.4,91.6-18.1,147.3-29.3c0.3,61.9,2.9,103-2.4,128.2
					c-1.7,7.9-6.5,11.4-11,15.5c-5.6,4.9-11.8,9.4-21.2,9.9c-23.4,1.1-59.5,5.1-118.8,4.3c-628.8-8.2-639.8-690.6-227.6-776.4
					c91.9-19.1,194.8-6.4,287.5,2.3c9.9,0.9,18.6,1.5,26.4,2c17.8,1.1,33.4,5,44.2,5C6704.1-620.6,6720.2-581.8,6771.7-474.5"/>
				<path id="path42_00000157280054156086525300000013321888306768007836_" class="st0" d="M7886.2,1724.2
					c3.7-42.2,13.7-81.1,14.3-123.9c1.5-98.1-23.4-554.2-31.2-663.9l-22.3-256l275.6,0c-2.1,37.6-14.7,84.4-20.3,123.3
					c-10.4,71.3-18.1,269.5-7.6,445c7,116.9,8.7,225.4,8.3,279.1c1.9,35.3,5.1,61.9,8.1,84.9c7.7,59.5,21.5,93.6,46.6,157.6
					L7886.2,1724.2"/>
				<path id="path44_00000100349939051369618230000001651397780667853238_" class="st0" d="M7959.8,4240.6
					c69,14.5,158.3,68.1,181.1,36.1c13.7-19.2,104.9-479.7,98-524.8c-2.3-41.3-14.5-73.6-29-101.8l279.8,29.7
					c-9.9,50.2-24.7,104.8-34.3,152.9c-11.7,54.6-18.9,107.1-28.4,163.8c-20.4,108.1-41.6,216.2-62,324.3l166.1-22.2l-0.2,141.4
					c-64.4-5.8-138.3-15-173.6-18.1l-350.3-37.3c-35.6-3.8-46.4-13.2-48.1-48.6C7957.6,4308.6,7956.8,4267.4,7959.8,4240.6"/>
				<path id="path46_00000121960466307824640360000014541481695284841367_" class="st0" d="M6849.8-630.8
					c112.3-7.6,224.2-18.3,336-26.9c20.1-1.5,75.6-5.8,118.6-9.6c24.4-2.2,44.7,0.1,51.9,4.7c8.5,2.8,30.4,55.4,59,124.9
					c-86.5-0.2-172.4-1.2-225.9,1.2c-52.6,2.4-69.9,17.2-63.4,91.4c10.6,122.3,12.5,250,22.1,362.2c2.9,65.7,12,143.1,25.7,229.6
					l-263.6-1.1c23.7-115.7,26.8-26.8,21.5-193c-3.1-96.3-13.1-436.9-40-512.8C6875.5-605.8,6856.1-611.1,6849.8-630.8"/>
				<path id="path48_00000167385624073611914840000004545708679553204615_" class="st0" d="M9233.1,2343c1.2-0.8,5.2-0.9,8-1.3
					l143.2-17c51-5.9,101.7-11.9,152.8-17.6c158.1-17.7,126-39.7,176.9,142.2c-42.3,3.4-126.1-6.4-179.4,2.6
					c-22,3.7-38.3,15.6-46.1,32.1c-8,11.3-8.1,42.8-2.5,79.9c8.6,56.5,14.1,126.4,16.7,153.1c17.3,202.2,21.3,280.7,56,462.3
					l-235.5,23.4c13.7-54.1,20.6-95.5,20.5-147.1c0-23.4,0.4-48.8-1.8-79.1c-5.3-74.9-18.8-147-26.8-221.2
					C9295.9,2576.8,9312.9,2507.7,9233.1,2343"/>
				<path id="path50_00000108293890896003848370000001135382956014993558_" class="st0" d="M7950.7,2285.9l256.2,48.7
					c-4.3,72-9.2,79.2-6.6,121.1c1.2,20.1,3.5,46.8,10.3,105.9c7.8,71,23,138.8,31,210.4c11.5,134.7,12.1,179.7,20,241
					c5.6,43,12.2,93.5,39.8,182.7c-27.4-1.9-268.9-39.7-273-46.4c-3.3-5.5,8.7-54.1,10.8-64.8c5.4-28.9,5-47.4,2.4-77.4
					c-4.2-49.4-8.6-99.8-13-149.4c-6.9-78-32.5-369.8-46-439.7C7973.8,2371.9,7959.2,2331.2,7950.7,2285.9"/>
				<path id="path52_00000024721884590162173510000006679399117057693317_" class="st0" d="M8814.8,3686.3h260.7
					c-20.3,79.8-19,17-44,173l-56.8,369.3c-15.5,79-13.4,107.6-18.3,199.5l-260.1-0.7c10.9-46.3,35.3-67.2,52.7-160.6
					c22.7-121.9,43.8-249.6,61.8-372.4C8824,3804.5,8818.1,3774.6,8814.8,3686.3"/>
			</g>
		</g>
	</g>
</g>
</svg>
