<?xml version="1.0" encoding="utf-8"?>
<!-- Generator: Adobe Illustrator 26.5.0, SVG Export Plug-In . SVG Version: 6.00 Build 0)  -->
<svg version="1.1" id="Capa_1" xmlns="http://www.w3.org/2000/svg" xmlns:xlink="http://www.w3.org/1999/xlink" x="0px" y="0px"
	viewBox="0 0 2000 712.8" style="enable-background:new 0 0 2000 712.8;" xml:space="preserve">
<g id="Kith">
	<path d="M579.4,356.4v179h841.2v-358H579.4V356.4z M688.8,284.4c0,26.5,0.3,48.1,0.7,48.1c0.5,0,17-21.7,37-48.1l36.4-48.1h28.9
		c15.8,0,28.8,0.2,28.8,0.5s-15.3,20.7-34,45.5l-34.1,45l1.5,2.8c0.8,1.6,18.5,35,39.3,74.2c20.7,39.3,37.7,71.5,37.7,71.7
		c0,0.2-12.7,0.4-28.2,0.3l-28.1-0.3l-28.1-53.9c-15.5-29.7-28.4-53.9-28.7-53.7s-7,8.1-14.7,17.9l-14.1,17.8l-0.1,36.2v36.3h-50.5
		V236.3h50.5V284.4z M924.3,356.4v120.1h-50.5V236.3h50.5V356.4z M1136.5,257.8v21.5h-61.7v197.2h-50.5V279.3h-60.8v-43h172.9V257.8
		z M1228.1,282.6v46.3h83.2v-92.5h50.5v240.2h-51.4V375.6h-82.2v100.9h-50.5V236.3h50.5V282.6z"/>
</g>
</svg>
