<?xml version="1.0" encoding="utf-8"?>
<!-- Generator: Adobe Illustrator 26.5.0, SVG Export Plug-In . SVG Version: 6.00 Build 0)  -->
<svg version="1.1" id="Capa_1" xmlns="http://www.w3.org/2000/svg" xmlns:xlink="http://www.w3.org/1999/xlink" x="0px" y="0px"
	viewBox="0 0 2000 712.8" style="enable-background:new 0 0 2000 712.8;" xml:space="preserve">
<g id="Dior">
	<path d="M363.9,184.4H530c142.9,0,198.8,83.9,198.8,172.6c0,90.3-71.7,170.8-208.1,170.8H364.1c-2.8,0-3.9-1.8-3.9-3.4
		c0-1.8,1.8-3.4,4.4-3.4h29.2c9.1,0,15-5.4,15-15.5V207.2c0-7.5-3.6-15.8-15.5-15.8h-29.8c-2.3,0-3.6-1.5-3.6-3.4
		C360,186.5,360.5,184.4,363.9,184.4 M467.7,511.8c0,7.5,3.4,9.8,8.3,9.8h44c108.5,0,147.8-83.1,147.8-166.4
		s-41.7-164.1-133.3-164.1h-59.8c-6.2,0-6.7,5.2-6.7,7.5C467.9,198.6,467.7,511.8,467.7,511.8z M745.4,184.4c-2.6,0-4.9,1-4.9,3.1
		c0,2.1,1.3,3.4,3.6,3.4h29.2c6.7,0,13.2,4.7,13.2,17.6v297.4c0,6.2-4.7,15.5-12.9,15.5h-29c-3.4,0-3.6,2.6-3.6,3.6
		s-0.3,2.8,3.6,2.8h140.8c2.1,0,4.9-0.3,4.9-2.3s-0.5-4.1-4.1-4.1H859c-3.9,0-14.5-2.3-14.5-14.2V205.4c0-8.5,5.4-14.2,15.3-14.2
		h26.7c2.3,0,3.6-1.3,3.6-3.1s-1.3-3.4-4.4-3.4H745.4L745.4,184.4z M965.4,356.3c0-95,42.5-171.9,122.2-171.9
		c78.2,0,122.2,76.9,122.2,171.9s-40.1,171.9-122.2,171.9C1008.1,528.4,965.4,451.3,965.4,356.3 M1087.6,535.4
		c113.4,0,184.8-80.2,184.8-178.9s-70.7-179.1-184.8-179.1c-113.9,0-184.8,80.2-184.8,178.9S976.5,535.4,1087.6,535.4 M1634.8,525.8
		c-44.5,4.7-69.1-68.3-91.6-103c-16.8-25.6-52.5-51.8-87.7-56.9c58-3.4,122.9-22,122.9-87.7c0-53.3-32.9-93.7-153.5-93.7h-139
		c-1.8,0-3.6,1-3.6,3.1c0,2.1,1.8,3.4,3.6,3.4h31.8c6.7,0,13.2,4.7,13.2,17.6v297.4c0,6.2-4.7,15.5-12.9,15.5h-31.3
		c-2.6,0-3.6,2.1-3.6,3.1c0,1,1,3.4,3.6,3.4h147.5c2.1,0,3.9-1,3.9-3.1c0-2.1-1.3-3.4-4.1-3.4h-29.8c-3.9,0-14.5-2.6-14.5-14.2
		V366.6h15.3c73,0,78.4,79.2,114.7,124.5c31.1,38.8,71.7,43.7,94.7,43.7c9.8,0,16.6-0.3,22.8-1.8
		C1641,531.8,1641.7,525,1634.8,525.8 M1404.4,190.9h21.5c36.8,0,96.3,14.5,96.3,83.9c0,63.7-52.8,85.2-101.7,85.2h-31.3V205.4
		C1389.1,196.6,1394.6,190.9,1404.4,190.9"/>
</g>
</svg>
