<?xml version="1.0" encoding="utf-8"?>
<!-- Generator: Adobe Illustrator 26.5.0, SVG Export Plug-In . SVG Version: 6.00 Build 0)  -->
<svg version="1.1" id="Capa_1" xmlns="http://www.w3.org/2000/svg" xmlns:xlink="http://www.w3.org/1999/xlink" x="0px" y="0px"
    viewBox="0 0 2000 712.8" style="enable-background:new 0 0 2000 712.8;" xml:space="preserve">
<g id="Palace">
	<path d="M945,667.2l10.5-34.5l-22.8,34.5 M816.2,601l174.5-303.9L940.9,211L652.2,712.8h701.1l53.9-111.9h-591V601z M863.1,698.2
		h-22.2l41.6-83.1h24.7c6.4,0,11.7,0.6,14.7,1.1c3,1.1,5.3,2.3,5.8,4.1c1.1,1.7,1.7,3.6,1.7,6.4c0,2.3-1.1,6.4-3.6,11.7l-4.1,8.3
		c-3.6,5.3-7,7.6-10,10.5c-2.3,2.3-5.8,4.1-9.4,5.8c-4.1,1.1-8.8,3-14.1,3l-10,0.6L863.1,698.2z M933.9,698.2l5.3-14.7h-15.8
		l-8.8,14.7h-25.2l62-83.1h26.9l-21.1,83.1H933.9z M1051.7,698.2l5.3-14.7h-15.8l-8.8,14.7h-72l41.6-83.1h21.7l-32.2,66.1h25.2
		l-4.1,8.8l56.2-75h27.5l-21.1,83.1L1051.7,698.2L1051.7,698.2z M1099,699.4c-7,0-8.8-0.6-12.3-3c-3.6-2.3-5.3-5.8-4.7-10
		c0.6-4.1,2.3-10.5,5.8-19.4c0,0,5.8-12.8,11.7-22.8c3.6-6.4,8.3-12.3,8.8-13.4c1.7-3,4.7-5.8,8.8-8.8c3.6-3,8.3-4.7,12.8-6.4
		c4.7-1.7,6.4-1.7,11.7-1.7c7,0,12.3,1.1,15.8,3.6c3.6,2.3,5.3,5.3,4.7,9.4c-0.6,3.6-2.3,9.4-6.4,17l-1.1,2.3h-20.5l4.1-8.8
		c2.3-4.1,1.7-7,1.1-7.6c-11.1-8.8-39.2,49.7-32.2,55.6c1.1,1.1,4.1,0.6,6.4-1.1c1.1-1.1,3-3.6,5.3-8.3l5.3-10.5h20.5l-1.7,3.6
		c-4.1,8.8-8.3,14.7-11.1,18.1c-3,3.6-7.6,6.4-14.1,9.4C1112.5,698.8,1106.1,699.4,1099,699.4L1099,699.4z M1214.5,632.1h-26.4
		l-7.6,15.8h25.2l-8.3,15.8h-25.2l-9.4,18.1h28.1l-8.3,16.4h-50.3l41.6-83.1h49.2L1214.5,632.1z M1063.4,667.2l10.5-34.5l-22.8,34.5
		M897,649.1c1.1-1.1,3-3,5.3-5.8l3.6-6.4c1.1-3,0.6-4.1,0-4.7s-2.3-1.7-8.3-2.3l-10,20c3,0.6,3.6,0.6,4.1,0.6
		C894,650.8,895.9,650.2,897,649.1z M744.2,453.3L720.2,427l18.1,36.9 M698.4,472.1c-1.7-2.3-3-2.3-4.1-2.3s-3,1.1-5.8,5.8
		l11.7,18.7c1.7-2.3,2.3-3,2.3-3.6c1.1-1.7,1.7-3.6,1.7-5.3c0-1.7-0.6-4.1-2.3-7C702,478.6,698.4,472.1,698.4,472.1z M804.5,352.1
		l-23.9-26.9l17.5,37.5 M1103.7,471.6h112.5L940.9,3L591.8,596.9L647,709.4l293.9-511.9C940.9,197.4,1103.7,471.6,1103.7,471.6z
		M718.4,558.8l-50.3-78.5l12.8-21.1c3.6-5.8,6.4-10,8.8-11.7c2.3-2.3,4.7-3.6,6.4-3.6c1.7,0,4.1,0.6,6.4,1.7
		c2.3,1.7,5.3,4.1,8.8,8.8l4.7,7.6c3,5.8,3,10.5,4.1,13.4c0.6,3.6,0.6,7,0,11.1c-1.1,4.1-1.7,8.8-4.7,13.4l-5.3,9.4l19.4,30.5
		C729.5,540.1,718.4,558.8,718.4,558.8z M765.3,479.1l-10-12.3L747,481l8.3,15.2l-12.8,21.7l-39.9-96.1l14.1-23.4l60.9,60.3
		C777.5,458.6,765.3,479.1,765.3,479.1z M825.6,377.8l-10-11.7l-8.3,14.1l8.3,15.2l-12.8,21.7l-23.4,39.8L729.1,379l11.1-18.7
		l40.3,61.4l12.8-21.7l5.3,8.3l-35.8-86.7l14.1-23.4l60.3,59.2L825.6,377.8z M857.8,318.8c-0.6,6.4-3.6,12.8-7,18.7
		c-3.6,6.4-4.7,7-8.8,9.4c-3.6,1.7-7.6,1.1-11.1-1.1c-3.6-2.3-8.3-7.6-13.4-15.2c0,0-7.6-11.7-13.4-21.7c-4.1-6.4-6.4-12.8-7-14.7
		c-1.7-3-2.3-7-3-11.7c-0.6-4.7,0-9.4,1.1-14.7s1.1-6.4,4.1-11.1c3.6-6.4,7.6-10,11.1-11.7c4.1-1.7,7.6-1.7,10.5,0.6
		c3,2.3,7,7,11.7,14.1l1.1,1.7l-10.5,17.5l-5.3-8.3c-2.3-4.1-5.3-5.3-5.8-4.7c-12.8,5.3,23.4,59.2,31.1,56.2
		c1.7-0.6,2.3-3.6,2.3-6.4c0-1.7-1.7-4.1-4.1-8.8l-6.4-10l10.5-17.5l1.7,3c5.3,8.3,8.8,14.7,10,18.7
		C858.4,306.4,858.4,312.2,857.8,318.8z M866.5,308.8l-50.3-77.8l25.2-42.2l10,15.8L838,226.8l9.4,14.7l12.8-21.7l9.4,14.7
		l-12.8,21.7l11.1,17l14.1-23.9l10,15.8C891.7,264.9,866.5,308.8,866.5,308.8z M1168.7,299.9l34.5-5.8l-41.1-5.3 M1107.3,193.3
		l34.5-5.8l-41.1-5.3 M893.4,479.1l-62.7,113.6h577.5L1058.7,0H946.8L1229,479.1H893.4L893.4,479.1z M1027,113.8h91.9l12.8,22.2
		c3.6,5.8,5.8,10.5,6.4,14.1c0.6,3.6,0.6,5.8,0,7.6c-1.1,1.7-2.3,3.6-4.7,4.7c-2.3,1.1-5.8,2.3-11.7,2.3h-8.7
		c-6.4-0.6-10.6-3-14.1-4.1c-3.6-1.1-6.4-3-10-6.4c-3-3-7-6.4-10-11.1l-5.3-8.8H1038C1038.1,134.1,1027,113.8,1027,113.8z
		M1075.1,197.4l15.2-2.3l-8.3-14.7l-17-1.1l-13.4-22.8l102.5,18.1l14.1,24.7l-80.8,18.7L1075.1,197.4z M1136.5,304.1l15.2-2.3
		l-8.3-14.7l-17-1.1l-12.3-21.1L1089,221h91.9l11.1,19.4l-73.3,1.1l13.4,22.8l-9.4,0.6l93.1,17l14.1,24.7l-80.8,18.7
		C1149.5,325.2,1136.5,304.1,1136.5,304.1z M1160,347.4c-3.6-6.4-4.1-8.3-4.1-12.3c0-4,2.3-7,6.4-8.8c3.6-1.1,10.5-3,19.4-3.6
		c0,0,14.1-0.6,25.8,0c7.6,0.6,14.7,1.7,15.8,1.7c3.6,0.6,7.6,1.7,11.7,3.6c4.1,2.3,8.3,5.3,12.3,8.8c4.1,3.6,4.7,4.7,7.6,9.4
		c3.6,6.4,5.3,11.7,5.3,16.4c0,4.1-1.7,7-5.3,8.3c-3.6,1.1-9.4,1.7-17.5,1.7h-2.3l-10.6-18.7h9.4c4.7,0,7-1.1,7-2.3
		c1.7-14.1-62.7-12.3-63.9-4.1c0,1.7,1.7,4.1,4.7,5.3c1.7,0.6,4.7,1.1,9.4,1.1h11.7l10.6,18.7h-3.6c-9.4,0-16.4-0.6-21.1-1.7
		c-4.7-1.1-10-4.1-15.2-8.3C1167.6,359.1,1163.4,353.8,1160,347.4z M1228.4,396.6h-20l14.7,25.2h-18.1l-26.4-45.6h91.9l25.8,44.5
		h-18.1l-13.4-23.9h-17.5l13.4,22.8h-17.5L1228.4,396.6z M1097.3,141.8c1.7,0.6,4.1,1.7,7.6,1.7h7c3-0.6,3.6-1.1,4.1-2.3
		c0.6-1.1,0-3-2.3-8.3H1092c1.1,3,1.7,3.6,1.7,4.1C1094.3,139.4,1096.2,141.3,1097.3,141.8z"/>
</g>
</svg>