<?xml version="1.0" encoding="utf-8"?>
<!-- Generator: Adobe Illustrator 26.5.0, SVG Export Plug-In . SVG Version: 6.00 Build 0)  -->
<svg version="1.1" id="Capa_1" xmlns="http://www.w3.org/2000/svg" xmlns:xlink="http://www.w3.org/1999/xlink" x="0px" y="0px"
	viewBox="0 0 2000 712.8" style="enable-background:new 0 0 2000 712.8;" xml:space="preserve">
<g id="Vans">
	<polygon points="166.7,570.1 171.6,627 198.2,627 193.2,570.1 	"/>
	<polygon points="533,709.9 572.1,709.9 572.1,660.2 638.9,660.2 638.9,628.1 571.8,628.1 571.8,604.5 645.9,604.5 645.9,570.6 
		532.7,570.6 	"/>
	<polygon points="124.3,570.1 129.3,627 155.9,627 150.9,570.1 	"/>
	<polygon points="396.7,709.9 435.8,709.9 435.8,660.2 502.6,660.2 502.6,628.1 435.8,628.1 435.8,604.5 509.9,604.5 509.9,570.6 
		396.7,570.6 	"/>
	<path d="M296.3,568c-43.5,0-76.5,32.4-76.5,72.4v0.3c0,40,32.4,72.1,75.9,72.1c43.5,0,76.5-32.4,76.5-72.4v-0.3
		C372.2,600.1,339.8,568,296.3,568z M297.7,677.8c-0.6,0-1.2,0-1.8,0c-20.1,0-36.2-16.6-36.2-36.5c0-0.3,0-0.6,0-0.9v-0.3
		c0-20.1,14.3-37.1,35.9-37.1c20.1,0,36.5,16.3,36.5,36.5c0,0.3,0,0.9,0,1.2C333,660.5,317.6,677.2,297.7,677.8z"/>
	<polygon points="954.2,622.9 903.7,622.9 903.7,570.6 864.6,570.6 864.6,709.9 903.4,709.9 903.4,657 954.2,657 954.2,709.9 
		993.3,709.9 993.3,570.9 954.2,570.9 	"/>
	<path d="M1458.3,569.8l-60.1,140.1h41.2l10.2-24.8h54.9l10.2,24.8h42l-60.4-140.1H1458.3z M1460.9,655l16.1-39.7l15.8,39.7H1460.9z
		"/>
	<polygon points="1614.4,570.6 1575.3,570.6 1575,709.9 1683,709.9 1683,676 1614.4,676 	"/>
	<polygon points="1374.5,570.9 1349.7,651.5 1322.2,570.6 1288.4,570.6 1260.9,651.5 1236.1,570.9 1194.7,570.9 1242.6,711 
		1276.7,711 1305,631.1 1333.6,711 1367.8,711 1415.1,570.9 	"/>
	<polygon points="1744.3,570.6 1705.2,570.6 1704.9,709.9 1812.9,709.9 1812.9,676 1744.3,676 	"/>
	<polygon points="1849.1,570.1 1844.1,627 1870.7,627 1875.7,570.1 	"/>
	<polygon points="1802.1,627 1828.7,627 1833.6,570.1 1807.1,570.1 	"/>
	<polygon points="1058.7,655 1126.4,655 1126.4,624.6 1058.4,624.6 1058.4,603.6 1133.4,603.6 1133.4,570.9 1019.6,570.9 
		1019.8,709.9 1134.9,709.9 1134.9,677.2 1058.7,677.2 	"/>
	<polygon points="714.2,604.8 756.9,604.8 756.9,709.9 796,709.9 796,604.5 838.6,604.5 838.6,570.9 714.2,570.9 	"/>
	<path d="M1653.2,433.2h3.2l3.8,5.8h4.7l-4.1-6.4c2-0.9,3.5-2.9,3.2-5.5c0-3.2-2.6-6.1-6.1-5.8c-0.3,0-0.6,0-0.9,0h-7.9V439h4.1
		V433.2z M1652.9,424.7h3.8c1.5-0.3,2.9,0.3,3.2,1.8c0.3,0.3,0.3,0.6,0.3,0.9c0,1.5-1.2,2.6-2.6,2.6c-0.3,0-0.3,0-0.6,0h-4.1V424.7z
		"/>
	<path d="M1642.7,220.4h-0.6c0,0.2,0,0.4,0,0.6L1642.7,220.4z"/>
	<path d="M1517.8,386.2c-38.8,0-58.7-11.1-66.6-39.7h-80c0,39.4,33.9,104.5,136.9,104.5c74.7,0,97.5-20.7,112.4-36.2
		c19.8-21,24.5-46.4,24.5-67.4c0-37.9-21.9-73.8-67.1-85.8l-68.9-18.4c-32.4-7.3-42.9-18.4-42.9-31.8c0-12,12.6-24.2,42-24.2
		c42.6,0,51.1,14.6,58.4,33.3h75.6c-0.3-24.4-22.3-55.3-40.8-67.7c-21-14.3-47.6-27.7-94.3-27.7c-39.7,0-64.8,9.3-89.3,27.1
		c-44.1,32.1-47,94.3-6.4,128.7c15.5,13.1,37.4,19.6,63.6,27.4l54.6,14.6c21.6,5.8,38.5,13.4,38.5,33
		C1568,376.5,1545,386.2,1517.8,386.2z"/>
	<path d="M1655.9,447.5c9.6,0,17.2-7.3,16.9-16.9c0-9.3-7.6-16.9-16.9-16.9s-16.9,7.6-16.9,16.9
		C1638.9,439.9,1646.5,447.5,1655.9,447.5z M1656.2,415.6c8.2,0,14.9,6.4,14.9,14.6v0.3c0,8.2-6.7,14.9-14.9,14.9
		c-8.2,0-14.9-6.7-14.9-14.9C1641.3,422.4,1648,415.6,1656.2,415.6z"/>
	<path d="M756.9,77.6h906.3l7-77.3H687.4L566.3,306.5L457.4,0L357,0.3c0.6,2.6,159.4,446.9,159.4,446.9h94.6L756.9,77.6z"/>
	<polygon points="1332.8,446.9 1332.8,131.1 1247.5,131.1 1247.5,302.7 1140.4,131.1 1058.7,131.1 1058.7,446.9 1140.4,446.9 
		1140.4,287.2 1140.4,287.2 1258.6,446.9 	"/>
	<path d="M797.1,397.5h120.3l17.5,49.3h89.3L909.8,131.1h-96.3L689.4,446.9h90.8L797.1,397.5z M857.9,235.3l34.7,105.1h-70.1
		L857.9,235.3z"/>
</g>
</svg>