<?xml version="1.0" encoding="utf-8"?>
<!-- Generator: Adobe Illustrator 26.5.0, SVG Export Plug-In . SVG Version: 6.00 Build 0)  -->
<svg version="1.1" id="Capa_1" xmlns="http://www.w3.org/2000/svg" xmlns:xlink="http://www.w3.org/1999/xlink" x="0px" y="0px"
	viewBox="0 0 2000 712.8" style="enable-background:new 0 0 2000 712.8;" xml:space="preserve">
<g id="Jordan">
	<g>
		<path d="M1033.1,48.6c-0.3-1.5-0.5-3.2-0.6-4.8c-1.6-22.5,15.4-42.1,38-43.7c22.6-1.6,42.1,15.4,43.7,38s-15.4,42.1-37.9,43.7
			c-1.4,0.1-2.8,0.1-4.2,0.1c-0.9,0.2-1.5,0.3-2.2,1c-2.3,3.6,5.9,2.9,0.3,18.7c0,0,0,1.7-0.7,3.5c-0.4,6.1-2.8,24-3.1,33.6
			c1.2,1.4,1.5,2.1,1.4,5.4c-0.5,4.5-1.6,15.7-3.2,22.8c-1.4,6.1-3.9,7.3-5.9,8.8c-2.8,12.7-3.6,23.2-10.8,38.6
			c-0.7,11.7-1.5,14.9-3.9,20.6c-0.3,17.2,0.9,19.8-10.7,47c-3,12.7-0.2,21.5,3,34.8c3.2,13.6,12.2,19.3,13.5,33.2
			c3.1,32.8,2.4,55.1-4.7,80.8l6.1,14.5c7.6,3.5,26.5,13,16,28.2c14.8,7.8,37.1,16,55.5,31.7c7.4,6.2,15.2,12.9,22.2,20.8
			c13.4,2.1,11.9,3.1,21.8,9.2c29.1,17.8,75.8,53.3,102.9,78.3c4.7,2.7,6.6,4.7,10.3,6.6c0.6,1.1,0.7,1.4,0.6,1.7
			c-1.3,3.3-1.2,3.4-2.4,6c1.5,1.6,4.2,3.1,5.8,4.5c1.5,0.5,1.5-0.2,4.1-0.9c3.4,3.2,7.6,5.7,9.1,5.6c4.6-1.2,3.8-0.2,7.7-4.6
			c1.4-1.4,3.7,0,3.7,0c1.5-1.7,4.6-5.1,8.8-7.6c3.3-2,9.7-2.2,9.7-2.2c2.1,0,1.7,2.2,1.6,2.9c-2.4,1.2-7.5,2.6-10.4,4.7
			c-6.2,6.5-11.1,15.2-11.1,15.2c12.6-1.7,20.3,1.4,30.8,0.2c5.7-0.3,9.9,0,15.9-4.3c0,0,5.8-4.1,10.9-6.3c5-2.2,9.8-1,14.2,2.2
			c3.1,3.5,5,3.5,0.2,8.5c-1.7,1.9-4.2,4.1-7.4,7.2c-5.6,5.5-13,12.8-20.8,18.9c-7.8,6.1-16.7,11.6-22.3,14.1
			c-14,10.1-10.7,7.4-21.7,17.4c-1.4,1.2-5.1,3.5-6.9,4.7c-4.3,2.8-5.7,0.5-8.5-4.7c0,0-1.3-1.9-3.4-6.1c-2.3-4.5-4.1-9.8-3.4-9.7
			c-2.6-0.3-14.4-14.1-14.4-17.1c-2.5-0.6-13.1-10.8-13.5-12.8l-9.4-7.5c-10.7,2.2-13.2-4.4-41.6-24.6c-3.2-0.1-8.2-1.8-15.4-7.1
			c-12.8-10.2-43.5-33.5-48.7-36.1c-5.6-2.8-12.3-5.5-16.4-8.9c-6.1-1.1-9.5-1.8-12.6-2.6c-3.1-0.9-6-2-13.9-3
			c-12.9-1.6-26.3-7-39.1-13.4c-6-2.9-11.3-4.3-16.5-6.6c-11.7-4.9-21.7-9.4-29.4-11.2c-3-0.3-17-4.5-24.4-8.8c-2.6-1.3-4-2.6-5.7-3
			c-3.9-0.9-6.4,0.6-8.1,1.2c-9.5,4.9-18.3,9.2-26.5,13.6c-7.6,4.1-14.6,8.3-22.1,12.6c-6.7,3.9-14.5,7.5-22.4,11.3
			c0,0-22.7,11.4-35.1,15.8c-10.8,8.8-32.8,24-46.2,31.5c-6.6,3.2-19.6,11.3-25.5,13.2c-3.4,2.7-15.5,11.4-25,18.5
			c-7.3,5.5-12.9,10.1-12.9,10.1c-4.3,3.8-4,5.6-12.1,2.2c-2.2,1.8-4,3-5.4,4.1c-5.8,4.2-6.3,3.2-8.5,3.1c-4.1,3.5-4.6,1.7-8.1,5.8
			c-2.3,3.6,0,2.8-4.9,4.5c-1,0.4-1.5,1.7-2.3,2.4c-4,3.3-4,12.5-13.5,13.2c-5.5,3.9-4.1,8.7-8.3,8.5c0.3,4.1-7.4,10-8.8,10
			c-12.1,4.2-13-4.7-27.5,1.9c-1.9,0.9-4.6,3.2-8.3,3.9c-6.4,1.2-14.1-0.1-18.8-3.7c-7.4-5.7-14.2-16.8-14.2-16.8
			c-2.4-5.6-1-9.1,6.4-14.4c3.1-1.9,3.6-3.4,8.8-3.8c2.6-1,1.9,0.5,6.4-1.1c2.6-0.9,2.6-0.3,8-0.7c1.2-0.8,2.9-1.1,5.2-1.9
			c4.2-1.4,8.3-2.9,8.3-2.9s1.1-1.1,5.1-0.7c3.4-1.4,7-3.5,8.8-4.1c-0.5-5.4,0.1-5.2,2.6-7.4c3.1-2.7,3.7-2.3,6-0.6
			c1-0.6,1.5-0.8,1.3-1.6c-0.4-2.8-2.8-4.2-2.1-10.4c-1.1-2.5-2.7-5.6-2.3-7.5c0.5-2,1-3,2.2-3.6c1.3-0.7,1.7,0.2,2.4,1
			c1.2,1.4,2.2,5.7,2.2,5.7c0.4,4.8,1.9,11.1,6.7,7.5c2.8-2.8,3.4-10.4,9.1-8.8l4.1,3.6c3.5-3.3,3.6-3.3,5.7-4.6
			c0,0-3.2-3.3-0.4-5.8c1.9-1.7,4.3-3,8.5-7.6c11.5-12.7,17.4-18.3,29.8-28.5c24.8-20.4,53-34.7,70.9-41.8
			c5.8-7.4,11.5-12.3,24.5-13.6c15.4-26,44.9-49.3,51.7-53c5.5-10,7.9-8.9,15.1-10.9c5.7-4.6,7-4.6,9.6-9.4
			c2.5-9.9-5.7-36.3,15.3-37.6c4.5-6.3,3.3-4.8,8.3-10.7c-3.4-8.3-4.7-15.2-5.7-21.2c-0.2-0.7-8.3-6.4-6-14
			c-3.5-4.1-10-13.8-12-18.3c-0.9,0-1.7-0.3-2.7-0.5c-1.1-0.2-2.4-0.1-3.9-0.2c-3.3,8.4-6.8,9.1-12.6,10.9
			c-10.4,22.1-14,31.5-43.4,49.8c-11.7,13-15.4,27.6-15.3,27.4c-2,4.3-1.3,10.3-0.2,13.6c-1.5,4.8-1.1,5.3-1.1,5.3
			c0.6,1.8,2.3,4.2,4.3,4.7c3.5,0.9,7.1,0.8,6.8,4.7c-0.5,4.9-6.9,4.1-10,3.6c-11.7-1.9-8-9.5-15.5-7c-5.8,3.8-7.9,14.9-17.3,13.4
			c-1.2-0.8-0.9-3.2,0-5c1.3-2.7,3.6-5,2.3-6c-6.1,1.9-18.3,6-18.3,6c-5.8,1.6-12.1-1.3-6.4-5.1c2.6-1,6.4-2.3,11-5.3
			c0,0,2.4-3.2-2.2-1.6c-5,1.8-12.4,2.9-17.7,2.3c0,0-11-1.4-12.4-2.3c-1.4-0.9-2.7-4.3,0.7-4.2c4.3,0,15.2-1.2,23.7-3.5
			c4.1-1.6,11.8-6.2,16.2-8.3c0,0,4.7-6.9,7.3-8.2c4.3-5,8-7.9,11.8-13c3.7-7.7,7.6-20,20-38.9c5.7-8.7,12.9-18.9,21.8-28
			c0,0,2.3-14.6,14-24.9c2.6-6.1,6.5-13.2,10.3-19.8c1.5-2.5,2.9-4.7,4.3-7.2c3.6-5.7,7.4-16.3,21.5-17.9c0,0,6-4.5,8.3-7.6
			c3.6-3.1,2.8-7.9,5.7-11.3c-4.5-4.4-16-12.6-17.1-24.1c-1.2-12.1,3.1-22.1,10.5-29.5c8.1-8.1,16.7-12.2,27.2-11.6
			c13,1.9,15.5,6.2,19.6,10.5c4,4.1,5.5,1.4,7.1,6.2c10.9,2.9,10.3,1.6,10.2,9.7c1.7,2.3,4.5,4.4,4.5,9.1c3.7-7.6,4.4-9,14.2-17.4
			c2.3-6.8,3.9-13.5,5.9-20.3c1.9-6.3,4.3-12.8,6.1-17.7c-1.9-13.8,2.1-16.1,7.4-28.1c-0.9-1.7-0.7-2.1-0.3-4.9
			c2.1-8,5.3-18.5,7.3-25.4c0,0,0.6-2.7,3.5-2.9c2.4-8.7,6.1-24.9,6.7-28.2c2.5-9.1,0.9-12-1-17.2c-0.6-1.7-0.3-4.1-1.4-5.9
			c-3-5.3-6.3-12.2-8.6-17.2c-1.4-3.1-3.7-15-3.7-15C1031.4,42.5,1033.1,48.6,1033.1,48.6"/>
	</g>
</g>
</svg>
