<?xml version="1.0" encoding="utf-8"?>
<!-- Generator: Adobe Illustrator 26.5.0, SVG Export Plug-In . SVG Version: 6.00 Build 0)  -->
<svg version="1.1" id="Capa_1" xmlns="http://www.w3.org/2000/svg" xmlns:xlink="http://www.w3.org/1999/xlink" x="0px" y="0px"
	viewBox="0 0 2000 712.8" style="enable-background:new 0 0 2000 712.8;" xml:space="preserve">
<g id="Off-White">
	<path d="M186.8,460.2c13-18.2,20.8-41.5,20.8-72.6s-7.8-54.5-20.8-72.6S155.6,289,132.3,289s-41.5,7.8-54.5,25.9
		s-20.8,41.5-20.8,72.6s7.8,54.5,20.8,72.6s31.1,25.9,54.5,25.9S173.8,475.7,186.8,460.2 M223.1,501.7
		c-20.8,20.8-51.9,33.7-90.8,33.7s-70-10.4-90.8-33.7C13,475.7,0,436.8,0,387.5c0-51.9,13-88.2,41.5-114.1
		c20.8-20.8,51.9-33.7,90.8-33.7s70,10.4,90.8,33.7c28.5,25.9,41.5,64.9,41.5,114.1S251.6,475.7,223.1,501.7"/>
	<path d="M389.1,244.8c2.6,0,7.8,0,10.4,0v44.1c-2.6,0-7.8,0-15.6,0s-13,2.6-15.6,5.2c-2.6,2.6-5.2,7.8-5.2,10.4v18.2h36.3v38.9
		h-36.3v166h-54.5v-166h-25.9v-38.9h28.5v-13c0-20.8,2.6-36.3,10.4-46.7c7.8-13,25.9-18.2,57.1-18.2
		C383.9,244.8,386.5,244.8,389.1,244.8"/>
	<path d="M518.8,244.8c2.6,0,7.8,0,10.4,0v44.1c-2.6,0-7.8,0-15.6,0c-7.8,0-13,2.6-15.6,5.2c-2.6,2.6-5.2,7.8-5.2,10.4v18.2h36.3
		v38.9h-36.3v166h-54.5v-166h-25.9v-38.9H441v-13c0-20.8,2.6-36.3,10.4-46.7c7.8-13,25.9-18.2,57.1-18.2
		C511,244.8,516.2,244.8,518.8,244.8"/>
	<rect x="544.8" y="392.7" width="106.4" height="51.9"/>
	<polygon points="731.5,247.4 767.8,408.3 775.6,452.4 783.4,408.3 817.1,247.4 876.8,247.4 910.5,408.3 918.3,452.4 926.1,408.3 
		965,247.4 1024.6,247.4 944.2,525 889.8,525 856,364.2 845.7,309.7 835.3,364.2 804.2,525 749.7,525 669.3,247.4 	"/>
	<path d="M1201,322.7c10.4,5.2,18.2,10.4,25.9,20.8c5.2,7.8,7.8,15.6,10.4,23.4c0,7.8,2.6,20.8,2.6,38.9v121.9h-54.5V403.1
		c0-10.4-2.6-20.8-5.2-25.9c-5.2-10.4-13-15.6-28.5-15.6c-13,0-25.9,5.2-31.1,13c-7.8,10.4-10.4,23.4-10.4,41.5v111.5h-54.5V250
		h54.5v98.6c7.8-13,15.6-20.8,25.9-25.9c10.4-5.2,20.8-7.8,31.1-7.8C1180.3,314.9,1190.7,317.5,1201,322.7"/>
	<path d="M1289.2,320.1h54.5V525h-54.5V320.1z M1343.7,296.7h-54.5v-49.3h54.5V296.7z"/>
	<path d="M1374.8,361.6v-38.9h28.5v-57.1h51.9v57.1h33.7v38.9h-33.7v109c0,7.8,0,13,2.6,15.6s7.8,2.6,20.8,2.6c2.6,0,2.6,0,5.2,0
		c2.6,0,2.6,0,5.2,0v38.9H1463c-25.9,0-41.5-2.6-51.9-13c-5.2-5.2-7.8-15.6-7.8-28.5V359L1374.8,361.6L1374.8,361.6z"/>
	<path d="M1579.8,372c-7.8,7.8-13,18.2-15.6,31.1h93.4c0-13-5.2-25.9-15.6-33.7c-7.8-7.8-18.2-10.4-31.1-10.4
		S1587.6,364.2,1579.8,372 M1660.2,325.3c15.6,5.2,25.9,15.6,36.3,31.1c7.8,13,13,25.9,15.6,41.5c2.6,10.4,2.6,23.4,2.6,41.5h-150.5
		c0,20.8,7.8,36.3,20.8,44.1c7.8,5.2,18.2,7.8,28.5,7.8c13,0,23.3-2.6,28.5-10.4c5.2-2.6,7.8-7.8,10.4-13h54.5
		c-2.6,13-7.8,23.4-20.8,36.3c-18.2,20.8-44.1,31.1-77.8,31.1c-28.5,0-51.9-7.8-72.6-25.9c-20.8-15.6-31.1-44.1-31.1-83
		c0-36.3,10.4-62.3,28.5-83c18.2-18.2,44.1-28.5,72.6-28.5C1629.1,314.9,1644.6,317.5,1660.2,325.3"/>
	<polygon points="1834,177.4 1834,203.3 1789.9,203.3 1789.9,327.9 1758.8,327.9 1758.8,203.3 1712.1,203.3 1712.1,177.4 	"/>
	<path d="M1953.3,177.4h46.7v150.4h-31.1V226.7c0-2.6,0-7.8,0-13s0-10.4,0-13l-28.5,127.1h-31.1l-28.5-127.1c0,2.6,0,7.8,0,13
		s0,10.4,0,13v101.2h-28.5V177.4h46.7l28.5,119.3L1953.3,177.4z"/>
</g>
</svg>
