<?xml version="1.0" encoding="utf-8"?>
<!-- Generator: Adobe Illustrator 26.5.0, SVG Export Plug-In . SVG Version: 6.00 Build 0)  -->
<svg version="1.1" id="Capa_1" xmlns="http://www.w3.org/2000/svg" xmlns:xlink="http://www.w3.org/1999/xlink" x="0px" y="0px"
	viewBox="0 0 2000 712.8" style="enable-background:new 0 0 2000 712.8;" xml:space="preserve">
<g id="Adidas">
		<g id="g10_00000031185904750279608410000008289968367561627835_" transform="matrix(1.3333333,0,0,-1.3333333,-232.36735,4260.5934)">
		<g id="g12_00000164494251397607564080000009332521116820523435_" transform="scale(0.1)">
		</g>
			<g id="g44_00000137129343027450115470000003264600127182083775_" transform="matrix(1.6077333,0,0,1.6077333,-7865.8795,-6063.8726)">
			<g>
				<g id="g46_00000013165827133518133740000005792647385690938496_">
					<path id="path52_00000098192266923549203440000013055933333516994968_" d="M5326.5,5426.7c-16.5,0-30,13.5-30,30.1
						c0,16.9,13.5,30,30,30c6.4,0,12.5-1.7,17.6-5.1v4.4h14.2v-58.1h-14.2v3.7C5339,5428.8,5333.2,5426.7,5326.5,5426.7
						L5326.5,5426.7z M5310.3,5456.8c0-8.8,7.8-16.5,16.5-16.5c9.4,0,17.2,7.8,17.2,16.5c0,9.1-7.8,16.9-17.2,16.9
						C5318.1,5473.7,5310.3,5465.9,5310.3,5456.8z M5393.3,5426.7c-16.5,0-30.4,13.5-30.4,30.1c0,16.9,13.8,30,30.4,30
						c6.4,0,12.1-1.7,17.2-5.1v24.3h14.5v-78h-14.5v3.7C5405.5,5428.8,5399.7,5426.7,5393.3,5426.7z M5376.8,5456.8
						c0-8.8,7.8-16.5,17.2-16.5c8.8,0,16.5,7.8,16.5,16.5c0,9.1-7.8,16.9-16.5,16.9C5384.5,5473.7,5376.8,5465.9,5376.8,5456.8z
						M5446.3,5428.1h-14.2v58.1h14.2V5428.1z M5446.3,5491.6h-14.2v14.5h14.2V5491.6z M5499.7,5506.1h14.2v-78h-14.2v3.7
						c-4.7-3.1-10.8-5.1-17.2-5.1c-16.6,0-30,13.5-30,30.1c0,16.9,13.5,30,30,30c6.4,0,12.1-1.7,17.2-5.1V5506.1z M5466.2,5456.8
						c0-8.8,7.7-16.5,16.5-16.5c9.1,0,16.9,7.8,16.9,16.5c0,9.1-7.8,16.9-16.9,16.9C5474,5473.7,5466.2,5465.9,5466.2,5456.8z
						M5548.9,5426.7c-16.5,0-30.4,13.5-30.4,30.1c0,16.9,13.8,30,30.4,30c6.4,0,12.2-1.7,16.9-5.1v4.4h14.5v-58.1h-14.5v3.7
						C5561.1,5428.8,5555.4,5426.7,5548.9,5426.7L5548.9,5426.7z M5532.7,5456.8c0-8.8,7.8-16.5,16.9-16.5c8.8,0,16.2,7.8,16.2,16.5
						c0,9.1-7.4,16.9-16.2,16.9C5540.5,5473.7,5532.7,5465.9,5532.7,5456.8z M5612.1,5426.7c14.2,0,26,5.8,26,20
						c0,8.1-5.7,13.5-14.9,15.9c-9.5,2.4-21.6,2-21.6,8.1c0.7,4.1,4.4,5.1,10.1,5.1c8.8,0,9.1-4.7,9.5-7.8h14.5
						c-1,11.1-10.1,18.9-24.6,18.9c-15.2,0-24-8.1-24-18.6c0-6.1,3-11.5,8.1-14.2c3.7-1.7,8.8-3,14.8-4.1c6.4-0.7,12.2-1.3,12.5-5.7
						c0-3-3.1-6.8-9.8-6.8c-9.8,0-11.8,5.4-11.8,9.1h-15.2C5586.1,5434.9,5595.9,5426.7,5612.1,5426.7L5612.1,5426.7z
						M5511.5,5617.1c0.7,7.8,1.4,15.2,1.4,24c0,47.2-21.3,96.2-44.6,118.1c-23.6-21.9-44.6-70.9-44.6-118.1c0-8.8,0-16.2,1.3-24
						H5511.5z M5417.3,5617.1c-3.7,6.4-8.8,12.5-13.8,18.6c-29,34.1-73.9,55-104.6,57c-2-21.9,4.7-48.6,18.2-75.6H5417.3z
						M5468.3,5521.9c7.1,7.4,14.5,17.6,21.3,30.4h-42.9C5453.8,5539.5,5460.5,5529.4,5468.3,5521.9z M5444.3,5524
						c0.3,7.4,0.3,17.5-1,28.4h-68.9C5398.7,5534.4,5425.1,5525.3,5444.3,5524z M5638.1,5692.7c-31.1-2-75.6-23-104.6-57
						c-5.4-6.1-10.1-12.2-13.9-18.6h99.9C5633,5644.1,5640.1,5670.8,5638.1,5692.7z M5561.8,5552.3h-68.2c-2-10.8-2-20.9-2-28.4
						C5511.5,5525.3,5537.8,5534.4,5561.8,5552.3z M5592.5,5577.3h-248.8c4-4.7,8.4-9.1,12.8-12.1h222.1
						C5584,5568.2,5589.1,5572.6,5592.5,5577.3L5592.5,5577.3z M5612.7,5604.3c-2-4-5.7-9.8-9.1-13.1h-271c-2,2.7-6.8,8.8-8.8,13.1
						H5612.7"/>
					<path id="path54_00000106118470687022173980000000889572431553717933_" d="M5628.5,5505c-3.4,0-6.1-2.8-6.1-6.2
						c0-3.4,2.7-6.2,6.1-6.2c3.4,0,6.1,2.8,6.1,6.2C5634.6,5502.2,5631.9,5505,5628.5,5505z M5628.5,5491.5c-4,0-7.3,3.2-7.3,7.3
						c0,4,3.3,7.3,7.3,7.3c4,0,7.3-3.3,7.3-7.3C5635.8,5494.8,5632.5,5491.5,5628.5,5491.5"/>
					<path id="path56_00000137113501543207674680000005201345271729095047_" d="M5628.7,5501.8h-1.5v-2.8h1.5c0.9,0,1.5,0.6,1.5,1.4
						C5630.2,5501.2,5629.6,5501.8,5628.7,5501.8z M5630.3,5494.8l-1.8,3.3h-1.2v-3.3h-1.1v8h2.7c1.4,0,2.5-1,2.5-2.4
						c0-1.1-0.7-1.9-1.7-2.2l1.9-3.4H5630.3"/>
				</g>
			</g>
		</g>
	</g>
</g>
</svg>
