<?xml version="1.0" encoding="utf-8"?>
<!-- Generator: Adobe Illustrator 26.5.0, SVG Export Plug-In . SVG Version: 6.00 Build 0)  -->
<svg version="1.1" id="Capa_1" xmlns="http://www.w3.org/2000/svg" xmlns:xlink="http://www.w3.org/1999/xlink" x="0px" y="0px"
	viewBox="0 0 2000 712.8" style="enable-background:new 0 0 2000 712.8;" xml:space="preserve">
<g id="Bape">
	<g id="Bape_00000058547998571685652790000011092889790343137706_">
		<g transform="translate(0.000000,768.000000) scale(0.100000,-0.100000)">
			<path d="M9621.6,7662.6c-605.4-81.1-1019.7-366.6-1295.2-892c-64.4-123.3-93.3-148.8-105.5-92.2c-20,88.9-35.5,53.3-37.8-86.6
				c-1.1-77.8-4.5-88.9-38.9-134.4c-42.2-55.5-157.7-152.2-253.3-213.3c-42.2-26.7-66.6-50-71.1-68.9c-6.7-26.7-4.5-81.1,13.3-366.6
				c8.9-131.1-6.7-195.5-64.4-264.4c-36.7-44.4-149.9-106.6-195.5-106.6c-21.1,0-10-14.4,58.9-81.1c71.1-67.8,83.3-85.5,83.3-116.6
				c0-37.8-50-153.3-111.1-254.4l-34.4-58.9l60-26.7c90-40,102.2-64.4,101.1-206.6c-1.1-88.9-10-157.7-38.9-288.8l-37.8-172.2
				v-299.9c0-179.9,5.5-346.6,14.4-416.5c37.8-302.1,108.8-704.2,174.4-981.9c17.8-73.3,23.3-117.7,16.7-134.4
				c-12.2-33.3-57.8-66.6-120-90c-28.9-11.1-53.3-21.1-55.5-22.2c-2.2-1.1,31.1-36.7,75.5-78.9c126.6-122.2,135.5-186.6,33.3-262.1
				c-31.1-23.3-55.5-46.6-55.5-52.2c0-5.6,14.4-17.8,32.2-27.8c114.4-58.9,364.3-298.8,547.6-527.6
				c216.6-269.9,333.2-391,407.7-422.1c32.2-12.2,37.8-12.2,60,8.9c65.5,62.2,176.6,74.4,269.9,31.1
				c32.2-15.5,96.6-64.4,147.7-113.3c122.2-116.6,211-178.8,307.7-215.5c25.5-10,28.9-6.7,54.4,50c14.4,34.4,33.3,61.1,43.3,61.1
				c8.9,0,36.7-25.5,62.2-55.5c81.1-96.6,156.6-121.1,394.3-130c192.2-6.7,386.5,8.9,436.5,34.4c20,11.1,77.8,74.4,135.5,149.9
				c54.4,73.3,111.1,141.1,124.4,149.9c34.4,24.4,88.9,22.2,124.4-5.5l28.9-22.2v26.7c0,38.9,17.8,55.5,194.4,188.8
				c415.4,312.1,755.3,628.7,988.6,918.6c205.5,255.5,338.8,533.2,338.8,707.6c0,63.3-2.2,67.8-136.6,358.8
				c-116.6,252.1-146.6,345.5-137.7,429.9c7.8,75.5,58.9,185.5,113.3,246.6l42.2,46.6l-20,41.1c-26.7,53.3-35.5,218.8-16.7,321
				c24.4,136.6,31.1,294.4,20,474.3c-10,169.9-10,177.7,12.2,207.7c22.2,28.9,22.2,31.1,2.2,37.8c-23.3,6.7-45.5,50-45.5,88.9
				c0,46.6,36.7,72.2,101.1,72.2h55.5l-22.2,28.9c-28.9,36.7-41.1,85.5-51.1,193.3c-24.4,275.5-206.6,755.3-503.2,1326.3
				c-194.4,373.2-398.8,634.3-616.5,782c-223.3,153.3-547.6,263.2-907.5,307.7C10151.4,7685.9,9787.1,7684.8,9621.6,7662.6z
				M10054.8,6365.2c123.3-22.2,278.8-73.3,359.9-120c133.3-75.5,232.1-213.3,242.2-336.6c8.9-103.3-47.8-165.5-189.9-209.9
				c-167.7-53.3-291-64.4-746.4-67.8c-443.2-2.2-481-5.5-722-60c-80-17.8-179.9-35.5-222.1-40c-185.5-16.7-327.7,64.4-327.7,189.9
				c0,58.9,17.8,92.2,155.5,299.9c68.9,103.3,128.8,199.9,134.4,213.3c13.3,36.7,42.2,31.1,88.9-14.4c25.5-24.4,46.7-36.7,54.4-32.2
				c13.3,7.8,13.3,21.1-3.3,155.5c-3.3,34.4,38.9,33.3,112.2-2.2c61.1-30,68.9-31.1,224.4-30c148.8,0,266.6,15.5,499.8,65.5
				C9764.9,6386.3,9969.3,6379.7,10054.8,6365.2z M9637.1,5285.5c67.8-32.2,105.5-63.3,205.5-163.3
				c103.3-104.4,132.2-142.2,188.8-244.4c40-73.3,94.4-152.2,136.6-197.7c37.8-41.1,68.9-80,68.9-85.5c0-24.4-25.5-75.5-53.3-103.3
				c-53.3-56.6-98.9-35.5-184.4,84.4c-53.3,74.4-85.5,93.3-112.2,65.5c-12.2-12.2-14.4-31.1-10-75.5c6.7-53.3,4.5-62.2-21.1-87.8
				c-20-20-41.1-28.9-68.9-28.9c-38.9,0-38.9-1.1-38.9-46.6c-1.1-146.6-122.2-239.9-343.2-266.6c-205.5-24.4-418.8,15.5-508.7,94.4
				c-77.8,67.8-84.4,123.3-47.8,412.1c27.8,213.3,45.5,291,85.5,364.3c58.9,108.8,209.9,236.6,337.7,286.6
				C9412.7,5350,9511.6,5347.8,9637.1,5285.5z M8563,5118.9c37.8-35.5,118.8-154.4,135.5-203.3c42.2-118.9,10-233.3-64.4-233.3
				c-73.3,1.1-191.1,120-218.8,222.1c-27.8,100-4.5,236.6,41.1,246.6C8485.3,5157.8,8537.5,5141.2,8563,5118.9z M9476.1,4049.3
				c51.1-11.1,94.4-55.6,94.4-95.5c0-16.7-13.3-42.2-31.1-60c-41.1-40-133.3-51.1-285.5-35.5c-117.8,13.3-138.8,23.3-138.8,68.9
				c0,36.7,23.3,58.9,92.2,88.9C9298.3,4055.9,9395,4068.1,9476.1,4049.3z"/>
			<path d="M9576,4826.8c-207.7-102.2-319.9-101.1-373.2,3.3c-20,38.9-25.5,42.2-63.3,38.9c-28.9-2.2-42.2-8.9-44.4-23.3
				c-6.7-31.1,73.3-100,141.1-122.2c76.6-24.4,242.2-25.5,323.2-1.1c73.3,21.1,144.4,86.6,144.4,131.1c0,15.5-3.3,28.9-7.8,27.8
				C9690.4,4881.2,9637.1,4856.8,9576,4826.8z"/>
		</g>
	</g>
</g>
</svg>
