<?xml version="1.0" encoding="utf-8"?>
<!-- Generator: Adobe Illustrator 26.5.0, SVG Export Plug-In . SVG Version: 6.00 Build 0)  -->
<svg version="1.1" id="Capa_1" xmlns="http://www.w3.org/2000/svg" xmlns:xlink="http://www.w3.org/1999/xlink" x="0px" y="0px"
	viewBox="0 0 2000 712.8" style="enable-background:new 0 0 2000 712.8;" xml:space="preserve">
<g id="LV">
	<path d="M1140.5,0c50.6,0,101.2,0,151.8,0c0,11.4-0.1,22.8,0.1,34.2c-12.8,0.6-26,2-37.8,7.4c-12,5.4-22.1,15.2-27.2,27.4
		c-61.5,144.6-123,289.2-184.4,433.9c-1.1,2.4-1.9,4.8-3.2,7.1c-22-0.3-44,0-66-0.1c-9.7-19.3-19.3-38.7-29.1-57.9
		c-11.2,30.1-22.5,60.1-33.7,90.2c72.6,0,145.2,0,217.8,0c13.3,0.2,27-0.4,39.4-5.6c20.7-8.3,37.1-24.3,50.5-41.7
		c16.2-21.1,28.4-44.8,39.3-68.9c12.3-0.1,24.5,0,36.8,0c-23.2,49.6-46.6,99.2-70,148.7c-167.3,0-334.5,0-501.8,0
		c4.1-10.6,7.9-21.3,12.3-31.9c0.3-1.1,1.6-0.8,2.4-0.9c20.9-0.2,41.9-1,62.4-5.3c10.7-2.5,21.7-5.8,29.9-13.4
		c4.3-4.1,5.7-10.2,7.1-15.8c19.7-52.9,39.5-105.7,59.3-158.6c-41.8-89-83.7-178-125.5-267c-3.4-7.8-7.8-15.5-14.8-20.6
		c-14.5-10.8-33.3-12.2-50.7-12.9c0-12.8,0-25.5,0-38.3c58.7,0,117.4,0,176.2,0c0,12.8,0,25.5,0,38.3c-7.6,0.5-15.8,0.4-22.7,4.1
		c-3.4,1.6-5.5,5.7-4.6,9.4c1.1,6.1,5.9,10.4,8.3,15.9c24.8,53.4,49.6,106.8,74.5,160.2c12.5-34.8,24.9-69.7,37.4-104.5
		c1.8-4.8,2.5-10.4,0.4-15.3c-1.6-3.8-5.4-6.2-9.1-7.8c-7.2-2.9-15-2.9-22.6-3.5c3.9-10.8,7.8-21.5,11.8-32.2
		c0.9-0.6,2.2-0.1,3.3-0.3c59.6,0,119.2,0,178.8,0c-4.1,10.8-8.2,21.6-12.3,32.5c-14.3,0.7-29.1,1-42.6,6.6
		c-6.2,2.6-12,6.5-15.6,12.2c-2.5,4.2-4.1,8.8-5.8,13.4c-24.9,67.9-50,135.7-74.6,203.7c13.6,30.8,27.8,61.4,41.8,92.1
		c50.5-119.3,101-238.6,151.6-357.8c3.4-7.2,9-13.7,9.4-22c0.4-6.5-4.4-12-9.9-14.7c-12-5.5-25.4-5.8-38.3-6.3
		C1140.5,22.8,1140.5,11.4,1140.5,0L1140.5,0z M1232.4,642.2c15.9,16.5,31.8,33.1,47.6,49.8c0-15.5,0.1-31,0.1-46.4
		c2.7,0,5.5,0,8.2-0.1c0,22.1,0,44.2,0,66.3c-16-16.4-31.7-33.1-47.6-49.6c0,15.6,0,31.2,0,46.7c-2.7,0-5.5,0-8.2,0
		C1232.4,686.7,1232.4,664.5,1232.4,642.2L1232.4,642.2z M768.2,644.5c17.6-2.7,36.2,11,37.7,29c1.5,10.2-2.5,20.9-10,28
		c-12.3,12.1-34.5,11.8-46.5-0.7c-6.5-6.3-10.2-15.3-9.8-24.3C739.8,660.8,752.8,646.7,768.2,644.5 M768.2,652.6
		c-10.2,1.7-18.5,10.6-20,20.8c-1.9,11.6,5.2,24,16.3,27.8c9.8,3.7,21.7,0.2,27.9-8.1c8.1-10.2,6.7-26.6-3.2-35
		C783.7,653,775.5,651.3,768.2,652.6z M895.1,647.9c9-6.8,23.7-4,28.9,6.2c-2.2,1.2-4.3,2.5-6.5,3.7c-3.9-6.1-13.4-7.6-18.7-2.4
		c-2.2,1.6-2,4.6-1.7,7c0.6,3.2,4,4.5,6.5,6c6.4,3.4,14.2,5.3,18.7,11.5c5,6.9,4.2,17.1-1.3,23.5c-5.8,7-16.3,8.7-24.4,5
		c-6.2-3-10-9.5-11.2-16.1c2.8-0.7,5.5-1.3,8.3-1.9c0.3,6,5,12.1,11.3,12.2c8.6,0.9,15.4-10.2,10.4-17.4
		c-5.3-7.3-15.7-7.4-21.8-13.7C886.5,665.7,887.2,653,895.1,647.9L895.1,647.9z M1188.8,644.5c11.5-1.4,23.4,3.9,30.5,13
		c10.2,12.7,8.6,33.1-3.5,44.1c-6.9,6.8-17.1,9.6-26.6,8.6c-9.4-0.6-18.2-5.9-23.7-13.5c-5.9-8.1-7.4-19-4.6-28.6
		C1164.5,655.5,1176,646.1,1188.8,644.5 M1187.4,652.7c-12.7,2.2-21.8,15.7-19.5,28.2c1.4,12.1,12.9,21.9,25,21.7
		c8.3,0.1,16.2-4.5,20.6-11.4c6.8-9.8,5-24.3-3.7-32.4C1204,653,1195.2,651.1,1187.4,652.7L1187.4,652.7z M711.9,645.5
		c2.6,0,5.2,0,7.9,0c0,18.7,0,37.5,0,56.2c6.5,0,13,0,19.5,0c0,2.4,0,4.8,0,7.2c-9.1,0-18.3,0-27.4,0
		C712,687.8,712,666.7,711.9,645.5z M812.3,645.6c2.8,0,5.5,0,8.3,0c0,12.5,0,25,0,37.5c0.1,5.5,0.8,11.5,4.7,15.7
		c6.2,6.1,18.3,5.2,22.6-2.7c2.2-3.7,2.8-8.1,2.7-12.3c0-12.8,0-25.5,0-38.3c2.8,0,5.5,0,8.3,0c0,13,0,26,0,39.1
		c0,5.9-1,12.2-4.8,16.9c-8.1,11.2-27,11.9-35.8,1.3c-4.2-4.4-6-10.7-6-16.7C812.2,672.6,812.3,659.1,812.3,645.6L812.3,645.6z
		M869.2,645.5c2.7,0,5.5,0,8.2,0c0,21.1,0,42.3,0,63.4c-2.7,0-5.5,0-8.2,0C869.2,687.8,869.2,666.7,869.2,645.5L869.2,645.5z
		M951.4,645.6c3-0.1,6-0.1,9-0.1c6.3,15.4,12.5,30.9,18.7,46.3c6.2-15.4,12.5-30.8,18.6-46.2c3.1-0.3,6.2-0.1,9.3-0.1
		c-9.2,22.4-18.5,44.9-27.8,67.3C969.7,690.5,960.6,668,951.4,645.6L951.4,645.6z M1010.7,645.5c2.7,0,5.5,0.1,8.2,0.1
		c0.1,12.3,0,24.6,0.1,36.9c0.2,5.8,0.6,12.5,5.1,16.8c5.1,4.4,13.3,4.7,18.8,0.8c3.2-2.3,4.9-6,5.6-9.8c1.1-6.5,0.7-13.1,0.8-19.6
		c0-8.3,0.1-16.7,0-25c2.6,0,5.3,0,7.9,0c0.1,11.6,0,23.1,0.1,34.7c0.2,7.2,0,14.9-4.4,21c-7.6,11-25.2,12.2-34.9,3.2
		c-4.8-4.5-7.3-11.1-7.3-17.6C1010.7,673.1,1010.7,659.3,1010.7,645.5L1010.7,645.5z M1067.6,645.6c2.8,0,5.7,0,8.5,0
		c0,21.1,0,42.3,0,63.4c-2.9,0-5.7,0-8.6,0C1067.5,687.8,1067.6,666.7,1067.6,645.6z M1081.2,645.6c25.6,0,51.2,0,76.7,0
		c0,2.5,0,5.1,0,7.6c-4.9,0-9.8,0-14.7,0c0,18.6,0,37.2,0,55.8c-2.9,0-5.7,0-8.6,0c0-18.6,0.1-37.2,0-55.8c-10,0-20.1,0-30.1,0
		c0,18.6,0,37.2,0,55.8c-2.6,0-5.2,0-7.8,0c0-18.6,0-37.2,0-55.8c-5.2,0-10.3,0-15.4,0C1081.2,650.6,1081.2,648.1,1081.2,645.6
		L1081.2,645.6z"/>
</g>
</svg>
