<?xml version="1.0" encoding="utf-8"?>
<!-- Generator: Adobe Illustrator 26.5.0, SVG Export Plug-In . SVG Version: 6.00 Build 0)  -->
<svg version="1.1" id="Capa_1" xmlns="http://www.w3.org/2000/svg" xmlns:xlink="http://www.w3.org/1999/xlink" x="0px" y="0px"
	 viewBox="0 0 500 500" style="enable-background:new 0 0 500 500;" xml:space="preserve">
<style type="text/css">
	.st0{fill:#FFFFFF;}
</style>
<g>
	<g>
		<path class="st0" d="M462.8,296L500,114.4H133L120.2,54L9.6,0L0,19.1l101,48.8l51,243.7h294.9c0,0,29.1,18.3,17.9,41.3
			c-5,7.1-12.8,15.9-26.6,15.9H144.7v21h293.6c20.2,0,37.2-10.6,46.8-27.6C503.9,327.1,462.8,296,462.8,296z M170.2,290.2l-33-154.7
			h337.2l-31.9,154.7H170.2L170.2,290.2z"/>
		<path class="st0" d="M205.3,419.5c-22.3,0-40.4,18-40.4,40.2c0,22.2,18.1,40.2,40.4,40.2s40.4-18,40.4-40.2
			C245.7,437.4,227.7,419.5,205.3,419.5L205.3,419.5z M205.3,478.8c-10.6,0-19.2-8.5-19.2-19.1s8.5-19.1,19.2-19.1
			c10.7,0,19.2,8.5,19.2,19.1S215.9,478.8,205.3,478.8z"/>
		<path class="st0" d="M422.3,419.5c-22.3,0-40.4,18-40.4,40.2c0,22.2,18.1,40.3,40.4,40.3c22.3,0,41.5-18,40.4-40.2
			C462.8,437.6,444.7,419.5,422.3,419.5z M441.5,459.8c0,10.6-8.5,19.1-19.2,19.1c-10.7,0-19.2-8.5-19.2-19.1
			c0-10.6,8.5-19.1,19.2-19.1C433.1,440.7,442.6,449.2,441.5,459.8z"/>
	</g>
</g>
</svg>
