<?xml version="1.0" encoding="utf-8"?>
<!-- Generator: Adobe Illustrator 26.5.0, SVG Export Plug-In . SVG Version: 6.00 Build 0)  -->
<svg version="1.1" id="Capa_1" xmlns="http://www.w3.org/2000/svg" xmlns:xlink="http://www.w3.org/1999/xlink" x="0px" y="0px"
	 viewBox="0 0 6000 1000" style="enable-background:new 0 0 6000 1000;" xml:space="preserve">
<g id="Sneakers">
	<path d="M1002.4,1000c-56.5,0-103.5-12.1-141-36.3c-37.5-24.2-66-57.7-85.4-100.5c-19.4-42.8-30.7-92.4-33.9-148.9l121.1-32.7
		c2.4,34.7,7.9,68.2,16.3,100.5c8.5,32.3,22.4,58.7,41.8,79.3s46.4,30.9,81.1,30.9c35.5,0,62.3-9.9,80.5-29.7
		c18.2-19.8,27.3-48.2,27.3-85.3c0-44.4-10.1-80.1-30.3-107.1c-20.2-27-45.6-54.3-76.3-81.7L839,443.1
		c-32.3-28.2-56.1-59.1-71.4-92.6c-15.3-33.5-23-74.8-23-124.1c0-71.8,20.6-127.5,61.7-167.1C847.5,19.8,903.5,0,974.6,0
		c38.7,0,72.8,5.1,102.3,15.1c29.5,10.1,54.1,25.6,73.9,46.6s35.5,47.4,47.2,79.3s19.6,69.2,23.6,112l-116.2,31.5
		c-2.4-32.3-7.3-61.9-14.5-89s-20-48.8-38.1-65.4s-44.2-24.8-78.1-24.8c-33.9,0-60.3,9.1-79.3,27.2c-19,18.2-28.4,45-28.4,80.5
		c0,29.9,5,54.5,15.1,73.9c10.1,19.4,26.4,39.1,49,59.3l165.9,145.3c37.1,32.3,69.8,70.8,98.1,115.6c28.2,44.8,42.4,97.9,42.4,159.2
		c0,48.4-10.1,90.2-30.3,125.3c-20.2,35.1-47.8,61.9-82.9,80.5C1089,990.7,1048.4,1000,1002.4,1000z"/>
	<path d="M1343.8,989.1V8.5h93.2l278.5,651.3V8.5h113.8v980.6h-87.2L1460,319.6v669.5H1343.8z"/>
	<path d="M1983,989.1V8.5h380.2v101.7h-243.3v324.5h197.3v96.8h-197.3v359.6h245.8v98.1H1983z"/>
	<path d="M2422.5,989.1L2630.7,8.5h132l209.5,980.6h-129.5l-44.8-247h-199.8l-47.2,247H2422.5z M2616.2,644.1h163.4l-82.3-441.9
		L2616.2,644.1z"/>
	<path d="M3071.4,989.1V8.5h136.8v462.5L3433.4,8.5h127.1l-193.7,432.2L3592,989.1h-133.2l-187.7-460.1l-63,113.8v346.3H3071.4z"/>
	<path d="M3670.7,989.1V8.5h380.2v101.7h-243.3v324.5h197.3v96.8h-197.3v359.6h245.8v98.1H3670.7z"/>
	<path d="M4163.4,989.1V8.5h197.3c65.4,0,119.5,8.7,162.2,26c42.8,17.4,74.5,45.2,95,83.5c20.6,38.3,30.9,88.6,30.9,150.7
		c0,38-4,72.5-12.1,103.5c-8.1,31.1-21,57.3-38.7,78.7c-17.7,21.4-41.2,36.9-70.2,46.6l139.2,491.5h-132l-128.3-460.1h-106.5v460.1
		H4163.4z M4300.2,431h52.1c38.7,0,70.2-4.8,94.4-14.5c24.2-9.7,42-26.2,53.3-49.6c11.3-23.4,16.9-56.1,16.9-98.1
		c0-57.3-10.5-98.7-31.5-124.1s-62.5-38.1-124.7-38.1h-60.5V431z"/>
	<path d="M5023,1000c-56.5,0-103.5-12.1-141-36.3c-37.5-24.2-66-57.7-85.4-100.5c-19.4-42.8-30.7-92.4-33.9-148.9l121.1-32.7
		c2.4,34.7,7.9,68.2,16.3,100.5c8.5,32.3,22.4,58.7,41.8,79.3s46.4,30.9,81.1,30.9c35.5,0,62.3-9.9,80.5-29.7
		c18.2-19.8,27.3-48.2,27.3-85.3c0-44.4-10.1-80.1-30.3-107.1c-20.2-27-45.6-54.3-76.3-81.7l-164.7-145.3
		c-32.3-28.2-56.1-59.1-71.4-92.6c-15.3-33.5-23-74.8-23-124.1c0-71.8,20.6-127.5,61.7-167.1C4868,19.8,4924.1,0,4995.2,0
		c38.7,0,72.8,5.1,102.3,15.1s54.1,25.6,73.9,46.6s35.5,47.4,47.2,79.3s19.6,69.2,23.6,112l-116.2,31.5c-2.4-32.3-7.3-61.9-14.5-89
		c-7.3-27-20-48.8-38.1-65.4s-44.2-24.8-78.1-24.8c-33.9,0-60.3,9.1-79.3,27.2c-19,18.2-28.4,45-28.4,80.5c0,29.9,5,54.5,15.1,73.9
		c10.1,19.4,26.4,39.1,49,59.3l165.9,145.3c37.1,32.3,69.8,70.8,98.1,115.6c28.2,44.8,42.4,97.9,42.4,159.2
		c0,48.4-10.1,90.2-30.3,125.3c-20.2,35.1-47.8,61.9-82.9,80.5C5109.6,990.7,5069,1000,5023,1000z"/>
</g>
</svg>
